<svg xmlns="http://www.w3.org/2000/svg" viewBox="0 0 760 380" width="760" height="380" font-family="system-ui,sans-serif">
<rect width="760" height="380" fill="#ffffff"/><rect x="62" y="44" width="668" height="272" fill="#f9fafb"/>
<line x1="62" y1="236.2" x2="730" y2="236.2" stroke="#e5e7eb" stroke-width="1"/>
<line x1="62" y1="156.5" x2="730" y2="156.5" stroke="#e5e7eb" stroke-width="1"/>
<line x1="62" y1="76.7" x2="730" y2="76.7" stroke="#e5e7eb" stroke-width="1"/>
<line x1="106.5" y1="44" x2="106.5" y2="316" stroke="#e5e7eb" stroke-width="1"/>
<line x1="151.1" y1="44" x2="151.1" y2="316" stroke="#e5e7eb" stroke-width="1"/>
<line x1="195.6" y1="44" x2="195.6" y2="316" stroke="#e5e7eb" stroke-width="1"/>
<line x1="240.1" y1="44" x2="240.1" y2="316" stroke="#e5e7eb" stroke-width="1"/>
<line x1="284.7" y1="44" x2="284.7" y2="316" stroke="#e5e7eb" stroke-width="1"/>
<line x1="329.2" y1="44" x2="329.2" y2="316" stroke="#e5e7eb" stroke-width="1"/>
<line x1="373.7" y1="44" x2="373.7" y2="316" stroke="#e5e7eb" stroke-width="1"/>
<line x1="418.3" y1="44" x2="418.3" y2="316" stroke="#e5e7eb" stroke-width="1"/>
<line x1="462.8" y1="44" x2="462.8" y2="316" stroke="#e5e7eb" stroke-width="1"/>
<line x1="507.3" y1="44" x2="507.3" y2="316" stroke="#e5e7eb" stroke-width="1"/>
<line x1="551.9" y1="44" x2="551.9" y2="316" stroke="#e5e7eb" stroke-width="1"/>
<line x1="596.4" y1="44" x2="596.4" y2="316" stroke="#e5e7eb" stroke-width="1"/>
<line x1="640.9" y1="44" x2="640.9" y2="316" stroke="#e5e7eb" stroke-width="1"/>
<line x1="685.5" y1="44" x2="685.5" y2="316" stroke="#e5e7eb" stroke-width="1"/>
<line x1="730.0" y1="44" x2="730.0" y2="316" stroke="#e5e7eb" stroke-width="1"/>
<line x1="62" y1="116.6" x2="730" y2="116.6" stroke="#d97706" stroke-width="1.2" stroke-dasharray="6,4"/><text x="734" y="116.6" fill="#d97706" font-size="10" dominant-baseline="middle">0.05 %</text>
<polygon points="108.0,313.2 109.5,310.6 111.0,308.1 112.5,305.6 114.0,303.2 115.4,300.9 116.9,298.6 118.4,296.3 119.9,294.1 121.4,291.9 122.9,289.8 124.3,287.6 125.8,285.5 127.3,283.5 128.8,281.4 130.3,279.3 131.8,277.3 133.3,275.3 134.7,273.3 136.2,271.3 137.7,269.3 139.2,267.4 140.7,265.4 142.2,263.5 143.6,261.6 145.1,259.6 146.6,257.7 148.1,255.8 149.6,253.9 151.1,252.0 152.6,250.2 154.0,248.3 155.5,246.4 157.0,244.5 158.5,242.7 160.0,240.8 161.5,239.0 162.9,237.2 164.4,235.3 165.9,233.5 167.4,231.7 168.9,229.9 170.4,228.0 171.8,226.2 173.3,224.4 174.8,225.4 176.3,226.3 177.8,227.3 179.3,228.2 180.8,229.2 182.2,230.1 183.7,231.1 185.2,232.0 186.7,232.9 188.2,233.9 189.7,234.8 191.1,235.7 192.6,236.7 194.1,237.6 195.6,238.5 197.1,236.7 198.6,234.8 200.1,233.0 201.5,231.2 203.0,229.4 204.5,227.6 206.0,225.7 207.5,223.9 209.0,222.1 210.4,220.3 211.9,218.5 213.4,216.8 214.9,215.0 216.4,213.2 217.9,211.4 219.4,209.6 220.8,207.9 222.3,206.1 223.8,204.3 225.3,202.5 226.8,200.8 228.3,199.0 229.7,197.3 231.2,195.5 232.7,193.8 234.2,192.0 235.7,190.3 237.2,188.5 238.6,186.8 240.1,185.0 241.6,183.3 243.1,181.6 244.6,179.8 246.1,178.1 247.6,176.4 249.0,174.6 250.5,172.9 252.0,171.2 253.5,169.5 255.0,167.7 256.5,166.0 257.9,164.3 259.4,162.6 260.9,160.9 262.4,159.2 263.9,160.2 265.4,161.2 266.9,162.3 268.3,163.3 269.8,164.4 271.3,165.4 272.8,166.5 274.3,167.5 275.8,168.5 277.2,169.6 278.7,170.6 280.2,171.6 281.7,172.7 283.2,173.7 284.7,174.7 286.2,173.0 287.6,171.3 289.1,169.6 290.6,167.8 292.1,166.1 293.6,164.4 295.1,162.7 296.5,161.0 298.0,159.3 299.5,157.5 301.0,155.8 302.5,154.1 304.0,152.4 305.4,150.7 306.9,149.0 308.4,147.3 309.9,145.6 311.4,143.9 312.9,142.2 314.4,140.5 315.8,138.8 317.3,137.1 318.8,135.4 320.3,133.7 321.8,132.0 323.3,130.3 324.7,128.6 326.2,127.0 327.7,125.3 329.2,123.6 330.7,121.9 332.2,120.2 333.7,118.5 335.1,116.8 336.6,115.2 338.1,113.5 339.6,111.8 341.1,110.1 342.6,108.4 344.0,106.8 345.5,105.1 347.0,103.4 348.5,101.7 350.0,100.1 351.5,98.4 353.0,99.5 354.4,100.6 355.9,101.7 357.4,102.7 358.9,103.8 360.4,104.9 361.9,106.0 363.3,107.1 364.8,108.2 366.3,109.2 367.8,110.3 369.3,111.4 370.8,112.5 372.2,113.6 373.7,114.6 375.2,115.7 376.7,116.8 378.2,117.9 379.7,118.9 381.2,120.0 382.6,121.1 384.1,122.2 385.6,123.2 387.1,124.3 388.6,125.4 390.1,126.4 391.5,127.5 393.0,128.6 394.5,129.7 396.0,130.7 397.5,131.8 399.0,132.9 400.5,133.9 401.9,135.0 403.4,136.1 404.9,137.1 406.4,138.2 407.9,139.2 409.4,140.3 410.8,141.4 412.3,142.4 413.8,143.5 415.3,144.5 416.8,145.6 418.3,146.7 419.8,147.7 421.2,148.8 422.7,149.8 424.2,150.9 425.7,151.9 427.2,153.0 428.7,154.0 430.1,155.1 431.6,156.1 433.1,157.2 434.6,158.2 436.1,159.3 437.6,160.3 439.0,161.4 440.5,162.4 442.0,163.4 443.5,164.5 445.0,165.5 446.5,166.6 448.0,167.6 449.4,168.6 450.9,169.7 452.4,170.7 453.9,171.8 455.4,172.8 456.9,173.8 458.3,174.8 459.8,175.9 461.3,176.9 462.8,177.9 464.3,179.0 465.8,180.0 467.3,181.0 468.7,182.0 470.2,183.1 471.7,184.1 473.2,185.1 474.7,186.1 476.2,187.1 477.6,188.2 479.1,189.2 480.6,190.2 482.1,191.2 483.6,192.2 485.1,193.2 486.6,194.2 488.0,195.2 489.5,196.2 491.0,197.2 492.5,198.2 494.0,199.2 495.5,200.2 496.9,201.2 498.4,202.2 499.9,203.2 501.4,204.2 502.9,205.2 504.4,206.2 505.8,207.2 507.3,208.2 508.8,209.2 510.3,210.2 511.8,211.1 513.3,212.1 514.8,213.1 516.2,214.1 517.7,215.1 519.2,216.0 520.7,217.0 522.2,218.0 523.7,218.9 525.1,219.9 526.6,220.9 528.1,221.8 529.6,222.8 531.1,223.7 532.6,224.7 534.1,225.7 535.5,226.6 537.0,227.6 538.5,228.5 540.0,229.5 541.5,230.4 543.0,231.3 544.4,232.3 545.9,233.2 547.4,234.1 548.9,235.1 550.4,236.0 551.9,236.9 553.4,237.9 554.8,238.8 556.3,239.7 557.8,240.6 559.3,241.5 560.8,242.4 562.3,243.4 563.7,244.3 565.2,245.2 566.7,246.1 568.2,247.0 569.7,247.9 571.2,248.7 572.6,249.6 574.1,250.5 575.6,251.4 577.1,252.3 578.6,253.1 580.1,254.0 581.6,254.9 583.0,255.8 584.5,256.6 586.0,257.5 587.5,258.3 589.0,259.2 590.5,260.0 591.9,260.9 593.4,261.7 594.9,262.5 596.4,263.4 597.9,264.2 599.4,265.0 600.9,265.8 602.3,266.7 603.8,267.5 605.3,268.3 606.8,269.1 608.3,269.9 609.8,270.7 611.2,271.5 612.7,272.2 614.2,273.0 615.7,273.8 617.2,274.6 618.7,275.3 620.2,276.1 621.6,276.8 623.1,277.6 624.6,278.3 626.1,279.0 627.6,279.8 629.1,280.5 630.5,281.2 632.0,281.9 633.5,282.6 635.0,283.3 636.5,284.0 638.0,284.7 639.4,285.4 640.9,286.1 642.4,286.7 643.9,287.4 645.4,288.1 646.9,288.7 648.4,289.3 649.8,290.0 651.3,290.6 652.8,291.2 654.3,291.8 655.8,292.4 657.3,293.0 658.7,293.6 660.2,294.2 661.7,294.8 663.2,295.3 664.7,295.9 666.2,296.4 667.7,297.0 669.1,297.5 670.6,298.0 672.1,298.6 673.6,299.1 675.1,299.6 676.6,300.0 678.0,300.5 679.5,301.0 681.0,301.5 682.5,301.9 684.0,302.4 685.5,302.8 687.0,303.2 688.4,303.6 689.9,304.0 691.4,304.4 692.9,304.8 694.4,305.2 695.9,305.6 697.3,306.0 698.8,306.3 700.3,306.7 701.8,307.0 703.3,307.3 704.8,307.6 706.2,308.0 707.7,308.3 709.2,308.5 710.7,308.8 712.2,309.1 713.7,309.4 715.2,309.6 716.6,309.9 718.1,310.1 719.6,310.4 721.1,310.6 722.6,310.8 724.1,311.0 725.5,311.2 727.0,311.4 728.5,311.6 730.0,311.8 730.0,313.3 728.5,313.1 727.0,313.0 725.5,312.9 724.1,312.8 722.6,312.6 721.1,312.5 719.6,312.3 718.1,312.2 716.6,312.0 715.2,311.8 713.7,311.7 712.2,311.5 710.7,311.3 709.2,311.1 707.7,310.9 706.2,310.7 704.8,310.5 703.3,310.3 701.8,310.1 700.3,309.9 698.8,309.7 697.3,309.4 695.9,309.2 694.4,309.0 692.9,308.7 691.4,308.5 689.9,308.2 688.4,307.9 687.0,307.7 685.5,307.4 684.0,307.1 682.5,306.8 681.0,306.5 679.5,306.2 678.0,305.9 676.6,305.6 675.1,305.3 673.6,304.9 672.1,304.6 670.6,304.3 669.1,303.9 667.7,303.6 666.2,303.2 664.7,302.9 663.2,302.5 661.7,302.1 660.2,301.8 658.7,301.4 657.3,301.0 655.8,300.6 654.3,300.2 652.8,299.8 651.3,299.4 649.8,299.0 648.4,298.6 646.9,298.2 645.4,297.8 643.9,297.3 642.4,296.9 640.9,296.5 639.4,296.0 638.0,295.6 636.5,295.1 635.0,294.7 633.5,294.2 632.0,293.8 630.5,293.3 629.1,292.8 627.6,292.3 626.1,291.9 624.6,291.4 623.1,290.9 621.6,290.4 620.2,289.9 618.7,289.4 617.2,288.9 615.7,288.4 614.2,287.9 612.7,287.4 611.2,286.9 609.8,286.4 608.3,285.9 606.8,285.4 605.3,284.8 603.8,284.3 602.3,283.8 600.9,283.3 599.4,282.7 597.9,282.2 596.4,281.6 594.9,281.1 593.4,280.6 591.9,280.0 590.5,279.5 589.0,278.9 587.5,278.3 586.0,277.8 584.5,277.2 583.0,276.7 581.6,276.1 580.1,275.5 578.6,275.0 577.1,274.4 575.6,273.8 574.1,273.2 572.6,272.7 571.2,272.1 569.7,271.5 568.2,270.9 566.7,270.3 565.2,269.7 563.7,269.2 562.3,268.6 560.8,268.0 559.3,267.4 557.8,266.8 556.3,266.2 554.8,265.6 553.4,265.0 551.9,264.4 550.4,263.8 548.9,263.2 547.4,262.6 545.9,261.9 544.4,261.3 543.0,260.7 541.5,260.1 540.0,259.5 538.5,258.9 537.0,258.3 535.5,257.6 534.1,257.0 532.6,256.4 531.1,255.8 529.6,255.1 528.1,254.5 526.6,253.9 525.1,253.3 523.7,252.6 522.2,252.0 520.7,251.4 519.2,250.7 517.7,250.1 516.2,249.5 514.8,248.8 513.3,248.2 511.8,247.5 510.3,246.9 508.8,246.3 507.3,245.6 505.8,245.0 504.4,244.3 502.9,243.7 501.4,243.0 499.9,242.4 498.4,241.7 496.9,241.1 495.5,240.4 494.0,239.8 492.5,239.1 491.0,238.5 489.5,237.8 488.0,237.2 486.6,236.5 485.1,235.8 483.6,235.2 482.1,234.5 480.6,233.9 479.1,233.2 477.6,232.5 476.2,231.9 474.7,231.2 473.2,230.5 471.7,229.9 470.2,229.2 468.7,228.5 467.3,227.9 465.8,227.2 464.3,226.5 462.8,225.9 461.3,225.2 459.8,224.5 458.3,223.8 456.9,223.2 455.4,222.5 453.9,221.8 452.4,221.1 450.9,220.5 449.4,219.8 448.0,219.1 446.5,218.4 445.0,217.8 443.5,217.1 442.0,216.4 440.5,215.7 439.0,215.0 437.6,214.4 436.1,213.7 434.6,213.0 433.1,212.3 431.6,211.6 430.1,210.9 428.7,210.3 427.2,209.6 425.7,208.9 424.2,208.2 422.7,207.5 421.2,206.8 419.8,206.1 418.3,205.4 416.8,204.7 415.3,204.1 413.8,203.4 412.3,202.7 410.8,202.0 409.4,201.3 407.9,200.6 406.4,199.9 404.9,199.2 403.4,198.5 401.9,197.8 400.5,197.1 399.0,196.4 397.5,195.7 396.0,195.0 394.5,194.3 393.0,193.6 391.5,192.9 390.1,192.2 388.6,191.5 387.1,190.8 385.6,190.1 384.1,189.4 382.6,188.7 381.2,188.0 379.7,187.3 378.2,186.6 376.7,185.9 375.2,185.2 373.7,184.5 372.2,183.8 370.8,183.1 369.3,182.4 367.8,181.7 366.3,181.0 364.8,180.3 363.3,179.6 361.9,178.9 360.4,178.2 358.9,177.5 357.4,176.8 355.9,176.1 354.4,175.3 353.0,174.6 351.5,173.9 350.0,175.0 348.5,176.1 347.0,177.2 345.5,178.3 344.0,179.4 342.6,180.5 341.1,181.6 339.6,182.7 338.1,183.8 336.6,184.9 335.1,186.0 333.7,187.1 332.2,188.2 330.7,189.3 329.2,190.4 327.7,191.5 326.2,192.6 324.7,193.7 323.3,194.8 321.8,195.9 320.3,197.0 318.8,198.1 317.3,199.2 315.8,200.3 314.4,201.4 312.9,202.5 311.4,203.6 309.9,204.7 308.4,205.9 306.9,207.0 305.4,208.1 304.0,209.2 302.5,210.3 301.0,211.4 299.5,212.5 298.0,213.7 296.5,214.8 295.1,215.9 293.6,217.0 292.1,218.1 290.6,219.3 289.1,220.4 287.6,221.5 286.2,222.6 284.7,223.8 283.2,223.1 281.7,222.4 280.2,221.7 278.7,221.1 277.2,220.4 275.8,219.7 274.3,219.0 272.8,218.4 271.3,217.7 269.8,217.0 268.3,216.3 266.9,215.6 265.4,215.0 263.9,214.3 262.4,213.6 260.9,214.7 259.4,215.8 257.9,217.0 256.5,218.1 255.0,219.2 253.5,220.3 252.0,221.4 250.5,222.6 249.0,223.7 247.6,224.8 246.1,226.0 244.6,227.1 243.1,228.2 241.6,229.4 240.1,230.5 238.6,231.6 237.2,232.8 235.7,233.9 234.2,235.0 232.7,236.2 231.2,237.3 229.7,238.5 228.3,239.6 226.8,240.8 225.3,241.9 223.8,243.1 222.3,244.2 220.8,245.4 219.4,246.6 217.9,247.7 216.4,248.9 214.9,250.0 213.4,251.2 211.9,252.4 210.4,253.5 209.0,254.7 207.5,255.9 206.0,257.1 204.5,258.3 203.0,259.4 201.5,260.6 200.1,261.8 198.6,263.0 197.1,264.2 195.6,265.4 194.1,264.8 192.6,264.2 191.1,263.6 189.7,263.0 188.2,262.4 186.7,261.8 185.2,261.2 183.7,260.5 182.2,259.9 180.8,259.3 179.3,258.7 177.8,258.1 176.3,257.5 174.8,256.8 173.3,256.2 171.8,257.4 170.4,258.6 168.9,259.8 167.4,260.9 165.9,262.1 164.4,263.3 162.9,264.5 161.5,265.7 160.0,266.9 158.5,268.1 157.0,269.3 155.5,270.6 154.0,271.8 152.6,273.0 151.1,274.2 149.6,275.5 148.1,276.7 146.6,278.0 145.1,279.2 143.6,280.5 142.2,281.7 140.7,283.0 139.2,284.3 137.7,285.5 136.2,286.8 134.7,288.1 133.3,289.4 131.8,290.7 130.3,292.1 128.8,293.4 127.3,294.8 125.8,296.1 124.3,297.5 122.9,298.9 121.4,300.3 119.9,301.7 118.4,303.2 116.9,304.6 115.4,306.1 114.0,307.7 112.5,309.2 111.0,310.8 109.5,312.5 108.0,314.2" fill="#bfdbfe" fill-opacity="0.55" stroke="none"/>
<polyline points="62.0,316.0 63.5,316.0 65.0,316.0 66.5,316.0 67.9,316.0 69.4,316.0 70.9,316.0 72.4,316.0 73.9,316.0 75.4,316.0 76.8,316.0 78.3,316.0 79.8,316.0 81.3,316.0 82.8,316.0 84.3,316.0 85.8,316.0 87.2,316.0 88.7,316.0 90.2,316.0 91.7,316.0 93.2,316.0 94.7,316.0 96.1,316.0 97.6,316.0 99.1,316.0 100.6,316.0 102.1,316.0 103.6,316.0 105.0,316.0 106.5,316.0 108.0,313.7 109.5,311.5 111.0,309.4 112.5,307.4 114.0,305.4 115.4,303.5 116.9,301.6 118.4,299.7 119.9,297.9 121.4,296.1 122.9,294.3 124.3,292.6 125.8,290.8 127.3,289.1 128.8,287.4 130.3,285.7 131.8,284.0 133.3,282.4 134.7,280.7 136.2,279.1 137.7,277.4 139.2,275.8 140.7,274.2 142.2,272.6 143.6,271.0 145.1,269.4 146.6,267.8 148.1,266.3 149.6,264.7 151.1,263.1 152.6,261.6 154.0,260.0 155.5,258.5 157.0,256.9 158.5,255.4 160.0,253.9 161.5,252.4 162.9,250.8 164.4,249.3 165.9,247.8 167.4,246.3 168.9,244.8 170.4,243.3 171.8,241.8 173.3,240.3 174.8,241.1 176.3,241.9 177.8,242.7 179.3,243.5 180.8,244.2 182.2,245.0 183.7,245.8 185.2,246.6 186.7,247.4 188.2,248.1 189.7,248.9 191.1,249.7 192.6,250.4 194.1,251.2 195.6,252.0 197.1,250.4 198.6,248.9 200.1,247.4 201.5,245.9 203.0,244.4 204.5,242.9 206.0,241.4 207.5,239.9 209.0,238.4 210.4,236.9 211.9,235.5 213.4,234.0 214.9,232.5 216.4,231.0 217.9,229.6 219.4,228.1 220.8,226.6 222.3,225.2 223.8,223.7 225.3,222.2 226.8,220.8 228.3,219.3 229.7,217.9 231.2,216.4 232.7,215.0 234.2,213.5 235.7,212.1 237.2,210.6 238.6,209.2 240.1,207.8 241.6,206.3 243.1,204.9 244.6,203.5 246.1,202.0 247.6,200.6 249.0,199.2 250.5,197.7 252.0,196.3 253.5,194.9 255.0,193.5 256.5,192.0 257.9,190.6 259.4,189.2 260.9,187.8 262.4,186.4 263.9,187.2 265.4,188.1 266.9,189.0 268.3,189.8 269.8,190.7 271.3,191.5 272.8,192.4 274.3,193.3 275.8,194.1 277.2,195.0 278.7,195.8 280.2,196.7 281.7,197.5 283.2,198.4 284.7,199.3 286.2,197.8 287.6,196.4 289.1,195.0 290.6,193.5 292.1,192.1 293.6,190.7 295.1,189.3 296.5,187.9 298.0,186.5 299.5,185.0 301.0,183.6 302.5,182.2 304.0,180.8 305.4,179.4 306.9,178.0 308.4,176.6 309.9,175.2 311.4,173.8 312.9,172.4 314.4,171.0 315.8,169.6 317.3,168.2 318.8,166.8 320.3,165.4 321.8,164.0 323.3,162.6 324.7,161.2 326.2,159.8 327.7,158.4 329.2,157.0 330.7,155.6 332.2,154.2 333.7,152.8 335.1,151.4 336.6,150.0 338.1,148.6 339.6,147.2 341.1,145.9 342.6,144.5 344.0,143.1 345.5,141.7 347.0,140.3 348.5,138.9 350.0,137.5 351.5,136.2 353.0,137.1 354.4,138.0 355.9,138.9 357.4,139.8 358.9,140.6 360.4,141.5 361.9,142.4 363.3,143.3 364.8,144.2 366.3,145.1 367.8,146.0 369.3,146.9 370.8,147.8 372.2,148.7 373.7,149.6 375.2,150.5 376.7,151.4 378.2,152.2 379.7,153.1 381.2,154.0 382.6,154.9 384.1,155.8 385.6,156.7 387.1,157.6 388.6,158.5 390.1,159.3 391.5,160.2 393.0,161.1 394.5,162.0 396.0,162.9 397.5,163.8 399.0,164.6 400.5,165.5 401.9,166.4 403.4,167.3 404.9,168.2 406.4,169.0 407.9,169.9 409.4,170.8 410.8,171.7 412.3,172.5 413.8,173.4 415.3,174.3 416.8,175.2 418.3,176.0 419.8,176.9 421.2,177.8 422.7,178.7 424.2,179.5 425.7,180.4 427.2,181.3 428.7,182.1 430.1,183.0 431.6,183.9 433.1,184.7 434.6,185.6 436.1,186.5 437.6,187.3 439.0,188.2 440.5,189.1 442.0,189.9 443.5,190.8 445.0,191.6 446.5,192.5 448.0,193.4 449.4,194.2 450.9,195.1 452.4,195.9 453.9,196.8 455.4,197.6 456.9,198.5 458.3,199.3 459.8,200.2 461.3,201.0 462.8,201.9 464.3,202.7 465.8,203.6 467.3,204.4 468.7,205.3 470.2,206.1 471.7,207.0 473.2,207.8 474.7,208.7 476.2,209.5 477.6,210.3 479.1,211.2 480.6,212.0 482.1,212.9 483.6,213.7 485.1,214.5 486.6,215.4 488.0,216.2 489.5,217.0 491.0,217.9 492.5,218.7 494.0,219.5 495.5,220.3 496.9,221.2 498.4,222.0 499.9,222.8 501.4,223.6 502.9,224.4 504.4,225.3 505.8,226.1 507.3,226.9 508.8,227.7 510.3,228.5 511.8,229.3 513.3,230.1 514.8,231.0 516.2,231.8 517.7,232.6 519.2,233.4 520.7,234.2 522.2,235.0 523.7,235.8 525.1,236.6 526.6,237.4 528.1,238.2 529.6,239.0 531.1,239.8 532.6,240.5 534.1,241.3 535.5,242.1 537.0,242.9 538.5,243.7 540.0,244.5 541.5,245.3 543.0,246.0 544.4,246.8 545.9,247.6 547.4,248.4 548.9,249.1 550.4,249.9 551.9,250.7 553.4,251.4 554.8,252.2 556.3,252.9 557.8,253.7 559.3,254.5 560.8,255.2 562.3,256.0 563.7,256.7 565.2,257.5 566.7,258.2 568.2,258.9 569.7,259.7 571.2,260.4 572.6,261.1 574.1,261.9 575.6,262.6 577.1,263.3 578.6,264.1 580.1,264.8 581.6,265.5 583.0,266.2 584.5,266.9 586.0,267.6 587.5,268.3 589.0,269.0 590.5,269.7 591.9,270.4 593.4,271.1 594.9,271.8 596.4,272.5 597.9,273.2 599.4,273.9 600.9,274.5 602.3,275.2 603.8,275.9 605.3,276.6 606.8,277.2 608.3,277.9 609.8,278.5 611.2,279.2 612.7,279.8 614.2,280.5 615.7,281.1 617.2,281.7 618.7,282.4 620.2,283.0 621.6,283.6 623.1,284.2 624.6,284.9 626.1,285.5 627.6,286.1 629.1,286.7 630.5,287.3 632.0,287.8 633.5,288.4 635.0,289.0 636.5,289.6 638.0,290.1 639.4,290.7 640.9,291.3 642.4,291.8 643.9,292.4 645.4,292.9 646.9,293.4 648.4,294.0 649.8,294.5 651.3,295.0 652.8,295.5 654.3,296.0 655.8,296.5 657.3,297.0 658.7,297.5 660.2,298.0 661.7,298.5 663.2,298.9 664.7,299.4 666.2,299.8 667.7,300.3 669.1,300.7 670.6,301.2 672.1,301.6 673.6,302.0 675.1,302.4 676.6,302.8 678.0,303.2 679.5,303.6 681.0,304.0 682.5,304.4 684.0,304.7 685.5,305.1 687.0,305.4 688.4,305.8 689.9,306.1 691.4,306.5 692.9,306.8 694.4,307.1 695.9,307.4 697.3,307.7 698.8,308.0 700.3,308.3 701.8,308.6 703.3,308.8 704.8,309.1 706.2,309.3 707.7,309.6 709.2,309.8 710.7,310.1 712.2,310.3 713.7,310.5 715.2,310.7 716.6,310.9 718.1,311.1 719.6,311.3 721.1,311.5 722.6,311.7 724.1,311.9 725.5,312.1 727.0,312.2 728.5,312.4 730.0,312.5" fill="none" stroke="#2563eb" stroke-width="2.5"/>
<line x1="62" y1="316.0" x2="730" y2="316.0" stroke="#6b7280" stroke-width="1"/>
<line x1="106.5" y1="310.0" x2="106.5" y2="322.0" stroke="#1d4ed8" stroke-width="2"/><text x="106.5" y="344.0" fill="#1d4ed8" font-size="9" text-anchor="middle">Wine 1
19:00</text>
<line x1="195.6" y1="310.0" x2="195.6" y2="322.0" stroke="#1d4ed8" stroke-width="2"/><text x="195.6" y="344.0" fill="#1d4ed8" font-size="9" text-anchor="middle">Wine 2
20:00</text>
<line x1="284.7" y1="310.0" x2="284.7" y2="322.0" stroke="#1d4ed8" stroke-width="2"/><text x="284.7" y="344.0" fill="#1d4ed8" font-size="9" text-anchor="middle">Wine 3
21:00</text>
<line x1="62" y1="44" x2="62" y2="316" stroke="#374151" stroke-width="1.5"/><line x1="62" y1="316" x2="730" y2="316" stroke="#374151" stroke-width="1.5"/>
<text x="57" y="316.0" fill="#374151" font-size="10" text-anchor="end" dominant-baseline="middle">0.00 %</text><line x1="59" y1="316.0" x2="62" y2="316.0" stroke="#374151" stroke-width="1"/>
<text x="57" y="236.2" fill="#374151" font-size="10" text-anchor="end" dominant-baseline="middle">0.02 %</text><line x1="59" y1="236.2" x2="62" y2="236.2" stroke="#374151" stroke-width="1"/>
<text x="57" y="156.5" fill="#374151" font-size="10" text-anchor="end" dominant-baseline="middle">0.04 %</text><line x1="59" y1="156.5" x2="62" y2="156.5" stroke="#374151" stroke-width="1"/>
<text x="57" y="76.7" fill="#374151" font-size="10" text-anchor="end" dominant-baseline="middle">0.06 %</text><line x1="59" y1="76.7" x2="62" y2="76.7" stroke="#374151" stroke-width="1"/>
<text x="106.5" y="360.0" fill="#374151" font-size="10" text-anchor="middle">19:00</text><line x1="106.5" y1="316" x2="106.5" y2="320" stroke="#374151" stroke-width="1"/>
<text x="151.1" y="360.0" fill="#374151" font-size="10" text-anchor="middle">19:30</text><line x1="151.1" y1="316" x2="151.1" y2="320" stroke="#374151" stroke-width="1"/>
<text x="195.6" y="360.0" fill="#374151" font-size="10" text-anchor="middle">20:00</text><line x1="195.6" y1="316" x2="195.6" y2="320" stroke="#374151" stroke-width="1"/>
<text x="240.1" y="360.0" fill="#374151" font-size="10" text-anchor="middle">20:30</text><line x1="240.1" y1="316" x2="240.1" y2="320" stroke="#374151" stroke-width="1"/>
<text x="284.7" y="360.0" fill="#374151" font-size="10" text-anchor="middle">21:00</text><line x1="284.7" y1="316" x2="284.7" y2="320" stroke="#374151" stroke-width="1"/>
<text x="329.2" y="360.0" fill="#374151" font-size="10" text-anchor="middle">21:30</text><line x1="329.2" y1="316" x2="329.2" y2="320" stroke="#374151" stroke-width="1"/>
<text x="373.7" y="360.0" fill="#374151" font-size="10" text-anchor="middle">22:00</text><line x1="373.7" y1="316" x2="373.7" y2="320" stroke="#374151" stroke-width="1"/>
<text x="418.3" y="360.0" fill="#374151" font-size="10" text-anchor="middle">22:30</text><line x1="418.3" y1="316" x2="418.3" y2="320" stroke="#374151" stroke-width="1"/>
<text x="462.8" y="360.0" fill="#374151" font-size="10" text-anchor="middle">23:00</text><line x1="462.8" y1="316" x2="462.8" y2="320" stroke="#374151" stroke-width="1"/>
<text x="507.3" y="360.0" fill="#374151" font-size="10" text-anchor="middle">23:30</text><line x1="507.3" y1="316" x2="507.3" y2="320" stroke="#374151" stroke-width="1"/>
<text x="551.9" y="360.0" fill="#374151" font-size="10" text-anchor="middle">00:00</text><line x1="551.9" y1="316" x2="551.9" y2="320" stroke="#374151" stroke-width="1"/>
<text x="596.4" y="360.0" fill="#374151" font-size="10" text-anchor="middle">00:30</text><line x1="596.4" y1="316" x2="596.4" y2="320" stroke="#374151" stroke-width="1"/>
<text x="640.9" y="360.0" fill="#374151" font-size="10" text-anchor="middle">01:00</text><line x1="640.9" y1="316" x2="640.9" y2="320" stroke="#374151" stroke-width="1"/>
<text x="685.5" y="360.0" fill="#374151" font-size="10" text-anchor="middle">01:30</text><line x1="685.5" y1="316" x2="685.5" y2="320" stroke="#374151" stroke-width="1"/>
<text x="730.0" y="360.0" fill="#374151" font-size="10" text-anchor="middle">02:00</text><line x1="730.0" y1="316" x2="730.0" y2="320" stroke="#374151" stroke-width="1"/>
<text x="396" y="376" fill="#374151" font-size="11" text-anchor="middle">Time</text><text x="14" y="180" fill="#374151" font-size="11" text-anchor="middle" transform="rotate(-90,14,180)">BAC (%)</text>
<line x1="70" y1="54" x2="92" y2="54" stroke="#2563eb" stroke-width="2.5"/>
<text x="96" y="54" fill="#374151" font-size="10" dominant-baseline="middle">Main curve</text>
<rect x="70" y="65" width="22" height="10" fill="#bfdbfe" fill-opacity="0.7"/>
<text x="96" y="70" fill="#374151" font-size="10" dominant-baseline="middle">±21 % uncertainty</text>
<text x="380" y="20" fill="#111827" font-size="13" font-weight="bold" text-anchor="middle">Example 1 — Three wines, no food (baseline + uncertainty band)</text>
<text x="730" y="54" fill="#6b7280" font-size="9" text-anchor="end">Profile: male, 70 kg, 175 cm · r=0.789 · βₘₐₓ=0.015 %/h · Kₘ=0.005 %</text>
</svg>
