<svg xmlns="http://www.w3.org/2000/svg" viewBox="0 0 760 380" width="760" height="380" font-family="system-ui,sans-serif">
<rect width="760" height="380" fill="#ffffff"/><rect x="62" y="44" width="668" height="272" fill="#f9fafb"/>
<line x1="62" y1="247.3" x2="730" y2="247.3" stroke="#e5e7eb" stroke-width="1"/>
<line x1="62" y1="178.6" x2="730" y2="178.6" stroke="#e5e7eb" stroke-width="1"/>
<line x1="62" y1="109.9" x2="730" y2="109.9" stroke="#e5e7eb" stroke-width="1"/>
<line x1="106.5" y1="44" x2="106.5" y2="316" stroke="#e5e7eb" stroke-width="1"/>
<line x1="151.1" y1="44" x2="151.1" y2="316" stroke="#e5e7eb" stroke-width="1"/>
<line x1="195.6" y1="44" x2="195.6" y2="316" stroke="#e5e7eb" stroke-width="1"/>
<line x1="240.1" y1="44" x2="240.1" y2="316" stroke="#e5e7eb" stroke-width="1"/>
<line x1="284.7" y1="44" x2="284.7" y2="316" stroke="#e5e7eb" stroke-width="1"/>
<line x1="329.2" y1="44" x2="329.2" y2="316" stroke="#e5e7eb" stroke-width="1"/>
<line x1="373.7" y1="44" x2="373.7" y2="316" stroke="#e5e7eb" stroke-width="1"/>
<line x1="418.3" y1="44" x2="418.3" y2="316" stroke="#e5e7eb" stroke-width="1"/>
<line x1="462.8" y1="44" x2="462.8" y2="316" stroke="#e5e7eb" stroke-width="1"/>
<line x1="507.3" y1="44" x2="507.3" y2="316" stroke="#e5e7eb" stroke-width="1"/>
<line x1="551.9" y1="44" x2="551.9" y2="316" stroke="#e5e7eb" stroke-width="1"/>
<line x1="596.4" y1="44" x2="596.4" y2="316" stroke="#e5e7eb" stroke-width="1"/>
<line x1="640.9" y1="44" x2="640.9" y2="316" stroke="#e5e7eb" stroke-width="1"/>
<line x1="685.5" y1="44" x2="685.5" y2="316" stroke="#e5e7eb" stroke-width="1"/>
<line x1="730.0" y1="44" x2="730.0" y2="316" stroke="#e5e7eb" stroke-width="1"/>
<line x1="62" y1="144.2" x2="730" y2="144.2" stroke="#d97706" stroke-width="1.2" stroke-dasharray="6,4"/><text x="734" y="144.2" fill="#d97706" font-size="10" dominant-baseline="middle">0.05 %</text>
<polygon points="108.0,313.6 109.5,311.3 111.0,309.0 112.5,306.7 114.0,304.5 115.4,302.3 116.9,300.1 118.4,297.9 119.9,295.8 121.4,293.6 122.9,291.5 124.3,289.5 125.8,287.4 127.3,285.4 128.8,283.3 130.3,281.3 131.8,279.3 133.3,277.3 134.7,275.3 136.2,273.4 137.7,271.4 139.2,269.5 140.7,267.5 142.2,265.6 143.6,263.7 145.1,261.8 146.6,259.9 148.1,258.0 149.6,256.2 151.1,254.3 152.6,252.4 154.0,250.6 155.5,248.7 157.0,246.9 158.5,245.1 160.0,243.3 161.5,241.4 162.9,239.6 164.4,237.8 165.9,236.0 167.4,234.2 168.9,232.5 170.4,230.7 171.8,228.9 173.3,227.1 174.8,227.7 176.3,228.3 177.8,229.0 179.3,229.6 180.8,230.2 182.2,230.8 183.7,231.4 185.2,232.0 186.7,232.6 188.2,233.2 189.7,233.7 191.1,234.3 192.6,234.9 194.1,235.5 195.6,236.1 197.1,234.3 198.6,232.5 200.1,230.7 201.5,229.0 203.0,227.2 204.5,225.4 206.0,223.7 207.5,221.9 209.0,220.2 210.4,218.4 211.9,216.7 213.4,214.9 214.9,213.2 216.4,211.5 217.9,209.8 219.4,208.0 220.8,206.3 222.3,204.6 223.8,202.9 225.3,201.2 226.8,199.5 228.3,197.8 229.7,196.1 231.2,194.4 232.7,192.7 234.2,191.0 235.7,189.4 237.2,187.7 238.6,186.0 240.1,184.3 241.6,182.7 243.1,181.0 244.6,179.3 246.1,177.7 247.6,176.0 249.0,174.3 250.5,172.7 252.0,171.0 253.5,169.4 255.0,167.7 256.5,166.1 257.9,164.5 259.4,162.8 260.9,161.2 262.4,159.6 263.9,160.3 265.4,161.0 266.9,161.8 268.3,162.5 269.8,163.3 271.3,164.0 272.8,164.7 274.3,165.5 275.8,166.2 277.2,166.9 278.7,167.7 280.2,168.4 281.7,169.1 283.2,169.9 284.7,170.6 286.2,168.9 287.6,167.3 289.1,165.7 290.6,164.0 292.1,162.4 293.6,160.7 295.1,159.1 296.5,157.5 298.0,155.8 299.5,154.2 301.0,152.6 302.5,151.0 304.0,149.3 305.4,147.7 306.9,146.1 308.4,144.5 309.9,142.9 311.4,141.3 312.9,139.7 314.4,138.1 315.8,136.5 317.3,134.8 318.8,133.2 320.3,131.6 321.8,130.0 323.3,128.4 324.7,126.9 326.2,125.3 327.7,123.7 329.2,122.1 330.7,120.5 332.2,118.9 333.7,117.3 335.1,115.7 336.6,114.1 338.1,112.6 339.6,111.0 341.1,109.4 342.6,107.8 344.0,106.3 345.5,104.7 347.0,103.1 348.5,101.5 350.0,100.0 351.5,98.4 353.0,99.2 354.4,100.0 355.9,100.8 357.4,101.6 358.9,102.4 360.4,103.2 361.9,104.0 363.3,104.8 364.8,105.6 366.3,106.4 367.8,107.2 369.3,108.0 370.8,108.8 372.2,109.6 373.7,110.4 375.2,111.2 376.7,112.0 378.2,112.8 379.7,113.6 381.2,114.4 382.6,115.2 384.1,116.0 385.6,116.8 387.1,117.6 388.6,118.4 390.1,119.2 391.5,120.0 393.0,120.8 394.5,121.5 396.0,122.3 397.5,123.1 399.0,123.9 400.5,124.7 401.9,125.5 403.4,126.2 404.9,127.0 406.4,127.8 407.9,128.6 409.4,129.4 410.8,130.2 412.3,130.9 413.8,131.7 415.3,132.5 416.8,133.3 418.3,134.0 419.8,134.8 421.2,135.6 422.7,136.4 424.2,137.1 425.7,137.9 427.2,138.7 428.7,139.4 430.1,140.2 431.6,141.0 433.1,141.7 434.6,142.5 436.1,143.3 437.6,144.0 439.0,144.8 440.5,145.6 442.0,146.3 443.5,147.1 445.0,147.8 446.5,148.6 448.0,149.3 449.4,150.1 450.9,150.9 452.4,151.6 453.9,152.4 455.4,153.1 456.9,153.9 458.3,154.6 459.8,155.4 461.3,156.1 462.8,156.9 464.3,157.6 465.8,158.4 467.3,159.1 468.7,159.8 470.2,160.6 471.7,161.3 473.2,162.1 474.7,162.8 476.2,163.5 477.6,164.3 479.1,165.0 480.6,165.8 482.1,166.5 483.6,167.2 485.1,168.0 486.6,168.7 488.0,169.4 489.5,170.1 491.0,170.9 492.5,171.6 494.0,172.3 495.5,173.1 496.9,173.8 498.4,174.5 499.9,175.2 501.4,175.9 502.9,176.7 504.4,177.4 505.8,178.1 507.3,178.8 508.8,179.5 510.3,180.2 511.8,181.0 513.3,181.7 514.8,182.4 516.2,183.1 517.7,183.8 519.2,184.5 520.7,185.2 522.2,185.9 523.7,186.6 525.1,187.3 526.6,188.0 528.1,188.7 529.6,189.4 531.1,190.1 532.6,190.8 534.1,191.5 535.5,192.2 537.0,192.9 538.5,193.6 540.0,194.2 541.5,194.9 543.0,195.6 544.4,196.3 545.9,197.0 547.4,197.7 548.9,198.4 550.4,199.0 551.9,199.7 553.4,200.4 554.8,201.1 556.3,201.7 557.8,202.4 559.3,203.1 560.8,203.7 562.3,204.4 563.7,205.1 565.2,205.7 566.7,206.4 568.2,207.1 569.7,207.7 571.2,208.4 572.6,209.1 574.1,209.7 575.6,210.4 577.1,211.0 578.6,211.7 580.1,212.3 581.6,213.0 583.0,213.6 584.5,214.3 586.0,214.9 587.5,215.5 589.0,216.2 590.5,216.8 591.9,217.5 593.4,218.1 594.9,218.7 596.4,219.4 597.9,220.0 599.4,220.6 600.9,221.3 602.3,221.9 603.8,222.5 605.3,223.1 606.8,223.8 608.3,224.4 609.8,225.0 611.2,225.6 612.7,226.2 614.2,226.8 615.7,227.5 617.2,228.1 618.7,228.7 620.2,229.3 621.6,229.9 623.1,230.5 624.6,231.1 626.1,231.7 627.6,232.3 629.1,232.9 630.5,233.5 632.0,234.1 633.5,234.7 635.0,235.2 636.5,235.8 638.0,236.4 639.4,237.0 640.9,237.6 642.4,238.2 643.9,238.7 645.4,239.3 646.9,239.9 648.4,240.5 649.8,241.0 651.3,241.6 652.8,242.2 654.3,242.7 655.8,243.3 657.3,243.8 658.7,244.4 660.2,245.0 661.7,245.5 663.2,246.1 664.7,246.6 666.2,247.2 667.7,247.7 669.1,248.2 670.6,248.8 672.1,249.3 673.6,249.9 675.1,250.4 676.6,250.9 678.0,251.5 679.5,252.0 681.0,252.5 682.5,253.0 684.0,253.6 685.5,254.1 687.0,254.6 688.4,255.1 689.9,255.6 691.4,256.1 692.9,256.6 694.4,257.2 695.9,257.7 697.3,258.2 698.8,258.7 700.3,259.2 701.8,259.7 703.3,260.1 704.8,260.6 706.2,261.1 707.7,261.6 709.2,262.1 710.7,262.6 712.2,263.1 713.7,263.5 715.2,264.0 716.6,264.5 718.1,265.0 719.6,265.4 721.1,265.9 722.6,266.3 724.1,266.8 725.5,267.3 727.0,267.7 728.5,268.2 730.0,268.6 730.0,285.1 728.5,284.8 727.0,284.5 725.5,284.2 724.1,283.9 722.6,283.6 721.1,283.3 719.6,283.0 718.1,282.7 716.6,282.4 715.2,282.1 713.7,281.7 712.2,281.4 710.7,281.1 709.2,280.8 707.7,280.5 706.2,280.2 704.8,279.9 703.3,279.5 701.8,279.2 700.3,278.9 698.8,278.6 697.3,278.2 695.9,277.9 694.4,277.6 692.9,277.2 691.4,276.9 689.9,276.6 688.4,276.2 687.0,275.9 685.5,275.6 684.0,275.2 682.5,274.9 681.0,274.5 679.5,274.2 678.0,273.9 676.6,273.5 675.1,273.2 673.6,272.8 672.1,272.5 670.6,272.1 669.1,271.8 667.7,271.4 666.2,271.0 664.7,270.7 663.2,270.3 661.7,270.0 660.2,269.6 658.7,269.2 657.3,268.9 655.8,268.5 654.3,268.2 652.8,267.8 651.3,267.4 649.8,267.0 648.4,266.7 646.9,266.3 645.4,265.9 643.9,265.6 642.4,265.2 640.9,264.8 639.4,264.4 638.0,264.0 636.5,263.7 635.0,263.3 633.5,262.9 632.0,262.5 630.5,262.1 629.1,261.7 627.6,261.3 626.1,261.0 624.6,260.6 623.1,260.2 621.6,259.8 620.2,259.4 618.7,259.0 617.2,258.6 615.7,258.2 614.2,257.8 612.7,257.4 611.2,257.0 609.8,256.6 608.3,256.2 606.8,255.8 605.3,255.4 603.8,255.0 602.3,254.6 600.9,254.1 599.4,253.7 597.9,253.3 596.4,252.9 594.9,252.5 593.4,252.1 591.9,251.7 590.5,251.3 589.0,250.8 587.5,250.4 586.0,250.0 584.5,249.6 583.0,249.2 581.6,248.7 580.1,248.3 578.6,247.9 577.1,247.5 575.6,247.0 574.1,246.6 572.6,246.2 571.2,245.7 569.7,245.3 568.2,244.9 566.7,244.5 565.2,244.0 563.7,243.6 562.3,243.1 560.8,242.7 559.3,242.3 557.8,241.8 556.3,241.4 554.8,241.0 553.4,240.5 551.9,240.1 550.4,239.6 548.9,239.2 547.4,238.7 545.9,238.3 544.4,237.9 543.0,237.4 541.5,237.0 540.0,236.5 538.5,236.1 537.0,235.6 535.5,235.2 534.1,234.7 532.6,234.3 531.1,233.8 529.6,233.3 528.1,232.9 526.6,232.4 525.1,232.0 523.7,231.5 522.2,231.1 520.7,230.6 519.2,230.1 517.7,229.7 516.2,229.2 514.8,228.8 513.3,228.3 511.8,227.8 510.3,227.4 508.8,226.9 507.3,226.4 505.8,226.0 504.4,225.5 502.9,225.0 501.4,224.6 499.9,224.1 498.4,223.6 496.9,223.1 495.5,222.7 494.0,222.2 492.5,221.7 491.0,221.3 489.5,220.8 488.0,220.3 486.6,219.8 485.1,219.3 483.6,218.9 482.1,218.4 480.6,217.9 479.1,217.4 477.6,216.9 476.2,216.5 474.7,216.0 473.2,215.5 471.7,215.0 470.2,214.5 468.7,214.0 467.3,213.6 465.8,213.1 464.3,212.6 462.8,212.1 461.3,211.6 459.8,211.1 458.3,210.6 456.9,210.1 455.4,209.7 453.9,209.2 452.4,208.7 450.9,208.2 449.4,207.7 448.0,207.2 446.5,206.7 445.0,206.2 443.5,205.7 442.0,205.2 440.5,204.7 439.0,204.2 437.6,203.7 436.1,203.2 434.6,202.7 433.1,202.2 431.6,201.7 430.1,201.2 428.7,200.7 427.2,200.2 425.7,199.7 424.2,199.2 422.7,198.7 421.2,198.2 419.8,197.7 418.3,197.2 416.8,196.7 415.3,196.2 413.8,195.7 412.3,195.2 410.8,194.7 409.4,194.2 407.9,193.6 406.4,193.1 404.9,192.6 403.4,192.1 401.9,191.6 400.5,191.1 399.0,190.6 397.5,190.1 396.0,189.6 394.5,189.0 393.0,188.5 391.5,188.0 390.1,187.5 388.6,187.0 387.1,186.5 385.6,185.9 384.1,185.4 382.6,184.9 381.2,184.4 379.7,183.9 378.2,183.4 376.7,182.8 375.2,182.3 373.7,181.8 372.2,181.3 370.8,180.8 369.3,180.2 367.8,179.7 366.3,179.2 364.8,178.7 363.3,178.1 361.9,177.6 360.4,177.1 358.9,176.6 357.4,176.0 355.9,175.5 354.4,175.0 353.0,174.5 351.5,173.9 350.0,175.0 348.5,176.0 347.0,177.0 345.5,178.0 344.0,179.1 342.6,180.1 341.1,181.1 339.6,182.1 338.1,183.2 336.6,184.2 335.1,185.2 333.7,186.3 332.2,187.3 330.7,188.4 329.2,189.4 327.7,190.4 326.2,191.5 324.7,192.5 323.3,193.5 321.8,194.6 320.3,195.6 318.8,196.7 317.3,197.7 315.8,198.8 314.4,199.8 312.9,200.9 311.4,201.9 309.9,203.0 308.4,204.0 306.9,205.1 305.4,206.1 304.0,207.2 302.5,208.3 301.0,209.3 299.5,210.4 298.0,211.4 296.5,212.5 295.1,213.6 293.6,214.6 292.1,215.7 290.6,216.8 289.1,217.8 287.6,218.9 286.2,220.0 284.7,221.1 283.2,220.6 281.7,220.1 280.2,219.6 278.7,219.2 277.2,218.7 275.8,218.2 274.3,217.7 272.8,217.2 271.3,216.8 269.8,216.3 268.3,215.8 266.9,215.3 265.4,214.8 263.9,214.3 262.4,213.9 260.9,214.9 259.4,216.0 257.9,217.1 256.5,218.1 255.0,219.2 253.5,220.3 252.0,221.4 250.5,222.4 249.0,223.5 247.6,224.6 246.1,225.7 244.6,226.8 243.1,227.9 241.6,228.9 240.1,230.0 238.6,231.1 237.2,232.2 235.7,233.3 234.2,234.4 232.7,235.5 231.2,236.6 229.7,237.7 228.3,238.8 226.8,239.9 225.3,241.0 223.8,242.2 222.3,243.3 220.8,244.4 219.4,245.5 217.9,246.6 216.4,247.8 214.9,248.9 213.4,250.0 211.9,251.2 210.4,252.3 209.0,253.4 207.5,254.6 206.0,255.7 204.5,256.9 203.0,258.0 201.5,259.2 200.1,260.3 198.6,261.5 197.1,262.7 195.6,263.8 194.1,263.5 192.6,263.1 191.1,262.7 189.7,262.3 188.2,261.9 186.7,261.5 185.2,261.1 183.7,260.7 182.2,260.3 180.8,260.0 179.3,259.6 177.8,259.2 176.3,258.8 174.8,258.4 173.3,258.0 171.8,259.1 170.4,260.3 168.9,261.5 167.4,262.6 165.9,263.8 164.4,265.0 162.9,266.1 161.5,267.3 160.0,268.5 158.5,269.7 157.0,270.9 155.5,272.1 154.0,273.3 152.6,274.5 151.1,275.7 149.6,276.9 148.1,278.2 146.6,279.4 145.1,280.6 143.6,281.9 142.2,283.1 140.7,284.4 139.2,285.6 137.7,286.9 136.2,288.2 134.7,289.4 133.3,290.7 131.8,292.0 130.3,293.3 128.8,294.7 127.3,296.0 125.8,297.3 124.3,298.7 122.9,300.0 121.4,301.4 119.9,302.8 118.4,304.2 116.9,305.6 115.4,307.0 114.0,308.5 112.5,309.9 111.0,311.4 109.5,312.9 108.0,314.4" fill="#bfdbfe" fill-opacity="0.55" stroke="none"/>
<polyline points="62.0,316.0 63.5,316.0 65.0,316.0 66.5,316.0 67.9,316.0 69.4,316.0 70.9,316.0 72.4,316.0 73.9,316.0 75.4,316.0 76.8,316.0 78.3,316.0 79.8,316.0 81.3,316.0 82.8,316.0 84.3,316.0 85.8,316.0 87.2,316.0 88.7,316.0 90.2,316.0 91.7,316.0 93.2,316.0 94.7,316.0 96.1,316.0 97.6,316.0 99.1,316.0 100.6,316.0 102.1,316.0 103.6,316.0 105.0,316.0 106.5,316.0 108.0,314.0 109.5,312.1 111.0,310.2 112.5,308.3 114.0,306.5 115.4,304.6 116.9,302.8 118.4,301.1 119.9,299.3 121.4,297.5 122.9,295.8 124.3,294.1 125.8,292.4 127.3,290.7 128.8,289.0 130.3,287.3 131.8,285.7 133.3,284.0 134.7,282.4 136.2,280.8 137.7,279.2 139.2,277.5 140.7,275.9 142.2,274.4 143.6,272.8 145.1,271.2 146.6,269.6 148.1,268.1 149.6,266.5 151.1,265.0 152.6,263.5 154.0,261.9 155.5,260.4 157.0,258.9 158.5,257.4 160.0,255.9 161.5,254.4 162.9,252.9 164.4,251.4 165.9,249.9 167.4,248.4 168.9,247.0 170.4,245.5 171.8,244.0 173.3,242.6 174.8,243.1 176.3,243.6 177.8,244.1 179.3,244.6 180.8,245.1 182.2,245.6 183.7,246.1 185.2,246.5 186.7,247.0 188.2,247.5 189.7,248.0 191.1,248.5 192.6,249.0 194.1,249.5 195.6,250.0 197.1,248.5 198.6,247.0 200.1,245.5 201.5,244.1 203.0,242.6 204.5,241.2 206.0,239.7 207.5,238.2 209.0,236.8 210.4,235.4 211.9,233.9 213.4,232.5 214.9,231.1 216.4,229.6 217.9,228.2 219.4,226.8 220.8,225.4 222.3,223.9 223.8,222.5 225.3,221.1 226.8,219.7 228.3,218.3 229.7,216.9 231.2,215.5 232.7,214.1 234.2,212.7 235.7,211.3 237.2,209.9 238.6,208.6 240.1,207.2 241.6,205.8 243.1,204.4 244.6,203.0 246.1,201.7 247.6,200.3 249.0,198.9 250.5,197.6 252.0,196.2 253.5,194.8 255.0,193.5 256.5,192.1 257.9,190.8 259.4,189.4 260.9,188.1 262.4,186.7 263.9,187.3 265.4,187.9 266.9,188.5 268.3,189.2 269.8,189.8 271.3,190.4 272.8,191.0 274.3,191.6 275.8,192.2 277.2,192.8 278.7,193.4 280.2,194.0 281.7,194.6 283.2,195.2 284.7,195.8 286.2,194.5 287.6,193.1 289.1,191.7 290.6,190.4 292.1,189.0 293.6,187.7 295.1,186.3 296.5,185.0 298.0,183.6 299.5,182.3 301.0,181.0 302.5,179.6 304.0,178.3 305.4,176.9 306.9,175.6 308.4,174.3 309.9,172.9 311.4,171.6 312.9,170.3 314.4,168.9 315.8,167.6 317.3,166.3 318.8,165.0 320.3,163.6 321.8,162.3 323.3,161.0 324.7,159.7 326.2,158.4 327.7,157.0 329.2,155.7 330.7,154.4 332.2,153.1 333.7,151.8 335.1,150.5 336.6,149.2 338.1,147.9 339.6,146.6 341.1,145.3 342.6,144.0 344.0,142.7 345.5,141.4 347.0,140.1 348.5,138.8 350.0,137.5 351.5,136.2 353.0,136.8 354.4,137.5 355.9,138.2 357.4,138.8 358.9,139.5 360.4,140.2 361.9,140.8 363.3,141.5 364.8,142.2 366.3,142.8 367.8,143.5 369.3,144.1 370.8,144.8 372.2,145.5 373.7,146.1 375.2,146.8 376.7,147.4 378.2,148.1 379.7,148.8 381.2,149.4 382.6,150.1 384.1,150.7 385.6,151.4 387.1,152.0 388.6,152.7 390.1,153.3 391.5,154.0 393.0,154.6 394.5,155.3 396.0,155.9 397.5,156.6 399.0,157.2 400.5,157.9 401.9,158.5 403.4,159.2 404.9,159.8 406.4,160.5 407.9,161.1 409.4,161.8 410.8,162.4 412.3,163.0 413.8,163.7 415.3,164.3 416.8,165.0 418.3,165.6 419.8,166.3 421.2,166.9 422.7,167.5 424.2,168.2 425.7,168.8 427.2,169.4 428.7,170.1 430.1,170.7 431.6,171.3 433.1,172.0 434.6,172.6 436.1,173.2 437.6,173.9 439.0,174.5 440.5,175.1 442.0,175.8 443.5,176.4 445.0,177.0 446.5,177.6 448.0,178.3 449.4,178.9 450.9,179.5 452.4,180.1 453.9,180.8 455.4,181.4 456.9,182.0 458.3,182.6 459.8,183.2 461.3,183.9 462.8,184.5 464.3,185.1 465.8,185.7 467.3,186.3 468.7,186.9 470.2,187.6 471.7,188.2 473.2,188.8 474.7,189.4 476.2,190.0 477.6,190.6 479.1,191.2 480.6,191.8 482.1,192.4 483.6,193.0 485.1,193.7 486.6,194.3 488.0,194.9 489.5,195.5 491.0,196.1 492.5,196.7 494.0,197.3 495.5,197.9 496.9,198.5 498.4,199.1 499.9,199.7 501.4,200.2 502.9,200.8 504.4,201.4 505.8,202.0 507.3,202.6 508.8,203.2 510.3,203.8 511.8,204.4 513.3,205.0 514.8,205.6 516.2,206.1 517.7,206.7 519.2,207.3 520.7,207.9 522.2,208.5 523.7,209.1 525.1,209.6 526.6,210.2 528.1,210.8 529.6,211.4 531.1,211.9 532.6,212.5 534.1,213.1 535.5,213.7 537.0,214.2 538.5,214.8 540.0,215.4 541.5,215.9 543.0,216.5 544.4,217.1 545.9,217.6 547.4,218.2 548.9,218.8 550.4,219.3 551.9,219.9 553.4,220.5 554.8,221.0 556.3,221.6 557.8,222.1 559.3,222.7 560.8,223.2 562.3,223.8 563.7,224.3 565.2,224.9 566.7,225.4 568.2,226.0 569.7,226.5 571.2,227.1 572.6,227.6 574.1,228.2 575.6,228.7 577.1,229.2 578.6,229.8 580.1,230.3 581.6,230.8 583.0,231.4 584.5,231.9 586.0,232.5 587.5,233.0 589.0,233.5 590.5,234.0 591.9,234.6 593.4,235.1 594.9,235.6 596.4,236.1 597.9,236.7 599.4,237.2 600.9,237.7 602.3,238.2 603.8,238.7 605.3,239.3 606.8,239.8 608.3,240.3 609.8,240.8 611.2,241.3 612.7,241.8 614.2,242.3 615.7,242.8 617.2,243.3 618.7,243.8 620.2,244.3 621.6,244.8 623.1,245.3 624.6,245.8 626.1,246.3 627.6,246.8 629.1,247.3 630.5,247.8 632.0,248.3 633.5,248.8 635.0,249.3 636.5,249.7 638.0,250.2 639.4,250.7 640.9,251.2 642.4,251.7 643.9,252.1 645.4,252.6 646.9,253.1 648.4,253.6 649.8,254.0 651.3,254.5 652.8,255.0 654.3,255.4 655.8,255.9 657.3,256.4 658.7,256.8 660.2,257.3 661.7,257.7 663.2,258.2 664.7,258.6 666.2,259.1 667.7,259.6 669.1,260.0 670.6,260.4 672.1,260.9 673.6,261.3 675.1,261.8 676.6,262.2 678.0,262.7 679.5,263.1 681.0,263.5 682.5,264.0 684.0,264.4 685.5,264.8 687.0,265.3 688.4,265.7 689.9,266.1 691.4,266.5 692.9,266.9 694.4,267.4 695.9,267.8 697.3,268.2 698.8,268.6 700.3,269.0 701.8,269.4 703.3,269.8 704.8,270.2 706.2,270.6 707.7,271.1 709.2,271.5 710.7,271.8 712.2,272.2 713.7,272.6 715.2,273.0 716.6,273.4 718.1,273.8 719.6,274.2 721.1,274.6 722.6,275.0 724.1,275.3 725.5,275.7 727.0,276.1 728.5,276.5 730.0,276.8" fill="none" stroke="#2563eb" stroke-width="2.5"/>
<line x1="62" y1="316.0" x2="730" y2="316.0" stroke="#6b7280" stroke-width="1"/>
<line x1="106.5" y1="310.0" x2="106.5" y2="322.0" stroke="#1d4ed8" stroke-width="2"/><text x="106.5" y="344.0" fill="#1d4ed8" font-size="9" text-anchor="middle">Wine 1
19:00</text>
<line x1="195.6" y1="310.0" x2="195.6" y2="322.0" stroke="#1d4ed8" stroke-width="2"/><text x="195.6" y="344.0" fill="#1d4ed8" font-size="9" text-anchor="middle">Wine 2
20:00</text>
<line x1="284.7" y1="310.0" x2="284.7" y2="322.0" stroke="#1d4ed8" stroke-width="2"/><text x="284.7" y="344.0" fill="#1d4ed8" font-size="9" text-anchor="middle">Wine 3
21:00</text>
<line x1="62" y1="44" x2="62" y2="316" stroke="#374151" stroke-width="1.5"/><line x1="62" y1="316" x2="730" y2="316" stroke="#374151" stroke-width="1.5"/>
<text x="57" y="316.0" fill="#374151" font-size="10" text-anchor="end" dominant-baseline="middle">0.00 %</text><line x1="59" y1="316.0" x2="62" y2="316.0" stroke="#374151" stroke-width="1"/>
<text x="57" y="247.3" fill="#374151" font-size="10" text-anchor="end" dominant-baseline="middle">0.02 %</text><line x1="59" y1="247.3" x2="62" y2="247.3" stroke="#374151" stroke-width="1"/>
<text x="57" y="178.6" fill="#374151" font-size="10" text-anchor="end" dominant-baseline="middle">0.04 %</text><line x1="59" y1="178.6" x2="62" y2="178.6" stroke="#374151" stroke-width="1"/>
<text x="57" y="109.9" fill="#374151" font-size="10" text-anchor="end" dominant-baseline="middle">0.06 %</text><line x1="59" y1="109.9" x2="62" y2="109.9" stroke="#374151" stroke-width="1"/>
<text x="106.5" y="360.0" fill="#374151" font-size="10" text-anchor="middle">19:00</text><line x1="106.5" y1="316" x2="106.5" y2="320" stroke="#374151" stroke-width="1"/>
<text x="151.1" y="360.0" fill="#374151" font-size="10" text-anchor="middle">19:30</text><line x1="151.1" y1="316" x2="151.1" y2="320" stroke="#374151" stroke-width="1"/>
<text x="195.6" y="360.0" fill="#374151" font-size="10" text-anchor="middle">20:00</text><line x1="195.6" y1="316" x2="195.6" y2="320" stroke="#374151" stroke-width="1"/>
<text x="240.1" y="360.0" fill="#374151" font-size="10" text-anchor="middle">20:30</text><line x1="240.1" y1="316" x2="240.1" y2="320" stroke="#374151" stroke-width="1"/>
<text x="284.7" y="360.0" fill="#374151" font-size="10" text-anchor="middle">21:00</text><line x1="284.7" y1="316" x2="284.7" y2="320" stroke="#374151" stroke-width="1"/>
<text x="329.2" y="360.0" fill="#374151" font-size="10" text-anchor="middle">21:30</text><line x1="329.2" y1="316" x2="329.2" y2="320" stroke="#374151" stroke-width="1"/>
<text x="373.7" y="360.0" fill="#374151" font-size="10" text-anchor="middle">22:00</text><line x1="373.7" y1="316" x2="373.7" y2="320" stroke="#374151" stroke-width="1"/>
<text x="418.3" y="360.0" fill="#374151" font-size="10" text-anchor="middle">22:30</text><line x1="418.3" y1="316" x2="418.3" y2="320" stroke="#374151" stroke-width="1"/>
<text x="462.8" y="360.0" fill="#374151" font-size="10" text-anchor="middle">23:00</text><line x1="462.8" y1="316" x2="462.8" y2="320" stroke="#374151" stroke-width="1"/>
<text x="507.3" y="360.0" fill="#374151" font-size="10" text-anchor="middle">23:30</text><line x1="507.3" y1="316" x2="507.3" y2="320" stroke="#374151" stroke-width="1"/>
<text x="551.9" y="360.0" fill="#374151" font-size="10" text-anchor="middle">00:00</text><line x1="551.9" y1="316" x2="551.9" y2="320" stroke="#374151" stroke-width="1"/>
<text x="596.4" y="360.0" fill="#374151" font-size="10" text-anchor="middle">00:30</text><line x1="596.4" y1="316" x2="596.4" y2="320" stroke="#374151" stroke-width="1"/>
<text x="640.9" y="360.0" fill="#374151" font-size="10" text-anchor="middle">01:00</text><line x1="640.9" y1="316" x2="640.9" y2="320" stroke="#374151" stroke-width="1"/>
<text x="685.5" y="360.0" fill="#374151" font-size="10" text-anchor="middle">01:30</text><line x1="685.5" y1="316" x2="685.5" y2="320" stroke="#374151" stroke-width="1"/>
<text x="730.0" y="360.0" fill="#374151" font-size="10" text-anchor="middle">02:00</text><line x1="730.0" y1="316" x2="730.0" y2="320" stroke="#374151" stroke-width="1"/>
<text x="396" y="376" fill="#374151" font-size="11" text-anchor="middle">Time</text><text x="14" y="180" fill="#374151" font-size="11" text-anchor="middle" transform="rotate(-90,14,180)">BAC (%)</text>
<line x1="70" y1="54" x2="92" y2="54" stroke="#2563eb" stroke-width="2.5"/>
<text x="96" y="54" fill="#374151" font-size="10" dominant-baseline="middle">Main curve</text>
<rect x="70" y="65" width="22" height="10" fill="#bfdbfe" fill-opacity="0.7"/>
<text x="96" y="70" fill="#374151" font-size="10" dominant-baseline="middle">±21 % uncertainty</text>
<text x="380" y="20" fill="#111827" font-size="13" font-weight="bold" text-anchor="middle">Example 1 — Three wines, no food (baseline + uncertainty band)</text>
<text x="730" y="54" fill="#6b7280" font-size="9" text-anchor="end">Profile: male, 70 kg, 175 cm · r=0.789 · βₘₐₓ=0.015 %/h · Kₘ=0.015 %</text>
</svg>
