<svg xmlns="http://www.w3.org/2000/svg" viewBox="0 0 760 380" width="760" height="380" font-family="system-ui,sans-serif">
<rect width="760" height="380" fill="#ffffff"/><rect x="62" y="44" width="668" height="272" fill="#f9fafb"/>
<line x1="62" y1="232.9" x2="730" y2="232.9" stroke="#e5e7eb" stroke-width="1"/>
<line x1="62" y1="149.7" x2="730" y2="149.7" stroke="#e5e7eb" stroke-width="1"/>
<line x1="62" y1="66.6" x2="730" y2="66.6" stroke="#e5e7eb" stroke-width="1"/>
<line x1="106.5" y1="44" x2="106.5" y2="316" stroke="#e5e7eb" stroke-width="1"/>
<line x1="151.1" y1="44" x2="151.1" y2="316" stroke="#e5e7eb" stroke-width="1"/>
<line x1="195.6" y1="44" x2="195.6" y2="316" stroke="#e5e7eb" stroke-width="1"/>
<line x1="240.1" y1="44" x2="240.1" y2="316" stroke="#e5e7eb" stroke-width="1"/>
<line x1="284.7" y1="44" x2="284.7" y2="316" stroke="#e5e7eb" stroke-width="1"/>
<line x1="329.2" y1="44" x2="329.2" y2="316" stroke="#e5e7eb" stroke-width="1"/>
<line x1="373.7" y1="44" x2="373.7" y2="316" stroke="#e5e7eb" stroke-width="1"/>
<line x1="418.3" y1="44" x2="418.3" y2="316" stroke="#e5e7eb" stroke-width="1"/>
<line x1="462.8" y1="44" x2="462.8" y2="316" stroke="#e5e7eb" stroke-width="1"/>
<line x1="507.3" y1="44" x2="507.3" y2="316" stroke="#e5e7eb" stroke-width="1"/>
<line x1="551.9" y1="44" x2="551.9" y2="316" stroke="#e5e7eb" stroke-width="1"/>
<line x1="596.4" y1="44" x2="596.4" y2="316" stroke="#e5e7eb" stroke-width="1"/>
<line x1="640.9" y1="44" x2="640.9" y2="316" stroke="#e5e7eb" stroke-width="1"/>
<line x1="685.5" y1="44" x2="685.5" y2="316" stroke="#e5e7eb" stroke-width="1"/>
<line x1="730.0" y1="44" x2="730.0" y2="316" stroke="#e5e7eb" stroke-width="1"/>
<line x1="62" y1="108.2" x2="730" y2="108.2" stroke="#d97706" stroke-width="1.2" stroke-dasharray="6,4"/><text x="734" y="108.2" fill="#d97706" font-size="10" dominant-baseline="middle">0.05 %</text>
<polyline points="62.0,316.0 63.5,316.0 65.0,316.0 66.5,316.0 67.9,316.0 69.4,316.0 70.9,316.0 72.4,316.0 73.9,316.0 75.4,316.0 76.8,316.0 78.3,316.0 79.8,316.0 81.3,316.0 82.8,316.0 84.3,316.0 85.8,316.0 87.2,316.0 88.7,316.0 90.2,316.0 91.7,316.0 93.2,316.0 94.7,316.0 96.1,316.0 97.6,316.0 99.1,316.0 100.6,316.0 102.1,316.0 103.6,316.0 105.0,316.0 106.5,316.0 108.0,316.0 109.5,316.0 111.0,316.0 112.5,316.0 114.0,316.0 115.4,316.0 116.9,316.0 118.4,316.0 119.9,316.0 121.4,316.0 122.9,316.0 124.3,316.0 125.8,316.0 127.3,316.0 128.8,316.0 130.3,316.0 131.8,316.0 133.3,316.0 134.7,316.0 136.2,316.0 137.7,316.0 139.2,316.0 140.7,316.0 142.2,316.0 143.6,316.0 145.1,316.0 146.6,316.0 148.1,316.0 149.6,316.0 151.1,316.0 152.6,313.6 154.0,311.3 155.5,309.0 157.0,306.7 158.5,304.5 160.0,302.3 161.5,300.1 162.9,297.9 164.4,295.8 165.9,293.6 167.4,291.5 168.9,289.5 170.4,287.4 171.8,285.4 173.3,283.3 174.8,281.3 176.3,279.3 177.8,277.3 179.3,275.3 180.8,273.4 182.2,271.4 183.7,269.5 185.2,267.5 186.7,265.6 188.2,263.7 189.7,261.8 191.1,259.9 192.6,258.0 194.1,256.2 195.6,254.3 197.1,252.4 198.6,250.6 200.1,248.7 201.5,246.9 203.0,245.1 204.5,243.3 206.0,241.4 207.5,239.6 209.0,237.8 210.4,236.0 211.9,234.2 213.4,232.5 214.9,230.7 216.4,228.9 217.9,227.1 219.4,227.7 220.8,228.3 222.3,229.0 223.8,229.6 225.3,230.2 226.8,230.8 228.3,231.4 229.7,232.0 231.2,232.6 232.7,233.2 234.2,233.7 235.7,234.3 237.2,234.9 238.6,235.5 240.1,236.1 241.6,234.3 243.1,232.5 244.6,230.7 246.1,229.0 247.6,227.2 249.0,225.4 250.5,223.7 252.0,221.9 253.5,220.2 255.0,218.4 256.5,216.7 257.9,214.9 259.4,213.2 260.9,211.5 262.4,209.8 263.9,208.0 265.4,206.3 266.9,204.6 268.3,202.9 269.8,201.2 271.3,199.5 272.8,197.8 274.3,196.1 275.8,194.4 277.2,192.7 278.7,191.0 280.2,189.4 281.7,187.7 283.2,186.0 284.7,184.3 286.2,182.7 287.6,181.0 289.1,179.3 290.6,177.7 292.1,176.0 293.6,174.3 295.1,172.7 296.5,171.0 298.0,169.4 299.5,167.7 301.0,166.1 302.5,164.5 304.0,162.8 305.4,161.2 306.9,159.6 308.4,160.3 309.9,161.0 311.4,161.8 312.9,162.5 314.4,163.3 315.8,164.0 317.3,164.7 318.8,165.5 320.3,166.2 321.8,166.9 323.3,167.7 324.7,168.4 326.2,169.1 327.7,169.9 329.2,170.6 330.7,168.9 332.2,167.3 333.7,165.7 335.1,164.0 336.6,162.4 338.1,160.7 339.6,159.1 341.1,157.5 342.6,155.8 344.0,154.2 345.5,152.6 347.0,151.0 348.5,149.3 350.0,147.7 351.5,146.1 353.0,144.5 354.4,142.9 355.9,141.3 357.4,139.7 358.9,138.1 360.4,136.5 361.9,134.8 363.3,133.2 364.8,131.6 366.3,130.0 367.8,128.4 369.3,126.9 370.8,125.3 372.2,123.7 373.7,122.1 375.2,120.5 376.7,118.9 378.2,117.3 379.7,115.7 381.2,114.1 382.6,112.6 384.1,111.0 385.6,109.4 387.1,107.8 388.6,106.3 390.1,104.7 391.5,103.1 393.0,101.5 394.5,100.0 396.0,98.4 397.5,99.2 399.0,100.0 400.5,100.8 401.9,101.6 403.4,102.4 404.9,103.2 406.4,104.0 407.9,104.8 409.4,105.6 410.8,106.4 412.3,107.2 413.8,108.0 415.3,108.8 416.8,109.6 418.3,110.4 419.8,111.2 421.2,112.0 422.7,112.8 424.2,113.6 425.7,114.4 427.2,115.2 428.7,116.0 430.1,116.8 431.6,117.6 433.1,118.4 434.6,119.2 436.1,120.0 437.6,120.8 439.0,121.5 440.5,122.3 442.0,123.1 443.5,123.9 445.0,124.7 446.5,125.5 448.0,126.2 449.4,127.0 450.9,127.8 452.4,128.6 453.9,129.4 455.4,130.2 456.9,130.9 458.3,131.7 459.8,132.5 461.3,133.3 462.8,134.0 464.3,134.8 465.8,135.6 467.3,136.4 468.7,137.1 470.2,137.9 471.7,138.7 473.2,139.4 474.7,140.2 476.2,141.0 477.6,141.7 479.1,142.5 480.6,143.3 482.1,144.0 483.6,144.8 485.1,145.6 486.6,146.3 488.0,147.1 489.5,147.8 491.0,148.6 492.5,149.3 494.0,150.1 495.5,150.9 496.9,151.6 498.4,152.4 499.9,153.1 501.4,153.9 502.9,154.6 504.4,155.4 505.8,156.1 507.3,156.9 508.8,157.6 510.3,158.4 511.8,159.1 513.3,159.8 514.8,160.6 516.2,161.3 517.7,162.1 519.2,162.8 520.7,163.5 522.2,164.3 523.7,165.0 525.1,165.8 526.6,166.5 528.1,167.2 529.6,168.0 531.1,168.7 532.6,169.4 534.1,170.1 535.5,170.9 537.0,171.6 538.5,172.3 540.0,173.1 541.5,173.8 543.0,174.5 544.4,175.2 545.9,175.9 547.4,176.7 548.9,177.4 550.4,178.1 551.9,178.8 553.4,179.5 554.8,180.2 556.3,181.0 557.8,181.7 559.3,182.4 560.8,183.1 562.3,183.8 563.7,184.5 565.2,185.2 566.7,185.9 568.2,186.6 569.7,187.3 571.2,188.0 572.6,188.7 574.1,189.4 575.6,190.1 577.1,190.8 578.6,191.5 580.1,192.2 581.6,192.9 583.0,193.6 584.5,194.2 586.0,194.9 587.5,195.6 589.0,196.3 590.5,197.0 591.9,197.7 593.4,198.4 594.9,199.0 596.4,199.7 597.9,200.4 599.4,201.1 600.9,201.7 602.3,202.4 603.8,203.1 605.3,203.7 606.8,204.4 608.3,205.1 609.8,205.7 611.2,206.4 612.7,207.1 614.2,207.7 615.7,208.4 617.2,209.1 618.7,209.7 620.2,210.4 621.6,211.0 623.1,211.7 624.6,212.3 626.1,213.0 627.6,213.6 629.1,214.3 630.5,214.9 632.0,215.5 633.5,216.2 635.0,216.8 636.5,217.5 638.0,218.1 639.4,218.7 640.9,219.4 642.4,220.0 643.9,220.6 645.4,221.3 646.9,221.9 648.4,222.5 649.8,223.1 651.3,223.8 652.8,224.4 654.3,225.0 655.8,225.6 657.3,226.2 658.7,226.8 660.2,227.5 661.7,228.1 663.2,228.7 664.7,229.3 666.2,229.9 667.7,230.5 669.1,231.1 670.6,231.7 672.1,232.3 673.6,232.9 675.1,233.5 676.6,234.1 678.0,234.7 679.5,235.2 681.0,235.8 682.5,236.4 684.0,237.0 685.5,237.6 687.0,238.2 688.4,238.7 689.9,239.3 691.4,239.9 692.9,240.5 694.4,241.0 695.9,241.6 697.3,242.2 698.8,242.7 700.3,243.3 701.8,243.8 703.3,244.4 704.8,245.0 706.2,245.5 707.7,246.1 709.2,246.6 710.7,247.2 712.2,247.7 713.7,248.2 715.2,248.8 716.6,249.3 718.1,249.9 719.6,250.4 721.1,250.9 722.6,251.5 724.1,252.0 725.5,252.5 727.0,253.0 728.5,253.6 730.0,254.1" fill="none" stroke="#9ca3af" stroke-width="2" stroke-dasharray="8,5"/>
<polyline points="62.0,316.0 63.5,316.0 65.0,316.0 66.5,316.0 67.9,316.0 69.4,316.0 70.9,316.0 72.4,316.0 73.9,316.0 75.4,316.0 76.8,316.0 78.3,316.0 79.8,316.0 81.3,316.0 82.8,316.0 84.3,316.0 85.8,316.0 87.2,316.0 88.7,316.0 90.2,316.0 91.7,316.0 93.2,316.0 94.7,316.0 96.1,316.0 97.6,316.0 99.1,316.0 100.6,316.0 102.1,316.0 103.6,316.0 105.0,316.0 106.5,316.0 108.0,316.0 109.5,316.0 111.0,316.0 112.5,316.0 114.0,316.0 115.4,316.0 116.9,316.0 118.4,316.0 119.9,316.0 121.4,316.0 122.9,316.0 124.3,316.0 125.8,316.0 127.3,316.0 128.8,316.0 130.3,316.0 131.8,316.0 133.3,316.0 134.7,316.0 136.2,316.0 137.7,316.0 139.2,316.0 140.7,316.0 142.2,316.0 143.6,316.0 145.1,316.0 146.6,316.0 148.1,316.0 149.6,316.0 151.1,316.0 152.6,315.2 154.0,314.4 155.5,313.6 157.0,312.9 158.5,312.1 160.0,311.4 161.5,310.6 162.9,309.9 164.4,309.2 165.9,308.5 167.4,307.8 168.9,307.1 170.4,306.5 171.8,305.8 173.3,305.2 174.8,304.5 176.3,303.9 177.8,303.2 179.3,302.6 180.8,302.0 182.2,301.4 183.7,300.8 185.2,300.2 186.7,299.6 188.2,299.0 189.7,298.4 191.1,297.9 192.6,297.3 194.1,296.7 195.6,296.2 197.1,295.6 198.6,295.1 200.1,294.5 201.5,294.0 203.0,293.5 204.5,292.9 206.0,292.4 207.5,291.9 209.0,291.4 210.4,290.9 211.9,290.4 213.4,289.9 214.9,289.4 216.4,288.9 217.9,288.4 219.4,287.9 220.8,287.4 222.3,287.0 223.8,286.5 225.3,286.0 226.8,285.6 228.3,285.1 229.7,284.6 231.2,284.2 232.7,283.7 234.2,283.3 235.7,282.9 237.2,282.4 238.6,282.0 240.1,281.5 241.6,280.3 243.1,279.1 244.6,277.9 246.1,276.7 247.6,275.5 249.0,274.3 250.5,273.1 252.0,271.9 253.5,270.7 255.0,269.6 256.5,268.4 257.9,267.2 259.4,266.1 260.9,265.0 262.4,263.8 263.9,262.7 265.4,261.6 266.9,260.4 268.3,259.3 269.8,258.2 271.3,257.1 272.8,256.0 274.3,254.9 275.8,253.8 277.2,252.8 278.7,251.7 280.2,250.6 281.7,249.5 283.2,248.5 284.7,247.4 286.2,246.3 287.6,245.3 289.1,244.2 290.6,243.2 292.1,242.1 293.6,241.1 295.1,240.1 296.5,239.0 298.0,238.0 299.5,237.0 301.0,236.0 302.5,234.9 304.0,233.9 305.4,232.9 306.9,231.9 308.4,230.9 309.9,229.9 311.4,228.9 312.9,227.9 314.4,226.9 315.8,225.9 317.3,224.9 318.8,223.9 320.3,222.9 321.8,222.0 323.3,221.0 324.7,220.0 326.2,219.0 327.7,218.1 329.2,217.1 330.7,216.1 332.2,215.2 333.7,214.2 335.1,213.2 336.6,212.3 338.1,211.3 339.6,210.4 341.1,209.4 342.6,208.5 344.0,207.5 345.5,206.6 347.0,205.7 348.5,204.7 350.0,203.8 351.5,202.8 353.0,201.9 354.4,201.0 355.9,200.1 357.4,199.1 358.9,198.2 360.4,197.3 361.9,196.4 363.3,195.4 364.8,194.5 366.3,193.6 367.8,192.7 369.3,191.8 370.8,190.9 372.2,189.9 373.7,189.0 375.2,188.1 376.7,187.2 378.2,186.3 379.7,185.4 381.2,184.5 382.6,183.6 384.1,182.7 385.6,181.8 387.1,180.9 388.6,180.0 390.1,179.2 391.5,178.3 393.0,177.4 394.5,176.5 396.0,175.6 397.5,174.7 399.0,173.8 400.5,173.0 401.9,172.1 403.4,171.2 404.9,170.3 406.4,169.5 407.9,168.6 409.4,167.7 410.8,166.8 412.3,166.0 413.8,165.1 415.3,164.2 416.8,163.4 418.3,162.5 419.8,162.4 421.2,162.4 422.7,162.3 424.2,162.2 425.7,162.2 427.2,162.1 428.7,162.1 430.1,162.0 431.6,161.9 433.1,161.9 434.6,161.8 436.1,161.7 437.6,161.7 439.0,161.6 440.5,161.6 442.0,161.5 443.5,161.4 445.0,161.4 446.5,161.3 448.0,161.3 449.4,161.2 450.9,161.1 452.4,161.1 453.9,161.0 455.4,161.0 456.9,160.9 458.3,160.8 459.8,160.8 461.3,160.7 462.8,160.7 464.3,160.6 465.8,160.5 467.3,160.5 468.7,160.4 470.2,160.4 471.7,160.3 473.2,160.2 474.7,160.2 476.2,160.1 477.6,160.1 479.1,160.0 480.6,159.9 482.1,159.9 483.6,159.8 485.1,159.8 486.6,159.7 488.0,159.6 489.5,159.6 491.0,159.5 492.5,159.5 494.0,159.4 495.5,159.3 496.9,159.3 498.4,159.2 499.9,159.2 501.4,159.1 502.9,159.1 504.4,159.0 505.8,158.9 507.3,158.9 508.8,159.6 510.3,160.4 511.8,161.1 513.3,161.9 514.8,162.6 516.2,163.3 517.7,164.1 519.2,164.8 520.7,165.5 522.2,166.3 523.7,167.0 525.1,167.7 526.6,168.5 528.1,169.2 529.6,169.9 531.1,170.7 532.6,171.4 534.1,172.1 535.5,172.8 537.0,173.6 538.5,174.3 540.0,175.0 541.5,175.7 543.0,176.5 544.4,177.2 545.9,177.9 547.4,178.6 548.9,179.3 550.4,180.0 551.9,180.7 553.4,181.5 554.8,182.2 556.3,182.9 557.8,183.6 559.3,184.3 560.8,185.0 562.3,185.7 563.7,186.4 565.2,187.1 566.7,187.8 568.2,188.5 569.7,189.2 571.2,189.9 572.6,190.6 574.1,191.3 575.6,192.0 577.1,192.7 578.6,193.4 580.1,194.0 581.6,194.7 583.0,195.4 584.5,196.1 586.0,196.8 587.5,197.5 589.0,198.2 590.5,198.8 591.9,199.5 593.4,200.2 594.9,200.9 596.4,201.5 597.9,202.2 599.4,202.9 600.9,203.6 602.3,204.2 603.8,204.9 605.3,205.6 606.8,206.2 608.3,206.9 609.8,207.5 611.2,208.2 612.7,208.9 614.2,209.5 615.7,210.2 617.2,210.8 618.7,211.5 620.2,212.1 621.6,212.8 623.1,213.4 624.6,214.1 626.1,214.7 627.6,215.4 629.1,216.0 630.5,216.6 632.0,217.3 633.5,217.9 635.0,218.6 636.5,219.2 638.0,219.8 639.4,220.4 640.9,221.1 642.4,221.7 643.9,222.3 645.4,223.0 646.9,223.6 648.4,224.2 649.8,224.8 651.3,225.4 652.8,226.0 654.3,226.7 655.8,227.3 657.3,227.9 658.7,228.5 660.2,229.1 661.7,229.7 663.2,230.3 664.7,230.9 666.2,231.5 667.7,232.1 669.1,232.7 670.6,233.3 672.1,233.9 673.6,234.5 675.1,235.1 676.6,235.7 678.0,236.2 679.5,236.8 681.0,237.4 682.5,238.0 684.0,238.6 685.5,239.1 687.0,239.7 688.4,240.3 689.9,240.9 691.4,241.4 692.9,242.0 694.4,242.6 695.9,243.1 697.3,243.7 698.8,244.2 700.3,244.8 701.8,245.3 703.3,245.9 704.8,246.4 706.2,247.0 707.7,247.5 709.2,248.1 710.7,248.6 712.2,249.2 713.7,249.7 715.2,250.2 716.6,250.8 718.1,251.3 719.6,251.8 721.1,252.4 722.6,252.9 724.1,253.4 725.5,253.9 727.0,254.4 728.5,255.0 730.0,255.5" fill="none" stroke="#2563eb" stroke-width="2.5"/>
<line x1="62" y1="316.0" x2="730" y2="316.0" stroke="#6b7280" stroke-width="1"/>
<line x1="106.5" y1="44" x2="106.5" y2="316" stroke="#16a34a" stroke-width="1.5" stroke-dasharray="4,3" opacity="0.7"/><rect x="94.5" y="322.0" width="24" height="16" rx="3" fill="#16a34a"/><text x="106.5" y="333.0" fill="white" font-size="10" font-weight="bold" text-anchor="middle">H</text><text x="106.5" y="38.0" fill="#16a34a" font-size="9" text-anchor="middle">Heavy meal</text>
<line x1="151.1" y1="310.0" x2="151.1" y2="322.0" stroke="#1d4ed8" stroke-width="2"/><text x="151.1" y="344.0" fill="#1d4ed8" font-size="9" text-anchor="middle">Wine 1
19:00</text>
<line x1="240.1" y1="310.0" x2="240.1" y2="322.0" stroke="#1d4ed8" stroke-width="2"/><text x="240.1" y="344.0" fill="#1d4ed8" font-size="9" text-anchor="middle">Wine 2
20:00</text>
<line x1="329.2" y1="310.0" x2="329.2" y2="322.0" stroke="#1d4ed8" stroke-width="2"/><text x="329.2" y="344.0" fill="#1d4ed8" font-size="9" text-anchor="middle">Wine 3
21:00</text>
<line x1="62" y1="44" x2="62" y2="316" stroke="#374151" stroke-width="1.5"/><line x1="62" y1="316" x2="730" y2="316" stroke="#374151" stroke-width="1.5"/>
<text x="57" y="316.0" fill="#374151" font-size="10" text-anchor="end" dominant-baseline="middle">0.00 %</text><line x1="59" y1="316.0" x2="62" y2="316.0" stroke="#374151" stroke-width="1"/>
<text x="57" y="232.9" fill="#374151" font-size="10" text-anchor="end" dominant-baseline="middle">0.02 %</text><line x1="59" y1="232.9" x2="62" y2="232.9" stroke="#374151" stroke-width="1"/>
<text x="57" y="149.7" fill="#374151" font-size="10" text-anchor="end" dominant-baseline="middle">0.04 %</text><line x1="59" y1="149.7" x2="62" y2="149.7" stroke="#374151" stroke-width="1"/>
<text x="57" y="66.6" fill="#374151" font-size="10" text-anchor="end" dominant-baseline="middle">0.06 %</text><line x1="59" y1="66.6" x2="62" y2="66.6" stroke="#374151" stroke-width="1"/>
<text x="106.5" y="360.0" fill="#374151" font-size="10" text-anchor="middle">18:30</text><line x1="106.5" y1="316" x2="106.5" y2="320" stroke="#374151" stroke-width="1"/>
<text x="151.1" y="360.0" fill="#374151" font-size="10" text-anchor="middle">19:00</text><line x1="151.1" y1="316" x2="151.1" y2="320" stroke="#374151" stroke-width="1"/>
<text x="195.6" y="360.0" fill="#374151" font-size="10" text-anchor="middle">19:30</text><line x1="195.6" y1="316" x2="195.6" y2="320" stroke="#374151" stroke-width="1"/>
<text x="240.1" y="360.0" fill="#374151" font-size="10" text-anchor="middle">20:00</text><line x1="240.1" y1="316" x2="240.1" y2="320" stroke="#374151" stroke-width="1"/>
<text x="284.7" y="360.0" fill="#374151" font-size="10" text-anchor="middle">20:30</text><line x1="284.7" y1="316" x2="284.7" y2="320" stroke="#374151" stroke-width="1"/>
<text x="329.2" y="360.0" fill="#374151" font-size="10" text-anchor="middle">21:00</text><line x1="329.2" y1="316" x2="329.2" y2="320" stroke="#374151" stroke-width="1"/>
<text x="373.7" y="360.0" fill="#374151" font-size="10" text-anchor="middle">21:30</text><line x1="373.7" y1="316" x2="373.7" y2="320" stroke="#374151" stroke-width="1"/>
<text x="418.3" y="360.0" fill="#374151" font-size="10" text-anchor="middle">22:00</text><line x1="418.3" y1="316" x2="418.3" y2="320" stroke="#374151" stroke-width="1"/>
<text x="462.8" y="360.0" fill="#374151" font-size="10" text-anchor="middle">22:30</text><line x1="462.8" y1="316" x2="462.8" y2="320" stroke="#374151" stroke-width="1"/>
<text x="507.3" y="360.0" fill="#374151" font-size="10" text-anchor="middle">23:00</text><line x1="507.3" y1="316" x2="507.3" y2="320" stroke="#374151" stroke-width="1"/>
<text x="551.9" y="360.0" fill="#374151" font-size="10" text-anchor="middle">23:30</text><line x1="551.9" y1="316" x2="551.9" y2="320" stroke="#374151" stroke-width="1"/>
<text x="596.4" y="360.0" fill="#374151" font-size="10" text-anchor="middle">00:00</text><line x1="596.4" y1="316" x2="596.4" y2="320" stroke="#374151" stroke-width="1"/>
<text x="640.9" y="360.0" fill="#374151" font-size="10" text-anchor="middle">00:30</text><line x1="640.9" y1="316" x2="640.9" y2="320" stroke="#374151" stroke-width="1"/>
<text x="685.5" y="360.0" fill="#374151" font-size="10" text-anchor="middle">01:00</text><line x1="685.5" y1="316" x2="685.5" y2="320" stroke="#374151" stroke-width="1"/>
<text x="730.0" y="360.0" fill="#374151" font-size="10" text-anchor="middle">01:30</text><line x1="730.0" y1="316" x2="730.0" y2="320" stroke="#374151" stroke-width="1"/>
<text x="396" y="376" fill="#374151" font-size="11" text-anchor="middle">Time</text><text x="14" y="180" fill="#374151" font-size="11" text-anchor="middle" transform="rotate(-90,14,180)">BAC (%)</text>
<line x1="70" y1="54" x2="92" y2="54" stroke="#2563eb" stroke-width="2.5"/>
<text x="96" y="54" fill="#374151" font-size="10" dominant-baseline="middle">Main curve</text>
<line x1="70" y1="70" x2="92" y2="70" stroke="#9ca3af" stroke-width="2" stroke-dasharray="6,4"/>
<text x="96" y="70" fill="#374151" font-size="10" dominant-baseline="middle">Fasted (Ex. 1)</text>
<text x="380" y="20" fill="#111827" font-size="13" font-weight="bold" text-anchor="middle">Example 2 — Heavy meal at 18:30, drinks at 19:00 / 20:00 / 21:00</text>
<text x="730" y="54" fill="#6b7280" font-size="9" text-anchor="end">Profile: male, 70 kg, 175 cm · r=0.789 · βₘₐₓ=0.015 %/h · Kₘ=0.015 %</text>
</svg>
