<svg xmlns="http://www.w3.org/2000/svg" viewBox="0 0 760 380" width="760" height="380" font-family="system-ui,sans-serif">
<rect width="760" height="380" fill="#ffffff"/><rect x="62" y="44" width="668" height="272" fill="#f9fafb"/>
<line x1="62" y1="219.5" x2="730" y2="219.5" stroke="#e5e7eb" stroke-width="1"/>
<line x1="62" y1="123.0" x2="730" y2="123.0" stroke="#e5e7eb" stroke-width="1"/>
<line x1="106.5" y1="44" x2="106.5" y2="316" stroke="#e5e7eb" stroke-width="1"/>
<line x1="151.1" y1="44" x2="151.1" y2="316" stroke="#e5e7eb" stroke-width="1"/>
<line x1="195.6" y1="44" x2="195.6" y2="316" stroke="#e5e7eb" stroke-width="1"/>
<line x1="240.1" y1="44" x2="240.1" y2="316" stroke="#e5e7eb" stroke-width="1"/>
<line x1="284.7" y1="44" x2="284.7" y2="316" stroke="#e5e7eb" stroke-width="1"/>
<line x1="329.2" y1="44" x2="329.2" y2="316" stroke="#e5e7eb" stroke-width="1"/>
<line x1="373.7" y1="44" x2="373.7" y2="316" stroke="#e5e7eb" stroke-width="1"/>
<line x1="418.3" y1="44" x2="418.3" y2="316" stroke="#e5e7eb" stroke-width="1"/>
<line x1="462.8" y1="44" x2="462.8" y2="316" stroke="#e5e7eb" stroke-width="1"/>
<line x1="507.3" y1="44" x2="507.3" y2="316" stroke="#e5e7eb" stroke-width="1"/>
<line x1="551.9" y1="44" x2="551.9" y2="316" stroke="#e5e7eb" stroke-width="1"/>
<line x1="596.4" y1="44" x2="596.4" y2="316" stroke="#e5e7eb" stroke-width="1"/>
<line x1="640.9" y1="44" x2="640.9" y2="316" stroke="#e5e7eb" stroke-width="1"/>
<line x1="685.5" y1="44" x2="685.5" y2="316" stroke="#e5e7eb" stroke-width="1"/>
<line x1="730.0" y1="44" x2="730.0" y2="316" stroke="#e5e7eb" stroke-width="1"/>
<line x1="62" y1="74.7" x2="730" y2="74.7" stroke="#d97706" stroke-width="1.2" stroke-dasharray="6,4"/><text x="734" y="74.7" fill="#d97706" font-size="10" dominant-baseline="middle">0.05 %</text>
<polyline points="62.0,316.0 63.5,316.0 65.0,316.0 66.5,316.0 67.9,316.0 69.4,316.0 70.9,316.0 72.4,316.0 73.9,316.0 75.4,316.0 76.8,316.0 78.3,316.0 79.8,316.0 81.3,316.0 82.8,316.0 84.3,316.0 85.8,316.0 87.2,316.0 88.7,316.0 90.2,316.0 91.7,316.0 93.2,316.0 94.7,316.0 96.1,316.0 97.6,316.0 99.1,316.0 100.6,316.0 102.1,316.0 103.6,316.0 105.0,316.0 106.5,316.0 108.0,316.0 109.5,316.0 111.0,316.0 112.5,316.0 114.0,316.0 115.4,316.0 116.9,316.0 118.4,316.0 119.9,316.0 121.4,316.0 122.9,316.0 124.3,316.0 125.8,316.0 127.3,316.0 128.8,316.0 130.3,316.0 131.8,316.0 133.3,316.0 134.7,316.0 136.2,316.0 137.7,316.0 139.2,316.0 140.7,316.0 142.2,316.0 143.6,316.0 145.1,316.0 146.6,316.0 148.1,316.0 149.6,316.0 151.1,316.0 152.6,313.2 154.0,310.6 155.5,308.1 157.0,305.6 158.5,303.2 160.0,300.9 161.5,298.6 162.9,296.3 164.4,294.1 165.9,291.9 167.4,289.8 168.9,287.6 170.4,285.5 171.8,283.5 173.3,281.4 174.8,279.3 176.3,277.3 177.8,275.3 179.3,273.3 180.8,271.3 182.2,269.3 183.7,267.4 185.2,265.4 186.7,263.5 188.2,261.6 189.7,259.6 191.1,257.7 192.6,255.8 194.1,253.9 195.6,252.0 197.1,250.2 198.6,248.3 200.1,246.4 201.5,244.5 203.0,242.7 204.5,240.8 206.0,239.0 207.5,237.2 209.0,235.3 210.4,233.5 211.9,231.7 213.4,229.9 214.9,228.0 216.4,226.2 217.9,224.4 219.4,225.4 220.8,226.3 222.3,227.3 223.8,228.2 225.3,229.2 226.8,230.1 228.3,231.1 229.7,232.0 231.2,232.9 232.7,233.9 234.2,234.8 235.7,235.7 237.2,236.7 238.6,237.6 240.1,238.5 241.6,236.7 243.1,234.8 244.6,233.0 246.1,231.2 247.6,229.4 249.0,227.6 250.5,225.7 252.0,223.9 253.5,222.1 255.0,220.3 256.5,218.5 257.9,216.8 259.4,215.0 260.9,213.2 262.4,211.4 263.9,209.6 265.4,207.9 266.9,206.1 268.3,204.3 269.8,202.5 271.3,200.8 272.8,199.0 274.3,197.3 275.8,195.5 277.2,193.8 278.7,192.0 280.2,190.3 281.7,188.5 283.2,186.8 284.7,185.0 286.2,183.3 287.6,181.6 289.1,179.8 290.6,178.1 292.1,176.4 293.6,174.6 295.1,172.9 296.5,171.2 298.0,169.5 299.5,167.7 301.0,166.0 302.5,164.3 304.0,162.6 305.4,160.9 306.9,159.2 308.4,160.2 309.9,161.2 311.4,162.3 312.9,163.3 314.4,164.4 315.8,165.4 317.3,166.5 318.8,167.5 320.3,168.5 321.8,169.6 323.3,170.6 324.7,171.6 326.2,172.7 327.7,173.7 329.2,174.7 330.7,173.0 332.2,171.3 333.7,169.6 335.1,167.8 336.6,166.1 338.1,164.4 339.6,162.7 341.1,161.0 342.6,159.3 344.0,157.5 345.5,155.8 347.0,154.1 348.5,152.4 350.0,150.7 351.5,149.0 353.0,147.3 354.4,145.6 355.9,143.9 357.4,142.2 358.9,140.5 360.4,138.8 361.9,137.1 363.3,135.4 364.8,133.7 366.3,132.0 367.8,130.3 369.3,128.6 370.8,127.0 372.2,125.3 373.7,123.6 375.2,121.9 376.7,120.2 378.2,118.5 379.7,116.8 381.2,115.2 382.6,113.5 384.1,111.8 385.6,110.1 387.1,108.4 388.6,106.8 390.1,105.1 391.5,103.4 393.0,101.7 394.5,100.1 396.0,98.4 397.5,99.5 399.0,100.6 400.5,101.7 401.9,102.7 403.4,103.8 404.9,104.9 406.4,106.0 407.9,107.1 409.4,108.2 410.8,109.2 412.3,110.3 413.8,111.4 415.3,112.5 416.8,113.6 418.3,114.6 419.8,115.7 421.2,116.8 422.7,117.9 424.2,118.9 425.7,120.0 427.2,121.1 428.7,122.2 430.1,123.2 431.6,124.3 433.1,125.4 434.6,126.4 436.1,127.5 437.6,128.6 439.0,129.7 440.5,130.7 442.0,131.8 443.5,132.9 445.0,133.9 446.5,135.0 448.0,136.1 449.4,137.1 450.9,138.2 452.4,139.2 453.9,140.3 455.4,141.4 456.9,142.4 458.3,143.5 459.8,144.5 461.3,145.6 462.8,146.7 464.3,147.7 465.8,148.8 467.3,149.8 468.7,150.9 470.2,151.9 471.7,153.0 473.2,154.0 474.7,155.1 476.2,156.1 477.6,157.2 479.1,158.2 480.6,159.3 482.1,160.3 483.6,161.4 485.1,162.4 486.6,163.4 488.0,164.5 489.5,165.5 491.0,166.6 492.5,167.6 494.0,168.6 495.5,169.7 496.9,170.7 498.4,171.8 499.9,172.8 501.4,173.8 502.9,174.8 504.4,175.9 505.8,176.9 507.3,177.9 508.8,179.0 510.3,180.0 511.8,181.0 513.3,182.0 514.8,183.1 516.2,184.1 517.7,185.1 519.2,186.1 520.7,187.1 522.2,188.2 523.7,189.2 525.1,190.2 526.6,191.2 528.1,192.2 529.6,193.2 531.1,194.2 532.6,195.2 534.1,196.2 535.5,197.2 537.0,198.2 538.5,199.2 540.0,200.2 541.5,201.2 543.0,202.2 544.4,203.2 545.9,204.2 547.4,205.2 548.9,206.2 550.4,207.2 551.9,208.2 553.4,209.2 554.8,210.2 556.3,211.1 557.8,212.1 559.3,213.1 560.8,214.1 562.3,215.1 563.7,216.0 565.2,217.0 566.7,218.0 568.2,218.9 569.7,219.9 571.2,220.9 572.6,221.8 574.1,222.8 575.6,223.7 577.1,224.7 578.6,225.7 580.1,226.6 581.6,227.6 583.0,228.5 584.5,229.5 586.0,230.4 587.5,231.3 589.0,232.3 590.5,233.2 591.9,234.1 593.4,235.1 594.9,236.0 596.4,236.9 597.9,237.9 599.4,238.8 600.9,239.7 602.3,240.6 603.8,241.5 605.3,242.4 606.8,243.4 608.3,244.3 609.8,245.2 611.2,246.1 612.7,247.0 614.2,247.9 615.7,248.7 617.2,249.6 618.7,250.5 620.2,251.4 621.6,252.3 623.1,253.1 624.6,254.0 626.1,254.9 627.6,255.8 629.1,256.6 630.5,257.5 632.0,258.3 633.5,259.2 635.0,260.0 636.5,260.9 638.0,261.7 639.4,262.5 640.9,263.4 642.4,264.2 643.9,265.0 645.4,265.8 646.9,266.7 648.4,267.5 649.8,268.3 651.3,269.1 652.8,269.9 654.3,270.7 655.8,271.5 657.3,272.2 658.7,273.0 660.2,273.8 661.7,274.6 663.2,275.3 664.7,276.1 666.2,276.8 667.7,277.6 669.1,278.3 670.6,279.0 672.1,279.8 673.6,280.5 675.1,281.2 676.6,281.9 678.0,282.6 679.5,283.3 681.0,284.0 682.5,284.7 684.0,285.4 685.5,286.1 687.0,286.7 688.4,287.4 689.9,288.1 691.4,288.7 692.9,289.3 694.4,290.0 695.9,290.6 697.3,291.2 698.8,291.8 700.3,292.4 701.8,293.0 703.3,293.6 704.8,294.2 706.2,294.8 707.7,295.3 709.2,295.9 710.7,296.4 712.2,297.0 713.7,297.5 715.2,298.0 716.6,298.6 718.1,299.1 719.6,299.6 721.1,300.0 722.6,300.5 724.1,301.0 725.5,301.5 727.0,301.9 728.5,302.4 730.0,302.8" fill="none" stroke="#9ca3af" stroke-width="2" stroke-dasharray="8,5"/>
<polyline points="62.0,316.0 63.5,316.0 65.0,316.0 66.5,316.0 67.9,316.0 69.4,316.0 70.9,316.0 72.4,316.0 73.9,316.0 75.4,316.0 76.8,316.0 78.3,316.0 79.8,316.0 81.3,316.0 82.8,316.0 84.3,316.0 85.8,316.0 87.2,316.0 88.7,316.0 90.2,316.0 91.7,316.0 93.2,316.0 94.7,316.0 96.1,316.0 97.6,316.0 99.1,316.0 100.6,316.0 102.1,316.0 103.6,316.0 105.0,316.0 106.5,316.0 108.0,316.0 109.5,316.0 111.0,316.0 112.5,316.0 114.0,316.0 115.4,316.0 116.9,316.0 118.4,316.0 119.9,316.0 121.4,316.0 122.9,316.0 124.3,316.0 125.8,316.0 127.3,316.0 128.8,316.0 130.3,316.0 131.8,316.0 133.3,316.0 134.7,316.0 136.2,316.0 137.7,316.0 139.2,316.0 140.7,316.0 142.2,316.0 143.6,316.0 145.1,316.0 146.6,316.0 148.1,316.0 149.6,316.0 151.1,316.0 152.6,315.1 154.0,314.2 155.5,313.3 157.0,312.5 158.5,311.7 160.0,311.0 161.5,310.3 162.9,309.6 164.4,308.9 165.9,308.2 167.4,307.6 168.9,307.0 170.4,306.4 171.8,305.8 173.3,305.2 174.8,304.7 176.3,304.1 177.8,303.6 179.3,303.1 180.8,302.6 182.2,302.1 183.7,301.6 185.2,301.1 186.7,300.6 188.2,300.2 189.7,299.7 191.1,299.3 192.6,298.8 194.1,298.4 195.6,298.0 197.1,297.6 198.6,297.2 200.1,296.8 201.5,296.4 203.0,296.0 204.5,295.6 206.0,295.2 207.5,294.8 209.0,294.5 210.4,294.1 211.9,293.7 213.4,293.4 214.9,293.0 216.4,292.7 217.9,292.4 219.4,292.0 220.8,291.7 222.3,291.4 223.8,291.1 225.3,290.7 226.8,290.4 228.3,290.1 229.7,289.8 231.2,289.5 232.7,289.2 234.2,288.9 235.7,288.6 237.2,288.3 238.6,288.0 240.1,287.8 241.6,286.6 243.1,285.4 244.6,284.2 246.1,283.0 247.6,281.8 249.0,280.7 250.5,279.5 252.0,278.4 253.5,277.3 255.0,276.1 256.5,275.0 257.9,273.9 259.4,272.8 260.9,271.8 262.4,270.7 263.9,269.6 265.4,268.5 266.9,267.5 268.3,266.4 269.8,265.4 271.3,264.3 272.8,263.3 274.3,262.2 275.8,261.2 277.2,260.2 278.7,259.2 280.2,258.2 281.7,257.2 283.2,256.1 284.7,255.1 286.2,254.1 287.6,253.2 289.1,252.2 290.6,251.2 292.1,250.2 293.6,249.2 295.1,248.2 296.5,247.3 298.0,246.3 299.5,245.3 301.0,244.4 302.5,243.4 304.0,242.5 305.4,241.5 306.9,240.6 308.4,239.6 309.9,238.7 311.4,237.7 312.9,236.8 314.4,235.8 315.8,234.9 317.3,234.0 318.8,233.1 320.3,232.1 321.8,231.2 323.3,230.3 324.7,229.4 326.2,228.4 327.7,227.5 329.2,226.6 330.7,225.7 332.2,224.8 333.7,223.9 335.1,223.0 336.6,222.1 338.1,221.2 339.6,220.3 341.1,219.4 342.6,218.5 344.0,217.6 345.5,216.7 347.0,215.8 348.5,214.9 350.0,214.0 351.5,213.1 353.0,212.3 354.4,211.4 355.9,210.5 357.4,209.6 358.9,208.7 360.4,207.9 361.9,207.0 363.3,206.1 364.8,205.2 366.3,204.4 367.8,203.5 369.3,202.6 370.8,201.8 372.2,200.9 373.7,200.0 375.2,199.2 376.7,198.3 378.2,197.5 379.7,196.6 381.2,195.7 382.6,194.9 384.1,194.0 385.6,193.2 387.1,192.3 388.6,191.5 390.1,190.6 391.5,189.8 393.0,188.9 394.5,188.1 396.0,187.2 397.5,186.4 399.0,185.5 400.5,184.7 401.9,183.8 403.4,183.0 404.9,182.2 406.4,181.3 407.9,180.5 409.4,179.7 410.8,178.8 412.3,178.0 413.8,177.1 415.3,176.3 416.8,175.5 418.3,174.6 419.8,174.7 421.2,174.8 422.7,174.9 424.2,175.0 425.7,175.1 427.2,175.2 428.7,175.3 430.1,175.4 431.6,175.5 433.1,175.6 434.6,175.7 436.1,175.8 437.6,175.9 439.0,176.0 440.5,176.1 442.0,176.2 443.5,176.3 445.0,176.4 446.5,176.5 448.0,176.6 449.4,176.7 450.9,176.8 452.4,176.9 453.9,177.0 455.4,177.1 456.9,177.2 458.3,177.3 459.8,177.4 461.3,177.5 462.8,177.6 464.3,177.7 465.8,177.8 467.3,177.9 468.7,178.0 470.2,178.1 471.7,178.2 473.2,178.3 474.7,178.4 476.2,178.5 477.6,178.6 479.1,178.7 480.6,178.7 482.1,178.8 483.6,178.9 485.1,179.0 486.6,179.1 488.0,179.2 489.5,179.3 491.0,179.4 492.5,179.5 494.0,179.6 495.5,179.7 496.9,179.8 498.4,179.9 499.9,180.0 501.4,180.1 502.9,180.2 504.4,180.3 505.8,180.4 507.3,180.5 508.8,181.5 510.3,182.5 511.8,183.5 513.3,184.5 514.8,185.6 516.2,186.6 517.7,187.6 519.2,188.6 520.7,189.6 522.2,190.6 523.7,191.6 525.1,192.7 526.6,193.7 528.1,194.7 529.6,195.7 531.1,196.7 532.6,197.7 534.1,198.7 535.5,199.7 537.0,200.7 538.5,201.7 540.0,202.7 541.5,203.7 543.0,204.7 544.4,205.7 545.9,206.7 547.4,207.6 548.9,208.6 550.4,209.6 551.9,210.6 553.4,211.6 554.8,212.6 556.3,213.5 557.8,214.5 559.3,215.5 560.8,216.5 562.3,217.4 563.7,218.4 565.2,219.4 566.7,220.3 568.2,221.3 569.7,222.3 571.2,223.2 572.6,224.2 574.1,225.1 575.6,226.1 577.1,227.0 578.6,228.0 580.1,228.9 581.6,229.9 583.0,230.8 584.5,231.8 586.0,232.7 587.5,233.6 589.0,234.6 590.5,235.5 591.9,236.4 593.4,237.4 594.9,238.3 596.4,239.2 597.9,240.1 599.4,241.0 600.9,241.9 602.3,242.9 603.8,243.8 605.3,244.7 606.8,245.6 608.3,246.5 609.8,247.4 611.2,248.3 612.7,249.1 614.2,250.0 615.7,250.9 617.2,251.8 618.7,252.7 620.2,253.5 621.6,254.4 623.1,255.3 624.6,256.1 626.1,257.0 627.6,257.9 629.1,258.7 630.5,259.6 632.0,260.4 633.5,261.2 635.0,262.1 636.5,262.9 638.0,263.7 639.4,264.6 640.9,265.4 642.4,266.2 643.9,267.0 645.4,267.8 646.9,268.6 648.4,269.4 649.8,270.2 651.3,271.0 652.8,271.8 654.3,272.6 655.8,273.4 657.3,274.1 658.7,274.9 660.2,275.7 661.7,276.4 663.2,277.2 664.7,277.9 666.2,278.6 667.7,279.4 669.1,280.1 670.6,280.8 672.1,281.5 673.6,282.2 675.1,283.0 676.6,283.6 678.0,284.3 679.5,285.0 681.0,285.7 682.5,286.4 684.0,287.0 685.5,287.7 687.0,288.3 688.4,289.0 689.9,289.6 691.4,290.3 692.9,290.9 694.4,291.5 695.9,292.1 697.3,292.7 698.8,293.3 700.3,293.9 701.8,294.5 703.3,295.0 704.8,295.6 706.2,296.1 707.7,296.7 709.2,297.2 710.7,297.8 712.2,298.3 713.7,298.8 715.2,299.3 716.6,299.8 718.1,300.3 719.6,300.7 721.1,301.2 722.6,301.7 724.1,302.1 725.5,302.6 727.0,303.0 728.5,303.4 730.0,303.8" fill="none" stroke="#2563eb" stroke-width="2.5"/>
<line x1="62" y1="316.0" x2="730" y2="316.0" stroke="#6b7280" stroke-width="1"/>
<line x1="106.5" y1="44" x2="106.5" y2="316" stroke="#16a34a" stroke-width="1.5" stroke-dasharray="4,3" opacity="0.7"/><rect x="94.5" y="322.0" width="24" height="16" rx="3" fill="#16a34a"/><text x="106.5" y="333.0" fill="white" font-size="10" font-weight="bold" text-anchor="middle">H</text><text x="106.5" y="38.0" fill="#16a34a" font-size="9" text-anchor="middle">Heavy meal</text>
<line x1="151.1" y1="310.0" x2="151.1" y2="322.0" stroke="#1d4ed8" stroke-width="2"/><text x="151.1" y="344.0" fill="#1d4ed8" font-size="9" text-anchor="middle">Wine 1
19:00</text>
<line x1="240.1" y1="310.0" x2="240.1" y2="322.0" stroke="#1d4ed8" stroke-width="2"/><text x="240.1" y="344.0" fill="#1d4ed8" font-size="9" text-anchor="middle">Wine 2
20:00</text>
<line x1="329.2" y1="310.0" x2="329.2" y2="322.0" stroke="#1d4ed8" stroke-width="2"/><text x="329.2" y="344.0" fill="#1d4ed8" font-size="9" text-anchor="middle">Wine 3
21:00</text>
<line x1="62" y1="44" x2="62" y2="316" stroke="#374151" stroke-width="1.5"/><line x1="62" y1="316" x2="730" y2="316" stroke="#374151" stroke-width="1.5"/>
<text x="57" y="316.0" fill="#374151" font-size="10" text-anchor="end" dominant-baseline="middle">0.00 %</text><line x1="59" y1="316.0" x2="62" y2="316.0" stroke="#374151" stroke-width="1"/>
<text x="57" y="219.5" fill="#374151" font-size="10" text-anchor="end" dominant-baseline="middle">0.02 %</text><line x1="59" y1="219.5" x2="62" y2="219.5" stroke="#374151" stroke-width="1"/>
<text x="57" y="123.0" fill="#374151" font-size="10" text-anchor="end" dominant-baseline="middle">0.04 %</text><line x1="59" y1="123.0" x2="62" y2="123.0" stroke="#374151" stroke-width="1"/>
<text x="106.5" y="360.0" fill="#374151" font-size="10" text-anchor="middle">18:30</text><line x1="106.5" y1="316" x2="106.5" y2="320" stroke="#374151" stroke-width="1"/>
<text x="151.1" y="360.0" fill="#374151" font-size="10" text-anchor="middle">19:00</text><line x1="151.1" y1="316" x2="151.1" y2="320" stroke="#374151" stroke-width="1"/>
<text x="195.6" y="360.0" fill="#374151" font-size="10" text-anchor="middle">19:30</text><line x1="195.6" y1="316" x2="195.6" y2="320" stroke="#374151" stroke-width="1"/>
<text x="240.1" y="360.0" fill="#374151" font-size="10" text-anchor="middle">20:00</text><line x1="240.1" y1="316" x2="240.1" y2="320" stroke="#374151" stroke-width="1"/>
<text x="284.7" y="360.0" fill="#374151" font-size="10" text-anchor="middle">20:30</text><line x1="284.7" y1="316" x2="284.7" y2="320" stroke="#374151" stroke-width="1"/>
<text x="329.2" y="360.0" fill="#374151" font-size="10" text-anchor="middle">21:00</text><line x1="329.2" y1="316" x2="329.2" y2="320" stroke="#374151" stroke-width="1"/>
<text x="373.7" y="360.0" fill="#374151" font-size="10" text-anchor="middle">21:30</text><line x1="373.7" y1="316" x2="373.7" y2="320" stroke="#374151" stroke-width="1"/>
<text x="418.3" y="360.0" fill="#374151" font-size="10" text-anchor="middle">22:00</text><line x1="418.3" y1="316" x2="418.3" y2="320" stroke="#374151" stroke-width="1"/>
<text x="462.8" y="360.0" fill="#374151" font-size="10" text-anchor="middle">22:30</text><line x1="462.8" y1="316" x2="462.8" y2="320" stroke="#374151" stroke-width="1"/>
<text x="507.3" y="360.0" fill="#374151" font-size="10" text-anchor="middle">23:00</text><line x1="507.3" y1="316" x2="507.3" y2="320" stroke="#374151" stroke-width="1"/>
<text x="551.9" y="360.0" fill="#374151" font-size="10" text-anchor="middle">23:30</text><line x1="551.9" y1="316" x2="551.9" y2="320" stroke="#374151" stroke-width="1"/>
<text x="596.4" y="360.0" fill="#374151" font-size="10" text-anchor="middle">00:00</text><line x1="596.4" y1="316" x2="596.4" y2="320" stroke="#374151" stroke-width="1"/>
<text x="640.9" y="360.0" fill="#374151" font-size="10" text-anchor="middle">00:30</text><line x1="640.9" y1="316" x2="640.9" y2="320" stroke="#374151" stroke-width="1"/>
<text x="685.5" y="360.0" fill="#374151" font-size="10" text-anchor="middle">01:00</text><line x1="685.5" y1="316" x2="685.5" y2="320" stroke="#374151" stroke-width="1"/>
<text x="730.0" y="360.0" fill="#374151" font-size="10" text-anchor="middle">01:30</text><line x1="730.0" y1="316" x2="730.0" y2="320" stroke="#374151" stroke-width="1"/>
<text x="396" y="376" fill="#374151" font-size="11" text-anchor="middle">Time</text><text x="14" y="180" fill="#374151" font-size="11" text-anchor="middle" transform="rotate(-90,14,180)">BAC (%)</text>
<line x1="70" y1="54" x2="92" y2="54" stroke="#2563eb" stroke-width="2.5"/>
<text x="96" y="54" fill="#374151" font-size="10" dominant-baseline="middle">Main curve</text>
<line x1="70" y1="70" x2="92" y2="70" stroke="#9ca3af" stroke-width="2" stroke-dasharray="6,4"/>
<text x="96" y="70" fill="#374151" font-size="10" dominant-baseline="middle">Fasted (Ex. 1)</text>
<text x="380" y="20" fill="#111827" font-size="13" font-weight="bold" text-anchor="middle">Example 2 — Heavy meal at 18:30, drinks at 19:00 / 20:00 / 21:00</text>
<text x="730" y="54" fill="#6b7280" font-size="9" text-anchor="end">Profile: male, 70 kg, 175 cm · r=0.789 · βₘₐₓ=0.015 %/h · Kₘ=0.005 %</text>
</svg>
