<svg xmlns="http://www.w3.org/2000/svg" viewBox="0 0 760 380" width="760" height="380" font-family="system-ui,sans-serif">
<rect width="760" height="380" fill="#ffffff"/><rect x="62" y="44" width="668" height="272" fill="#f9fafb"/>
<line x1="62" y1="259.8" x2="730" y2="259.8" stroke="#e5e7eb" stroke-width="1"/>
<line x1="62" y1="203.6" x2="730" y2="203.6" stroke="#e5e7eb" stroke-width="1"/>
<line x1="62" y1="147.4" x2="730" y2="147.4" stroke="#e5e7eb" stroke-width="1"/>
<line x1="62" y1="91.2" x2="730" y2="91.2" stroke="#e5e7eb" stroke-width="1"/>
<line x1="106.5" y1="44" x2="106.5" y2="316" stroke="#e5e7eb" stroke-width="1"/>
<line x1="151.1" y1="44" x2="151.1" y2="316" stroke="#e5e7eb" stroke-width="1"/>
<line x1="195.6" y1="44" x2="195.6" y2="316" stroke="#e5e7eb" stroke-width="1"/>
<line x1="240.1" y1="44" x2="240.1" y2="316" stroke="#e5e7eb" stroke-width="1"/>
<line x1="284.7" y1="44" x2="284.7" y2="316" stroke="#e5e7eb" stroke-width="1"/>
<line x1="329.2" y1="44" x2="329.2" y2="316" stroke="#e5e7eb" stroke-width="1"/>
<line x1="373.7" y1="44" x2="373.7" y2="316" stroke="#e5e7eb" stroke-width="1"/>
<line x1="418.3" y1="44" x2="418.3" y2="316" stroke="#e5e7eb" stroke-width="1"/>
<line x1="462.8" y1="44" x2="462.8" y2="316" stroke="#e5e7eb" stroke-width="1"/>
<line x1="507.3" y1="44" x2="507.3" y2="316" stroke="#e5e7eb" stroke-width="1"/>
<line x1="551.9" y1="44" x2="551.9" y2="316" stroke="#e5e7eb" stroke-width="1"/>
<line x1="596.4" y1="44" x2="596.4" y2="316" stroke="#e5e7eb" stroke-width="1"/>
<line x1="640.9" y1="44" x2="640.9" y2="316" stroke="#e5e7eb" stroke-width="1"/>
<line x1="685.5" y1="44" x2="685.5" y2="316" stroke="#e5e7eb" stroke-width="1"/>
<line x1="730.0" y1="44" x2="730.0" y2="316" stroke="#e5e7eb" stroke-width="1"/>
<polyline points="62.0,316.0 63.5,316.0 65.0,316.0 66.5,316.0 67.9,316.0 69.4,316.0 70.9,316.0 72.4,316.0 73.9,316.0 75.4,316.0 76.8,316.0 78.3,316.0 79.8,316.0 81.3,316.0 82.8,316.0 84.3,316.0 85.8,316.0 87.2,316.0 88.7,316.0 90.2,316.0 91.7,316.0 93.2,316.0 94.7,316.0 96.1,316.0 97.6,316.0 99.1,316.0 100.6,316.0 102.1,316.0 103.6,316.0 105.0,316.0 106.5,316.0 108.0,312.8 109.5,309.6 111.0,306.5 112.5,303.4 114.0,300.4 115.4,297.4 116.9,294.5 118.4,291.5 119.9,288.6 121.4,285.8 122.9,282.9 124.3,280.1 125.8,277.3 127.3,274.6 128.8,271.8 130.3,269.1 131.8,266.4 133.3,263.7 134.7,261.0 136.2,258.3 137.7,255.7 139.2,253.1 140.7,250.5 142.2,247.9 143.6,245.3 145.1,242.7 146.6,240.2 148.1,237.6 149.6,235.1 151.1,232.6 152.6,230.0 154.0,227.5 155.5,225.0 157.0,222.6 158.5,220.1 160.0,217.6 161.5,215.2 162.9,212.7 164.4,210.3 165.9,207.9 167.4,205.4 168.9,203.0 170.4,200.6 171.8,198.2 173.3,195.8 174.8,196.6 176.3,197.5 177.8,198.3 179.3,199.1 180.8,199.9 182.2,200.7 183.7,201.6 185.2,202.4 186.7,203.2 188.2,204.0 189.7,204.8 191.1,205.6 192.6,206.4 194.1,207.2 195.6,208.0 197.1,208.7 198.6,209.5 200.1,210.3 201.5,211.1 203.0,211.9 204.5,212.7 206.0,213.4 207.5,214.2 209.0,215.0 210.4,215.7 211.9,216.5 213.4,217.3 214.9,218.0 216.4,218.8 217.9,219.5 219.4,220.3 220.8,221.0 222.3,221.8 223.8,222.5 225.3,223.2 226.8,224.0 228.3,224.7 229.7,225.4 231.2,226.2 232.7,226.9 234.2,227.6 235.7,228.3 237.2,229.1 238.6,229.8 240.1,230.5 241.6,229.7 243.1,228.9 244.6,228.2 246.1,227.4 247.6,226.7 249.0,225.9 250.5,225.2 252.0,224.4 253.5,223.7 255.0,222.9 256.5,222.2 257.9,221.4 259.4,220.7 260.9,220.0 262.4,219.2 263.9,218.5 265.4,217.8 266.9,217.1 268.3,216.4 269.8,215.6 271.3,214.9 272.8,214.2 274.3,213.5 275.8,212.8 277.2,212.1 278.7,211.4 280.2,210.7 281.7,210.0 283.2,209.3 284.7,208.6 286.2,207.9 287.6,207.2 289.1,206.5 290.6,205.9 292.1,205.2 293.6,204.5 295.1,203.8 296.5,203.1 298.0,202.5 299.5,201.8 301.0,201.1 302.5,200.5 304.0,199.8 305.4,199.1 306.9,198.5 308.4,197.8 309.9,197.2 311.4,196.5 312.9,195.9 314.4,195.2 315.8,194.6 317.3,193.9 318.8,193.3 320.3,192.6 321.8,192.0 323.3,191.3 324.7,190.7 326.2,190.1 327.7,189.4 329.2,188.8 330.7,186.7 332.2,184.6 333.7,182.5 335.1,180.4 336.6,178.3 338.1,176.2 339.6,174.1 341.1,172.1 342.6,170.0 344.0,167.9 345.5,165.9 347.0,163.8 348.5,161.8 350.0,159.7 351.5,157.7 353.0,155.6 354.4,153.6 355.9,151.6 357.4,149.5 358.9,147.5 360.4,145.5 361.9,143.5 363.3,141.5 364.8,139.5 366.3,137.5 367.8,135.5 369.3,133.5 370.8,131.5 372.2,129.5 373.7,127.5 375.2,127.0 376.7,126.5 378.2,126.0 379.7,125.5 381.2,125.0 382.6,124.5 384.1,124.0 385.6,123.5 387.1,123.0 388.6,122.5 390.1,122.0 391.5,121.5 393.0,121.0 394.5,120.5 396.0,120.0 397.5,119.5 399.0,119.0 400.5,118.5 401.9,118.0 403.4,117.5 404.9,117.0 406.4,116.5 407.9,116.0 409.4,115.6 410.8,115.1 412.3,114.6 413.8,114.1 415.3,113.6 416.8,113.1 418.3,112.6 419.8,112.1 421.2,111.7 422.7,111.2 424.2,110.7 425.7,110.2 427.2,109.7 428.7,109.3 430.1,108.8 431.6,108.3 433.1,107.8 434.6,107.3 436.1,106.9 437.6,106.4 439.0,105.9 440.5,105.4 442.0,105.0 443.5,104.5 445.0,104.0 446.5,103.6 448.0,103.1 449.4,102.6 450.9,102.1 452.4,101.7 453.9,101.2 455.4,100.7 456.9,100.3 458.3,99.8 459.8,99.3 461.3,98.9 462.8,98.4 464.3,99.4 465.8,100.4 467.3,101.4 468.7,102.4 470.2,103.5 471.7,104.5 473.2,105.5 474.7,106.5 476.2,107.5 477.6,108.5 479.1,109.5 480.6,110.5 482.1,111.5 483.6,112.5 485.1,113.4 486.6,114.4 488.0,115.4 489.5,116.4 491.0,117.4 492.5,118.4 494.0,119.4 495.5,120.4 496.9,121.3 498.4,122.3 499.9,123.3 501.4,124.3 502.9,125.3 504.4,126.2 505.8,127.2 507.3,128.2 508.8,129.1 510.3,130.1 511.8,131.1 513.3,132.0 514.8,133.0 516.2,134.0 517.7,134.9 519.2,135.9 520.7,136.8 522.2,137.8 523.7,138.8 525.1,139.7 526.6,140.7 528.1,141.6 529.6,142.6 531.1,143.5 532.6,144.4 534.1,145.4 535.5,146.3 537.0,147.3 538.5,148.2 540.0,149.1 541.5,150.1 543.0,151.0 544.4,151.9 545.9,152.9 547.4,153.8 548.9,154.7 550.4,155.6 551.9,156.6 553.4,157.5 554.8,158.4 556.3,159.3 557.8,160.2 559.3,161.1 560.8,162.0 562.3,163.0 563.7,163.9 565.2,164.8 566.7,165.7 568.2,166.6 569.7,167.5 571.2,168.4 572.6,169.3 574.1,170.1 575.6,171.0 577.1,171.9 578.6,172.8 580.1,173.7 581.6,174.6 583.0,175.5 584.5,176.3 586.0,177.2 587.5,178.1 589.0,179.0 590.5,179.8 591.9,180.7 593.4,181.6 594.9,182.4 596.4,183.3 597.9,184.1 599.4,185.0 600.9,185.9 602.3,186.7 603.8,187.6 605.3,188.4 606.8,189.3 608.3,190.1 609.8,190.9 611.2,191.8 612.7,192.6 614.2,193.5 615.7,194.3 617.2,195.1 618.7,195.9 620.2,196.8 621.6,197.6 623.1,198.4 624.6,199.2 626.1,200.0 627.6,200.9 629.1,201.7 630.5,202.5 632.0,203.3 633.5,204.1 635.0,204.9 636.5,205.7 638.0,206.5 639.4,207.3 640.9,208.1 642.4,208.9 643.9,209.6 645.4,210.4 646.9,211.2 648.4,212.0 649.8,212.8 651.3,213.5 652.8,214.3 654.3,215.1 655.8,215.8 657.3,216.6 658.7,217.4 660.2,218.1 661.7,218.9 663.2,219.6 664.7,220.4 666.2,221.1 667.7,221.9 669.1,222.6 670.6,223.4 672.1,224.1 673.6,224.8 675.1,225.6 676.6,226.3 678.0,227.0 679.5,227.7 681.0,228.4 682.5,229.2 684.0,229.9 685.5,230.6 687.0,231.3 688.4,232.0 689.9,232.7 691.4,233.4 692.9,234.1 694.4,234.8 695.9,235.5 697.3,236.2 698.8,236.8 700.3,237.5 701.8,238.2 703.3,238.9 704.8,239.5 706.2,240.2 707.7,240.9 709.2,241.5 710.7,242.2 712.2,242.9 713.7,243.5 715.2,244.2 716.6,244.8 718.1,245.4 719.6,246.1 721.1,246.7 722.6,247.4 724.1,248.0 725.5,248.6 727.0,249.2 728.5,249.9 730.0,250.5" fill="none" stroke="#2563eb" stroke-width="2.5"/>
<line x1="62" y1="316.0" x2="730" y2="316.0" stroke="#6b7280" stroke-width="1"/>
<line x1="195.6" y1="44" x2="195.6" y2="316" stroke="#16a34a" stroke-width="1.5" stroke-dasharray="4,3" opacity="0.7"/><rect x="183.6" y="322.0" width="24" height="16" rx="3" fill="#16a34a"/><text x="195.6" y="333.0" fill="white" font-size="10" font-weight="bold" text-anchor="middle">F</text><text x="195.6" y="38.0" fill="#16a34a" font-size="9" text-anchor="middle">Full meal</text>
<line x1="106.5" y1="310.0" x2="106.5" y2="322.0" stroke="#1d4ed8" stroke-width="2"/><text x="106.5" y="344.0" fill="#1d4ed8" font-size="9" text-anchor="middle">Wine 1
19:00</text>
<line x1="240.1" y1="310.0" x2="240.1" y2="322.0" stroke="#1d4ed8" stroke-width="2"/><text x="240.1" y="344.0" fill="#1d4ed8" font-size="9" text-anchor="middle">Wine 2
20:30</text>
<line x1="329.2" y1="310.0" x2="329.2" y2="322.0" stroke="#1d4ed8" stroke-width="2"/><text x="329.2" y="344.0" fill="#1d4ed8" font-size="9" text-anchor="middle">Wine 3
21:30</text>
<line x1="62" y1="44" x2="62" y2="316" stroke="#374151" stroke-width="1.5"/><line x1="62" y1="316" x2="730" y2="316" stroke="#374151" stroke-width="1.5"/>
<text x="57" y="316.0" fill="#374151" font-size="10" text-anchor="end" dominant-baseline="middle">0.00 %</text><line x1="59" y1="316.0" x2="62" y2="316.0" stroke="#374151" stroke-width="1"/>
<text x="57" y="259.8" fill="#374151" font-size="10" text-anchor="end" dominant-baseline="middle">0.01 %</text><line x1="59" y1="259.8" x2="62" y2="259.8" stroke="#374151" stroke-width="1"/>
<text x="57" y="203.6" fill="#374151" font-size="10" text-anchor="end" dominant-baseline="middle">0.02 %</text><line x1="59" y1="203.6" x2="62" y2="203.6" stroke="#374151" stroke-width="1"/>
<text x="57" y="147.4" fill="#374151" font-size="10" text-anchor="end" dominant-baseline="middle">0.03 %</text><line x1="59" y1="147.4" x2="62" y2="147.4" stroke="#374151" stroke-width="1"/>
<text x="57" y="91.2" fill="#374151" font-size="10" text-anchor="end" dominant-baseline="middle">0.04 %</text><line x1="59" y1="91.2" x2="62" y2="91.2" stroke="#374151" stroke-width="1"/>
<text x="106.5" y="360.0" fill="#374151" font-size="10" text-anchor="middle">19:00</text><line x1="106.5" y1="316" x2="106.5" y2="320" stroke="#374151" stroke-width="1"/>
<text x="151.1" y="360.0" fill="#374151" font-size="10" text-anchor="middle">19:30</text><line x1="151.1" y1="316" x2="151.1" y2="320" stroke="#374151" stroke-width="1"/>
<text x="195.6" y="360.0" fill="#374151" font-size="10" text-anchor="middle">20:00</text><line x1="195.6" y1="316" x2="195.6" y2="320" stroke="#374151" stroke-width="1"/>
<text x="240.1" y="360.0" fill="#374151" font-size="10" text-anchor="middle">20:30</text><line x1="240.1" y1="316" x2="240.1" y2="320" stroke="#374151" stroke-width="1"/>
<text x="284.7" y="360.0" fill="#374151" font-size="10" text-anchor="middle">21:00</text><line x1="284.7" y1="316" x2="284.7" y2="320" stroke="#374151" stroke-width="1"/>
<text x="329.2" y="360.0" fill="#374151" font-size="10" text-anchor="middle">21:30</text><line x1="329.2" y1="316" x2="329.2" y2="320" stroke="#374151" stroke-width="1"/>
<text x="373.7" y="360.0" fill="#374151" font-size="10" text-anchor="middle">22:00</text><line x1="373.7" y1="316" x2="373.7" y2="320" stroke="#374151" stroke-width="1"/>
<text x="418.3" y="360.0" fill="#374151" font-size="10" text-anchor="middle">22:30</text><line x1="418.3" y1="316" x2="418.3" y2="320" stroke="#374151" stroke-width="1"/>
<text x="462.8" y="360.0" fill="#374151" font-size="10" text-anchor="middle">23:00</text><line x1="462.8" y1="316" x2="462.8" y2="320" stroke="#374151" stroke-width="1"/>
<text x="507.3" y="360.0" fill="#374151" font-size="10" text-anchor="middle">23:30</text><line x1="507.3" y1="316" x2="507.3" y2="320" stroke="#374151" stroke-width="1"/>
<text x="551.9" y="360.0" fill="#374151" font-size="10" text-anchor="middle">00:00</text><line x1="551.9" y1="316" x2="551.9" y2="320" stroke="#374151" stroke-width="1"/>
<text x="596.4" y="360.0" fill="#374151" font-size="10" text-anchor="middle">00:30</text><line x1="596.4" y1="316" x2="596.4" y2="320" stroke="#374151" stroke-width="1"/>
<text x="640.9" y="360.0" fill="#374151" font-size="10" text-anchor="middle">01:00</text><line x1="640.9" y1="316" x2="640.9" y2="320" stroke="#374151" stroke-width="1"/>
<text x="685.5" y="360.0" fill="#374151" font-size="10" text-anchor="middle">01:30</text><line x1="685.5" y1="316" x2="685.5" y2="320" stroke="#374151" stroke-width="1"/>
<text x="730.0" y="360.0" fill="#374151" font-size="10" text-anchor="middle">02:00</text><line x1="730.0" y1="316" x2="730.0" y2="320" stroke="#374151" stroke-width="1"/>
<text x="396" y="376" fill="#374151" font-size="11" text-anchor="middle">Time</text><text x="14" y="180" fill="#374151" font-size="11" text-anchor="middle" transform="rotate(-90,14,180)">BAC (%)</text>
<line x1="70" y1="54" x2="92" y2="54" stroke="#2563eb" stroke-width="2.5"/>
<text x="96" y="54" fill="#374151" font-size="10" dominant-baseline="middle">Main curve</text>
<text x="380" y="20" fill="#111827" font-size="13" font-weight="bold" text-anchor="middle">Example 3 — Wine 1 (19:00) fully absorbed before meal (20:00): not covered</text>
<text x="730" y="54" fill="#6b7280" font-size="9" text-anchor="end">Profile: male, 70 kg, 175 cm · r=0.789 · βₘₐₓ=0.015 %/h · Kₘ=0.015 %</text>
</svg>
