<svg xmlns="http://www.w3.org/2000/svg" viewBox="0 0 760 380" width="760" height="380" font-family="system-ui,sans-serif">
<rect width="760" height="380" fill="#ffffff"/><rect x="62" y="44" width="668" height="272" fill="#f9fafb"/>
<line x1="62" y1="239.5" x2="730" y2="239.5" stroke="#e5e7eb" stroke-width="1"/>
<line x1="62" y1="163.0" x2="730" y2="163.0" stroke="#e5e7eb" stroke-width="1"/>
<line x1="62" y1="86.5" x2="730" y2="86.5" stroke="#e5e7eb" stroke-width="1"/>
<line x1="106.5" y1="44" x2="106.5" y2="316" stroke="#e5e7eb" stroke-width="1"/>
<line x1="151.1" y1="44" x2="151.1" y2="316" stroke="#e5e7eb" stroke-width="1"/>
<line x1="195.6" y1="44" x2="195.6" y2="316" stroke="#e5e7eb" stroke-width="1"/>
<line x1="240.1" y1="44" x2="240.1" y2="316" stroke="#e5e7eb" stroke-width="1"/>
<line x1="284.7" y1="44" x2="284.7" y2="316" stroke="#e5e7eb" stroke-width="1"/>
<line x1="329.2" y1="44" x2="329.2" y2="316" stroke="#e5e7eb" stroke-width="1"/>
<line x1="373.7" y1="44" x2="373.7" y2="316" stroke="#e5e7eb" stroke-width="1"/>
<line x1="418.3" y1="44" x2="418.3" y2="316" stroke="#e5e7eb" stroke-width="1"/>
<line x1="462.8" y1="44" x2="462.8" y2="316" stroke="#e5e7eb" stroke-width="1"/>
<line x1="507.3" y1="44" x2="507.3" y2="316" stroke="#e5e7eb" stroke-width="1"/>
<line x1="551.9" y1="44" x2="551.9" y2="316" stroke="#e5e7eb" stroke-width="1"/>
<line x1="596.4" y1="44" x2="596.4" y2="316" stroke="#e5e7eb" stroke-width="1"/>
<line x1="640.9" y1="44" x2="640.9" y2="316" stroke="#e5e7eb" stroke-width="1"/>
<line x1="685.5" y1="44" x2="685.5" y2="316" stroke="#e5e7eb" stroke-width="1"/>
<line x1="730.0" y1="44" x2="730.0" y2="316" stroke="#e5e7eb" stroke-width="1"/>
<polyline points="62.0,316.0 63.5,316.0 65.0,316.0 66.5,316.0 67.9,316.0 69.4,316.0 70.9,316.0 72.4,316.0 73.9,316.0 75.4,316.0 76.8,316.0 78.3,316.0 79.8,316.0 81.3,316.0 82.8,316.0 84.3,316.0 85.8,316.0 87.2,316.0 88.7,316.0 90.2,316.0 91.7,316.0 93.2,316.0 94.7,316.0 96.1,316.0 97.6,316.0 99.1,316.0 100.6,316.0 102.1,316.0 103.6,316.0 105.0,316.0 106.5,316.0 108.0,311.6 109.5,307.5 111.0,303.4 112.5,299.5 114.0,295.7 115.4,292.0 116.9,288.4 118.4,284.8 119.9,281.3 121.4,277.8 122.9,274.4 124.3,271.1 125.8,267.7 127.3,264.4 128.8,261.1 130.3,257.9 131.8,254.7 133.3,251.5 134.7,248.3 136.2,245.2 137.7,242.0 139.2,238.9 140.7,235.8 142.2,232.8 143.6,229.7 145.1,226.6 146.6,223.6 148.1,220.6 149.6,217.6 151.1,214.6 152.6,211.6 154.0,208.6 155.5,205.7 157.0,202.7 158.5,199.8 160.0,196.9 161.5,193.9 162.9,191.0 164.4,188.1 165.9,185.2 167.4,182.3 168.9,179.4 170.4,176.6 171.8,173.7 173.3,170.8 174.8,172.3 176.3,173.8 177.8,175.4 179.3,176.9 180.8,178.4 182.2,179.9 183.7,181.3 185.2,182.8 186.7,184.3 188.2,185.8 189.7,187.3 191.1,188.8 192.6,190.2 194.1,191.7 195.6,193.2 197.1,194.6 198.6,196.1 200.1,197.5 201.5,199.0 203.0,200.4 204.5,201.8 206.0,203.3 207.5,204.7 209.0,206.1 210.4,207.5 211.9,209.0 213.4,210.4 214.9,211.8 216.4,213.2 217.9,214.6 219.4,216.0 220.8,217.3 222.3,218.7 223.8,220.1 225.3,221.5 226.8,222.8 228.3,224.2 229.7,225.5 231.2,226.9 232.7,228.2 234.2,229.5 235.7,230.9 237.2,232.2 238.6,233.5 240.1,234.8 241.6,234.1 243.1,233.4 244.6,232.7 246.1,232.0 247.6,231.3 249.0,230.6 250.5,229.9 252.0,229.2 253.5,228.5 255.0,227.9 256.5,227.2 257.9,226.5 259.4,225.8 260.9,225.2 262.4,224.5 263.9,223.8 265.4,223.2 266.9,222.5 268.3,221.9 269.8,221.2 271.3,220.6 272.8,219.9 274.3,219.3 275.8,218.6 277.2,218.0 278.7,217.4 280.2,216.7 281.7,216.1 283.2,215.5 284.7,214.8 286.2,214.2 287.6,213.6 289.1,213.0 290.6,212.4 292.1,211.8 293.6,211.1 295.1,210.5 296.5,209.9 298.0,209.3 299.5,208.7 301.0,208.1 302.5,207.5 304.0,206.9 305.4,206.3 306.9,205.7 308.4,205.1 309.9,204.6 311.4,204.0 312.9,203.4 314.4,202.8 315.8,202.2 317.3,201.6 318.8,201.1 320.3,200.5 321.8,199.9 323.3,199.3 324.7,198.8 326.2,198.2 327.7,197.6 329.2,197.1 330.7,194.5 332.2,191.9 333.7,189.4 335.1,186.8 336.6,184.3 338.1,181.7 339.6,179.2 341.1,176.7 342.6,174.1 344.0,171.6 345.5,169.1 347.0,166.6 348.5,164.1 350.0,161.6 351.5,159.1 353.0,156.6 354.4,154.2 355.9,151.7 357.4,149.2 358.9,146.8 360.4,144.3 361.9,141.8 363.3,139.4 364.8,136.9 366.3,134.5 367.8,132.0 369.3,129.6 370.8,127.2 372.2,124.7 373.7,122.3 375.2,121.9 376.7,121.5 378.2,121.1 379.7,120.7 381.2,120.3 382.6,119.8 384.1,119.4 385.6,119.0 387.1,118.6 388.6,118.2 390.1,117.8 391.5,117.4 393.0,117.0 394.5,116.6 396.0,116.2 397.5,115.8 399.0,115.4 400.5,115.0 401.9,114.5 403.4,114.1 404.9,113.7 406.4,113.3 407.9,112.9 409.4,112.5 410.8,112.1 412.3,111.7 413.8,111.3 415.3,110.9 416.8,110.5 418.3,110.1 419.8,109.7 421.2,109.3 422.7,108.9 424.2,108.5 425.7,108.2 427.2,107.8 428.7,107.4 430.1,107.0 431.6,106.6 433.1,106.2 434.6,105.8 436.1,105.4 437.6,105.0 439.0,104.6 440.5,104.2 442.0,103.8 443.5,103.4 445.0,103.0 446.5,102.7 448.0,102.3 449.4,101.9 450.9,101.5 452.4,101.1 453.9,100.7 455.4,100.3 456.9,99.9 458.3,99.6 459.8,99.2 461.3,98.8 462.8,98.4 464.3,100.0 465.8,101.7 467.3,103.3 468.7,104.9 470.2,106.5 471.7,108.1 473.2,109.7 474.7,111.4 476.2,113.0 477.6,114.6 479.1,116.2 480.6,117.8 482.1,119.4 483.6,121.0 485.1,122.6 486.6,124.2 488.0,125.8 489.5,127.4 491.0,129.0 492.5,130.6 494.0,132.1 495.5,133.7 496.9,135.3 498.4,136.9 499.9,138.5 501.4,140.0 502.9,141.6 504.4,143.2 505.8,144.7 507.3,146.3 508.8,147.9 510.3,149.4 511.8,151.0 513.3,152.5 514.8,154.1 516.2,155.6 517.7,157.2 519.2,158.7 520.7,160.3 522.2,161.8 523.7,163.3 525.1,164.8 526.6,166.4 528.1,167.9 529.6,169.4 531.1,170.9 532.6,172.4 534.1,174.0 535.5,175.5 537.0,177.0 538.5,178.5 540.0,180.0 541.5,181.5 543.0,182.9 544.4,184.4 545.9,185.9 547.4,187.4 548.9,188.9 550.4,190.3 551.9,191.8 553.4,193.3 554.8,194.7 556.3,196.2 557.8,197.6 559.3,199.1 560.8,200.5 562.3,201.9 563.7,203.4 565.2,204.8 566.7,206.2 568.2,207.6 569.7,209.1 571.2,210.5 572.6,211.9 574.1,213.3 575.6,214.7 577.1,216.1 578.6,217.4 580.1,218.8 581.6,220.2 583.0,221.6 584.5,222.9 586.0,224.3 587.5,225.6 589.0,227.0 590.5,228.3 591.9,229.6 593.4,231.0 594.9,232.3 596.4,233.6 597.9,234.9 599.4,236.2 600.9,237.5 602.3,238.8 603.8,240.1 605.3,241.3 606.8,242.6 608.3,243.8 609.8,245.1 611.2,246.3 612.7,247.6 614.2,248.8 615.7,250.0 617.2,251.2 618.7,252.4 620.2,253.6 621.6,254.8 623.1,256.0 624.6,257.2 626.1,258.3 627.6,259.5 629.1,260.6 630.5,261.7 632.0,262.9 633.5,264.0 635.0,265.1 636.5,266.2 638.0,267.3 639.4,268.3 640.9,269.4 642.4,270.4 643.9,271.5 645.4,272.5 646.9,273.5 648.4,274.5 649.8,275.5 651.3,276.5 652.8,277.5 654.3,278.4 655.8,279.4 657.3,280.3 658.7,281.2 660.2,282.2 661.7,283.0 663.2,283.9 664.7,284.8 666.2,285.7 667.7,286.5 669.1,287.3 670.6,288.2 672.1,289.0 673.6,289.8 675.1,290.5 676.6,291.3 678.0,292.1 679.5,292.8 681.0,293.5 682.5,294.2 684.0,294.9 685.5,295.6 687.0,296.3 688.4,296.9 689.9,297.5 691.4,298.2 692.9,298.8 694.4,299.4 695.9,300.0 697.3,300.5 698.8,301.1 700.3,301.6 701.8,302.1 703.3,302.6 704.8,303.1 706.2,303.6 707.7,304.1 709.2,304.5 710.7,305.0 712.2,305.4 713.7,305.8 715.2,306.2 716.6,306.6 718.1,307.0 719.6,307.4 721.1,307.7 722.6,308.0 724.1,308.4 725.5,308.7 727.0,309.0 728.5,309.3 730.0,309.6" fill="none" stroke="#2563eb" stroke-width="2.5"/>
<line x1="62" y1="316.0" x2="730" y2="316.0" stroke="#6b7280" stroke-width="1"/>
<line x1="195.6" y1="44" x2="195.6" y2="316" stroke="#16a34a" stroke-width="1.5" stroke-dasharray="4,3" opacity="0.7"/><rect x="183.6" y="322.0" width="24" height="16" rx="3" fill="#16a34a"/><text x="195.6" y="333.0" fill="white" font-size="10" font-weight="bold" text-anchor="middle">F</text><text x="195.6" y="38.0" fill="#16a34a" font-size="9" text-anchor="middle">Full meal</text>
<line x1="106.5" y1="310.0" x2="106.5" y2="322.0" stroke="#1d4ed8" stroke-width="2"/><text x="106.5" y="344.0" fill="#1d4ed8" font-size="9" text-anchor="middle">Wine 1
19:00</text>
<line x1="240.1" y1="310.0" x2="240.1" y2="322.0" stroke="#1d4ed8" stroke-width="2"/><text x="240.1" y="344.0" fill="#1d4ed8" font-size="9" text-anchor="middle">Wine 2
20:30</text>
<line x1="329.2" y1="310.0" x2="329.2" y2="322.0" stroke="#1d4ed8" stroke-width="2"/><text x="329.2" y="344.0" fill="#1d4ed8" font-size="9" text-anchor="middle">Wine 3
21:30</text>
<line x1="62" y1="44" x2="62" y2="316" stroke="#374151" stroke-width="1.5"/><line x1="62" y1="316" x2="730" y2="316" stroke="#374151" stroke-width="1.5"/>
<text x="57" y="316.0" fill="#374151" font-size="10" text-anchor="end" dominant-baseline="middle">0.00 %</text><line x1="59" y1="316.0" x2="62" y2="316.0" stroke="#374151" stroke-width="1"/>
<text x="57" y="239.5" fill="#374151" font-size="10" text-anchor="end" dominant-baseline="middle">0.01 %</text><line x1="59" y1="239.5" x2="62" y2="239.5" stroke="#374151" stroke-width="1"/>
<text x="57" y="163.0" fill="#374151" font-size="10" text-anchor="end" dominant-baseline="middle">0.02 %</text><line x1="59" y1="163.0" x2="62" y2="163.0" stroke="#374151" stroke-width="1"/>
<text x="57" y="86.5" fill="#374151" font-size="10" text-anchor="end" dominant-baseline="middle">0.03 %</text><line x1="59" y1="86.5" x2="62" y2="86.5" stroke="#374151" stroke-width="1"/>
<text x="106.5" y="360.0" fill="#374151" font-size="10" text-anchor="middle">19:00</text><line x1="106.5" y1="316" x2="106.5" y2="320" stroke="#374151" stroke-width="1"/>
<text x="151.1" y="360.0" fill="#374151" font-size="10" text-anchor="middle">19:30</text><line x1="151.1" y1="316" x2="151.1" y2="320" stroke="#374151" stroke-width="1"/>
<text x="195.6" y="360.0" fill="#374151" font-size="10" text-anchor="middle">20:00</text><line x1="195.6" y1="316" x2="195.6" y2="320" stroke="#374151" stroke-width="1"/>
<text x="240.1" y="360.0" fill="#374151" font-size="10" text-anchor="middle">20:30</text><line x1="240.1" y1="316" x2="240.1" y2="320" stroke="#374151" stroke-width="1"/>
<text x="284.7" y="360.0" fill="#374151" font-size="10" text-anchor="middle">21:00</text><line x1="284.7" y1="316" x2="284.7" y2="320" stroke="#374151" stroke-width="1"/>
<text x="329.2" y="360.0" fill="#374151" font-size="10" text-anchor="middle">21:30</text><line x1="329.2" y1="316" x2="329.2" y2="320" stroke="#374151" stroke-width="1"/>
<text x="373.7" y="360.0" fill="#374151" font-size="10" text-anchor="middle">22:00</text><line x1="373.7" y1="316" x2="373.7" y2="320" stroke="#374151" stroke-width="1"/>
<text x="418.3" y="360.0" fill="#374151" font-size="10" text-anchor="middle">22:30</text><line x1="418.3" y1="316" x2="418.3" y2="320" stroke="#374151" stroke-width="1"/>
<text x="462.8" y="360.0" fill="#374151" font-size="10" text-anchor="middle">23:00</text><line x1="462.8" y1="316" x2="462.8" y2="320" stroke="#374151" stroke-width="1"/>
<text x="507.3" y="360.0" fill="#374151" font-size="10" text-anchor="middle">23:30</text><line x1="507.3" y1="316" x2="507.3" y2="320" stroke="#374151" stroke-width="1"/>
<text x="551.9" y="360.0" fill="#374151" font-size="10" text-anchor="middle">00:00</text><line x1="551.9" y1="316" x2="551.9" y2="320" stroke="#374151" stroke-width="1"/>
<text x="596.4" y="360.0" fill="#374151" font-size="10" text-anchor="middle">00:30</text><line x1="596.4" y1="316" x2="596.4" y2="320" stroke="#374151" stroke-width="1"/>
<text x="640.9" y="360.0" fill="#374151" font-size="10" text-anchor="middle">01:00</text><line x1="640.9" y1="316" x2="640.9" y2="320" stroke="#374151" stroke-width="1"/>
<text x="685.5" y="360.0" fill="#374151" font-size="10" text-anchor="middle">01:30</text><line x1="685.5" y1="316" x2="685.5" y2="320" stroke="#374151" stroke-width="1"/>
<text x="730.0" y="360.0" fill="#374151" font-size="10" text-anchor="middle">02:00</text><line x1="730.0" y1="316" x2="730.0" y2="320" stroke="#374151" stroke-width="1"/>
<text x="396" y="376" fill="#374151" font-size="11" text-anchor="middle">Time</text><text x="14" y="180" fill="#374151" font-size="11" text-anchor="middle" transform="rotate(-90,14,180)">BAC (%)</text>
<line x1="70" y1="54" x2="92" y2="54" stroke="#2563eb" stroke-width="2.5"/>
<text x="96" y="54" fill="#374151" font-size="10" dominant-baseline="middle">Main curve</text>
<text x="380" y="20" fill="#111827" font-size="13" font-weight="bold" text-anchor="middle">Example 3 — Wine 1 (19:00) fully absorbed before meal (20:00): not covered</text>
<text x="730" y="54" fill="#6b7280" font-size="9" text-anchor="end">Profile: male, 70 kg, 175 cm · r=0.789 · βₘₐₓ=0.015 %/h · Kₘ=0.005 %</text>
</svg>
