<svg xmlns="http://www.w3.org/2000/svg" viewBox="0 0 760 380" width="760" height="380" font-family="system-ui,sans-serif">
<rect width="760" height="380" fill="#ffffff"/><rect x="62" y="44" width="668" height="272" fill="#f9fafb"/>
<line x1="62" y1="212.9" x2="730" y2="212.9" stroke="#e5e7eb" stroke-width="1"/>
<line x1="62" y1="109.7" x2="730" y2="109.7" stroke="#e5e7eb" stroke-width="1"/>
<line x1="106.5" y1="44" x2="106.5" y2="316" stroke="#e5e7eb" stroke-width="1"/>
<line x1="151.1" y1="44" x2="151.1" y2="316" stroke="#e5e7eb" stroke-width="1"/>
<line x1="195.6" y1="44" x2="195.6" y2="316" stroke="#e5e7eb" stroke-width="1"/>
<line x1="240.1" y1="44" x2="240.1" y2="316" stroke="#e5e7eb" stroke-width="1"/>
<line x1="284.7" y1="44" x2="284.7" y2="316" stroke="#e5e7eb" stroke-width="1"/>
<line x1="329.2" y1="44" x2="329.2" y2="316" stroke="#e5e7eb" stroke-width="1"/>
<line x1="373.7" y1="44" x2="373.7" y2="316" stroke="#e5e7eb" stroke-width="1"/>
<line x1="418.3" y1="44" x2="418.3" y2="316" stroke="#e5e7eb" stroke-width="1"/>
<line x1="462.8" y1="44" x2="462.8" y2="316" stroke="#e5e7eb" stroke-width="1"/>
<line x1="507.3" y1="44" x2="507.3" y2="316" stroke="#e5e7eb" stroke-width="1"/>
<line x1="551.9" y1="44" x2="551.9" y2="316" stroke="#e5e7eb" stroke-width="1"/>
<line x1="596.4" y1="44" x2="596.4" y2="316" stroke="#e5e7eb" stroke-width="1"/>
<line x1="640.9" y1="44" x2="640.9" y2="316" stroke="#e5e7eb" stroke-width="1"/>
<line x1="685.5" y1="44" x2="685.5" y2="316" stroke="#e5e7eb" stroke-width="1"/>
<line x1="730.0" y1="44" x2="730.0" y2="316" stroke="#e5e7eb" stroke-width="1"/>
<line x1="62" y1="58.1" x2="730" y2="58.1" stroke="#d97706" stroke-width="1.2" stroke-dasharray="6,4"/><text x="734" y="58.1" fill="#d97706" font-size="10" dominant-baseline="middle">0.05 %</text>
<polyline points="62.0,316.0 63.5,313.1 65.0,310.2 66.5,307.3 67.9,304.5 69.4,301.7 70.9,299.0 72.4,296.2 73.9,293.6 75.4,290.9 76.8,288.3 78.3,285.7 79.8,283.1 81.3,280.5 82.8,278.0 84.3,275.5 85.8,272.9 87.2,270.5 88.7,268.0 90.2,265.5 91.7,263.1 93.2,260.7 94.7,258.3 96.1,255.9 97.6,253.5 99.1,251.1 100.6,248.8 102.1,246.4 103.6,244.1 105.0,241.8 106.5,239.4 108.0,237.1 109.5,234.8 111.0,232.5 112.5,230.3 114.0,228.0 115.4,225.7 116.9,223.5 118.4,221.2 119.9,219.0 121.4,216.8 122.9,214.6 124.3,212.3 125.8,210.1 127.3,207.9 128.8,205.7 130.3,206.5 131.8,207.2 133.3,208.0 134.7,208.7 136.2,209.5 137.7,210.2 139.2,211.0 140.7,211.7 142.2,212.5 143.6,213.2 145.1,213.9 146.6,214.7 148.1,215.4 149.6,216.1 151.1,216.9 152.6,217.6 154.0,218.3 155.5,219.0 157.0,219.7 158.5,220.5 160.0,221.2 161.5,221.9 162.9,222.6 164.4,223.3 165.9,224.0 167.4,224.7 168.9,225.4 170.4,226.1 171.8,226.8 173.3,227.5 174.8,228.2 176.3,228.9 177.8,229.5 179.3,230.2 180.8,230.9 182.2,231.6 183.7,232.2 185.2,232.9 186.7,233.6 188.2,234.2 189.7,234.9 191.1,235.6 192.6,236.2 194.1,236.9 195.6,237.5 197.1,236.8 198.6,236.1 200.1,235.4 201.5,234.7 203.0,234.0 204.5,233.3 206.0,232.6 207.5,232.0 209.0,231.3 210.4,230.6 211.9,229.9 213.4,229.2 214.9,228.6 216.4,227.9 217.9,227.2 219.4,226.6 220.8,225.9 222.3,225.2 223.8,224.6 225.3,223.9 226.8,223.3 228.3,222.6 229.7,222.0 231.2,221.3 232.7,220.7 234.2,220.0 235.7,219.4 237.2,218.7 238.6,218.1 240.1,217.5 241.6,216.8 243.1,216.2 244.6,215.6 246.1,214.9 247.6,214.3 249.0,213.7 250.5,213.1 252.0,212.5 253.5,211.8 255.0,211.2 256.5,210.6 257.9,210.0 259.4,209.4 260.9,208.8 262.4,208.2 263.9,207.6 265.4,207.0 266.9,206.4 268.3,205.8 269.8,205.2 271.3,204.6 272.8,204.0 274.3,203.4 275.8,202.8 277.2,202.2 278.7,201.6 280.2,201.0 281.7,200.4 283.2,199.9 284.7,199.3 286.2,197.3 287.6,195.4 289.1,193.5 290.6,191.6 292.1,189.6 293.6,187.7 295.1,185.8 296.5,183.9 298.0,182.0 299.5,180.1 301.0,178.2 302.5,176.4 304.0,174.5 305.4,172.6 306.9,170.7 308.4,168.9 309.9,167.0 311.4,165.1 312.9,163.3 314.4,161.4 315.8,159.6 317.3,157.7 318.8,155.9 320.3,154.0 321.8,152.2 323.3,150.3 324.7,148.5 326.2,146.7 327.7,144.9 329.2,143.0 330.7,142.6 332.2,142.1 333.7,141.6 335.1,141.2 336.6,140.7 338.1,140.3 339.6,139.8 341.1,139.3 342.6,138.9 344.0,138.4 345.5,138.0 347.0,137.5 348.5,137.1 350.0,136.6 351.5,136.1 353.0,135.7 354.4,135.2 355.9,134.8 357.4,134.3 358.9,133.9 360.4,133.4 361.9,133.0 363.3,132.5 364.8,132.1 366.3,131.6 367.8,131.2 369.3,130.7 370.8,130.3 372.2,129.8 373.7,129.4 375.2,129.0 376.7,128.5 378.2,128.1 379.7,127.6 381.2,127.2 382.6,126.7 384.1,126.3 385.6,125.9 387.1,125.4 388.6,125.0 390.1,124.5 391.5,124.1 393.0,123.7 394.5,123.2 396.0,122.8 397.5,122.4 399.0,121.9 400.5,121.5 401.9,121.1 403.4,120.6 404.9,120.2 406.4,119.8 407.9,119.3 409.4,118.9 410.8,118.5 412.3,118.1 413.8,117.6 415.3,117.2 416.8,116.8 418.3,116.3 419.8,117.3 421.2,118.2 422.7,119.1 424.2,120.0 425.7,121.0 427.2,121.9 428.7,122.8 430.1,123.7 431.6,124.7 433.1,125.6 434.6,126.5 436.1,127.4 437.6,128.3 439.0,129.2 440.5,130.1 442.0,131.1 443.5,132.0 445.0,132.9 446.5,133.8 448.0,134.7 449.4,135.6 450.9,136.5 452.4,137.4 453.9,138.3 455.4,139.2 456.9,140.1 458.3,141.0 459.8,141.9 461.3,142.8 462.8,143.7 464.3,144.6 465.8,145.4 467.3,146.3 468.7,147.2 470.2,148.1 471.7,149.0 473.2,149.9 474.7,150.7 476.2,151.6 477.6,152.5 479.1,153.4 480.6,154.2 482.1,155.1 483.6,156.0 485.1,156.9 486.6,157.7 488.0,158.6 489.5,159.5 491.0,160.3 492.5,161.2 494.0,162.0 495.5,162.9 496.9,163.8 498.4,164.6 499.9,165.5 501.4,166.3 502.9,167.2 504.4,168.0 505.8,168.9 507.3,169.7 508.8,170.5 510.3,171.4 511.8,172.2 513.3,173.1 514.8,173.9 516.2,174.7 517.7,175.6 519.2,176.4 520.7,177.2 522.2,178.1 523.7,178.9 525.1,179.7 526.6,180.5 528.1,181.4 529.6,182.2 531.1,183.0 532.6,183.8 534.1,184.6 535.5,185.4 537.0,186.2 538.5,187.0 540.0,187.9 541.5,188.7 543.0,189.5 544.4,190.3 545.9,191.1 547.4,191.9 548.9,192.6 550.4,193.4 551.9,194.2 553.4,195.0 554.8,195.8 556.3,196.6 557.8,197.4 559.3,198.2 560.8,198.9 562.3,199.7 563.7,200.5 565.2,201.3 566.7,202.0 568.2,202.8 569.7,203.6 571.2,204.3 572.6,205.1 574.1,205.8 575.6,206.6 577.1,207.4 578.6,208.1 580.1,208.9 581.6,209.6 583.0,210.4 584.5,211.1 586.0,211.8 587.5,212.6 589.0,213.3 590.5,214.1 591.9,214.8 593.4,215.5 594.9,216.2 596.4,217.0 597.9,217.7 599.4,218.4 600.9,219.1 602.3,219.9 603.8,220.6 605.3,221.3 606.8,222.0 608.3,222.7 609.8,223.4 611.2,224.1 612.7,224.8 614.2,225.5 615.7,226.2 617.2,226.9 618.7,227.6 620.2,228.3 621.6,229.0 623.1,229.6 624.6,230.3 626.1,231.0 627.6,231.7 629.1,232.3 630.5,233.0 632.0,233.7 633.5,234.3 635.0,235.0 636.5,235.7 638.0,236.3 639.4,237.0 640.9,237.6 642.4,238.3 643.9,238.9 645.4,239.6 646.9,240.2 648.4,240.8 649.8,241.5 651.3,242.1 652.8,242.7 654.3,243.4 655.8,244.0 657.3,244.6 658.7,245.2 660.2,245.8 661.7,246.5 663.2,247.1 664.7,247.7 666.2,248.3 667.7,248.9 669.1,249.5 670.6,250.1 672.1,250.7 673.6,251.3 675.1,251.9 676.6,252.4 678.0,253.0 679.5,253.6 681.0,254.2 682.5,254.7 684.0,255.3 685.5,255.9 687.0,256.4 688.4,257.0 689.9,257.6 691.4,258.1 692.9,258.7 694.4,259.2 695.9,259.8 697.3,260.3 698.8,260.8 700.3,261.4 701.8,261.9 703.3,262.4 704.8,263.0 706.2,263.5 707.7,264.0 709.2,264.5 710.7,265.1 712.2,265.6 713.7,266.1 715.2,266.6 716.6,267.1 718.1,267.6 719.6,268.1 721.1,268.6 722.6,269.1 724.1,269.5 725.5,270.0 727.0,270.5 728.5,271.0 730.0,271.5" fill="none" stroke="#9ca3af" stroke-width="2" stroke-dasharray="8,5"/>
<polyline points="62.0,316.0 63.5,316.0 65.0,316.0 66.5,316.0 67.9,316.0 69.4,316.0 70.9,316.0 72.4,316.0 73.9,316.0 75.4,316.0 76.8,316.0 78.3,316.0 79.8,316.0 81.3,316.0 82.8,316.0 84.3,316.0 85.8,316.0 87.2,316.0 88.7,316.0 90.2,316.0 91.7,316.0 93.2,316.0 94.7,316.0 96.1,316.0 97.6,316.0 99.1,316.0 100.6,316.0 102.1,316.0 103.6,316.0 105.0,316.0 106.5,316.0 108.0,314.6 109.5,313.3 111.0,312.0 112.5,310.7 114.0,309.4 115.4,308.2 116.9,306.9 118.4,305.7 119.9,304.5 121.4,303.3 122.9,302.2 124.3,301.0 125.8,299.8 127.3,298.7 128.8,297.6 130.3,296.5 131.8,295.4 133.3,294.3 134.7,293.2 136.2,292.2 137.7,291.1 139.2,290.1 140.7,289.0 142.2,288.0 143.6,287.0 145.1,286.0 146.6,285.0 148.1,284.0 149.6,283.0 151.1,282.1 152.6,281.1 154.0,280.2 155.5,279.2 157.0,278.3 158.5,277.3 160.0,276.4 161.5,275.5 162.9,274.6 164.4,273.7 165.9,272.8 167.4,271.9 168.9,271.0 170.4,270.1 171.8,269.2 173.3,268.4 174.8,267.5 176.3,266.6 177.8,265.8 179.3,264.9 180.8,264.1 182.2,263.3 183.7,262.4 185.2,261.6 186.7,260.8 188.2,260.0 189.7,259.1 191.1,258.3 192.6,257.5 194.1,256.7 195.6,255.9 197.1,253.8 198.6,251.6 200.1,249.5 201.5,247.4 203.0,245.3 204.5,243.2 206.0,241.1 207.5,239.0 209.0,237.0 210.4,234.9 211.9,232.9 213.4,230.8 214.9,228.8 216.4,226.8 217.9,224.7 219.4,222.7 220.8,220.7 222.3,218.7 223.8,216.7 225.3,214.7 226.8,212.8 228.3,210.8 229.7,208.8 231.2,206.9 232.7,204.9 234.2,202.9 235.7,201.0 237.2,199.1 238.6,197.1 240.1,195.2 241.6,194.6 243.1,194.1 244.6,193.5 246.1,192.9 247.6,192.4 249.0,191.8 250.5,191.2 252.0,190.7 253.5,190.1 255.0,189.6 256.5,189.0 257.9,188.5 259.4,187.9 260.9,187.3 262.4,186.8 263.9,186.2 265.4,185.7 266.9,185.2 268.3,184.6 269.8,184.1 271.3,183.5 272.8,183.0 274.3,182.4 275.8,181.9 277.2,181.4 278.7,180.8 280.2,180.3 281.7,179.8 283.2,179.2 284.7,178.7 286.2,176.8 287.6,174.9 289.1,173.0 290.6,171.2 292.1,169.3 293.6,167.4 295.1,165.6 296.5,163.7 298.0,161.8 299.5,160.0 301.0,158.1 302.5,156.3 304.0,154.5 305.4,152.6 306.9,150.8 308.4,149.0 309.9,147.1 311.4,145.3 312.9,143.5 314.4,141.6 315.8,139.8 317.3,138.0 318.8,136.2 320.3,134.4 321.8,132.6 323.3,130.8 324.7,129.0 326.2,127.2 327.7,125.4 329.2,123.6 330.7,123.2 332.2,122.7 333.7,122.3 335.1,121.8 336.6,121.4 338.1,121.0 339.6,120.5 341.1,120.1 342.6,119.7 344.0,119.3 345.5,118.8 347.0,118.4 348.5,118.0 350.0,117.5 351.5,117.1 353.0,116.7 354.4,116.3 355.9,115.8 357.4,115.4 358.9,115.0 360.4,114.6 361.9,114.1 363.3,113.7 364.8,113.3 366.3,112.9 367.8,112.4 369.3,112.0 370.8,111.6 372.2,111.2 373.7,110.8 375.2,110.3 376.7,109.9 378.2,109.5 379.7,109.1 381.2,108.7 382.6,108.3 384.1,107.8 385.6,107.4 387.1,107.0 388.6,106.6 390.1,106.2 391.5,105.8 393.0,105.3 394.5,104.9 396.0,104.5 397.5,104.1 399.0,103.7 400.5,103.3 401.9,102.9 403.4,102.5 404.9,102.1 406.4,101.7 407.9,101.2 409.4,100.8 410.8,100.4 412.3,100.0 413.8,99.6 415.3,99.2 416.8,98.8 418.3,98.4 419.8,99.4 421.2,100.3 422.7,101.3 424.2,102.2 425.7,103.1 427.2,104.1 428.7,105.0 430.1,106.0 431.6,106.9 433.1,107.9 434.6,108.8 436.1,109.7 437.6,110.7 439.0,111.6 440.5,112.5 442.0,113.5 443.5,114.4 445.0,115.3 446.5,116.3 448.0,117.2 449.4,118.1 450.9,119.1 452.4,120.0 453.9,120.9 455.4,121.8 456.9,122.8 458.3,123.7 459.8,124.6 461.3,125.5 462.8,126.4 464.3,127.3 465.8,128.3 467.3,129.2 468.7,130.1 470.2,131.0 471.7,131.9 473.2,132.8 474.7,133.7 476.2,134.6 477.6,135.5 479.1,136.4 480.6,137.3 482.1,138.2 483.6,139.1 485.1,140.0 486.6,140.9 488.0,141.8 489.5,142.7 491.0,143.6 492.5,144.5 494.0,145.4 495.5,146.3 496.9,147.2 498.4,148.0 499.9,148.9 501.4,149.8 502.9,150.7 504.4,151.6 505.8,152.4 507.3,153.3 508.8,154.2 510.3,155.1 511.8,155.9 513.3,156.8 514.8,157.7 516.2,158.5 517.7,159.4 519.2,160.3 520.7,161.1 522.2,162.0 523.7,162.8 525.1,163.7 526.6,164.6 528.1,165.4 529.6,166.3 531.1,167.1 532.6,168.0 534.1,168.8 535.5,169.6 537.0,170.5 538.5,171.3 540.0,172.2 541.5,173.0 543.0,173.8 544.4,174.7 545.9,175.5 547.4,176.3 548.9,177.2 550.4,178.0 551.9,178.8 553.4,179.7 554.8,180.5 556.3,181.3 557.8,182.1 559.3,182.9 560.8,183.8 562.3,184.6 563.7,185.4 565.2,186.2 566.7,187.0 568.2,187.8 569.7,188.6 571.2,189.4 572.6,190.2 574.1,191.0 575.6,191.8 577.1,192.6 578.6,193.4 580.1,194.2 581.6,195.0 583.0,195.8 584.5,196.5 586.0,197.3 587.5,198.1 589.0,198.9 590.5,199.7 591.9,200.4 593.4,201.2 594.9,202.0 596.4,202.7 597.9,203.5 599.4,204.3 600.9,205.0 602.3,205.8 603.8,206.6 605.3,207.3 606.8,208.1 608.3,208.8 609.8,209.6 611.2,210.3 612.7,211.0 614.2,211.8 615.7,212.5 617.2,213.3 618.7,214.0 620.2,214.7 621.6,215.5 623.1,216.2 624.6,216.9 626.1,217.6 627.6,218.4 629.1,219.1 630.5,219.8 632.0,220.5 633.5,221.2 635.0,221.9 636.5,222.7 638.0,223.4 639.4,224.1 640.9,224.8 642.4,225.5 643.9,226.2 645.4,226.8 646.9,227.5 648.4,228.2 649.8,228.9 651.3,229.6 652.8,230.3 654.3,230.9 655.8,231.6 657.3,232.3 658.7,233.0 660.2,233.6 661.7,234.3 663.2,235.0 664.7,235.6 666.2,236.3 667.7,236.9 669.1,237.6 670.6,238.2 672.1,238.9 673.6,239.5 675.1,240.2 676.6,240.8 678.0,241.4 679.5,242.1 681.0,242.7 682.5,243.3 684.0,244.0 685.5,244.6 687.0,245.2 688.4,245.8 689.9,246.4 691.4,247.0 692.9,247.6 694.4,248.2 695.9,248.8 697.3,249.4 698.8,250.0 700.3,250.6 701.8,251.2 703.3,251.8 704.8,252.4 706.2,253.0 707.7,253.6 709.2,254.1 710.7,254.7 712.2,255.3 713.7,255.8 715.2,256.4 716.6,257.0 718.1,257.5 719.6,258.1 721.1,258.6 722.6,259.2 724.1,259.7 725.5,260.3 727.0,260.8 728.5,261.3 730.0,261.9" fill="none" stroke="#2563eb" stroke-width="2.5"/>
<line x1="62" y1="316.0" x2="730" y2="316.0" stroke="#6b7280" stroke-width="1"/>
<line x1="151.1" y1="44" x2="151.1" y2="316" stroke="#16a34a" stroke-width="1.5" stroke-dasharray="4,3" opacity="0.7"/><rect x="139.1" y="322.0" width="24" height="16" rx="3" fill="#16a34a"/><text x="151.1" y="333.0" fill="white" font-size="10" font-weight="bold" text-anchor="middle">F</text><text x="151.1" y="38.0" fill="#16a34a" font-size="9" text-anchor="middle">Full meal</text>
<line x1="106.5" y1="310.0" x2="106.5" y2="322.0" stroke="#1d4ed8" stroke-width="2"/><text x="106.5" y="344.0" fill="#1d4ed8" font-size="9" text-anchor="middle">Wine 1
19:30</text>
<line x1="195.6" y1="310.0" x2="195.6" y2="322.0" stroke="#1d4ed8" stroke-width="2"/><text x="195.6" y="344.0" fill="#1d4ed8" font-size="9" text-anchor="middle">Wine 2
20:30</text>
<line x1="284.7" y1="310.0" x2="284.7" y2="322.0" stroke="#1d4ed8" stroke-width="2"/><text x="284.7" y="344.0" fill="#1d4ed8" font-size="9" text-anchor="middle">Wine 3
21:30</text>
<line x1="62" y1="44" x2="62" y2="316" stroke="#374151" stroke-width="1.5"/><line x1="62" y1="316" x2="730" y2="316" stroke="#374151" stroke-width="1.5"/>
<text x="57" y="316.0" fill="#374151" font-size="10" text-anchor="end" dominant-baseline="middle">0.00 %</text><line x1="59" y1="316.0" x2="62" y2="316.0" stroke="#374151" stroke-width="1"/>
<text x="57" y="212.9" fill="#374151" font-size="10" text-anchor="end" dominant-baseline="middle">0.02 %</text><line x1="59" y1="212.9" x2="62" y2="212.9" stroke="#374151" stroke-width="1"/>
<text x="57" y="109.7" fill="#374151" font-size="10" text-anchor="end" dominant-baseline="middle">0.04 %</text><line x1="59" y1="109.7" x2="62" y2="109.7" stroke="#374151" stroke-width="1"/>
<text x="106.5" y="360.0" fill="#374151" font-size="10" text-anchor="middle">19:30</text><line x1="106.5" y1="316" x2="106.5" y2="320" stroke="#374151" stroke-width="1"/>
<text x="151.1" y="360.0" fill="#374151" font-size="10" text-anchor="middle">20:00</text><line x1="151.1" y1="316" x2="151.1" y2="320" stroke="#374151" stroke-width="1"/>
<text x="195.6" y="360.0" fill="#374151" font-size="10" text-anchor="middle">20:30</text><line x1="195.6" y1="316" x2="195.6" y2="320" stroke="#374151" stroke-width="1"/>
<text x="240.1" y="360.0" fill="#374151" font-size="10" text-anchor="middle">21:00</text><line x1="240.1" y1="316" x2="240.1" y2="320" stroke="#374151" stroke-width="1"/>
<text x="284.7" y="360.0" fill="#374151" font-size="10" text-anchor="middle">21:30</text><line x1="284.7" y1="316" x2="284.7" y2="320" stroke="#374151" stroke-width="1"/>
<text x="329.2" y="360.0" fill="#374151" font-size="10" text-anchor="middle">22:00</text><line x1="329.2" y1="316" x2="329.2" y2="320" stroke="#374151" stroke-width="1"/>
<text x="373.7" y="360.0" fill="#374151" font-size="10" text-anchor="middle">22:30</text><line x1="373.7" y1="316" x2="373.7" y2="320" stroke="#374151" stroke-width="1"/>
<text x="418.3" y="360.0" fill="#374151" font-size="10" text-anchor="middle">23:00</text><line x1="418.3" y1="316" x2="418.3" y2="320" stroke="#374151" stroke-width="1"/>
<text x="462.8" y="360.0" fill="#374151" font-size="10" text-anchor="middle">23:30</text><line x1="462.8" y1="316" x2="462.8" y2="320" stroke="#374151" stroke-width="1"/>
<text x="507.3" y="360.0" fill="#374151" font-size="10" text-anchor="middle">00:00</text><line x1="507.3" y1="316" x2="507.3" y2="320" stroke="#374151" stroke-width="1"/>
<text x="551.9" y="360.0" fill="#374151" font-size="10" text-anchor="middle">00:30</text><line x1="551.9" y1="316" x2="551.9" y2="320" stroke="#374151" stroke-width="1"/>
<text x="596.4" y="360.0" fill="#374151" font-size="10" text-anchor="middle">01:00</text><line x1="596.4" y1="316" x2="596.4" y2="320" stroke="#374151" stroke-width="1"/>
<text x="640.9" y="360.0" fill="#374151" font-size="10" text-anchor="middle">01:30</text><line x1="640.9" y1="316" x2="640.9" y2="320" stroke="#374151" stroke-width="1"/>
<text x="685.5" y="360.0" fill="#374151" font-size="10" text-anchor="middle">02:00</text><line x1="685.5" y1="316" x2="685.5" y2="320" stroke="#374151" stroke-width="1"/>
<text x="730.0" y="360.0" fill="#374151" font-size="10" text-anchor="middle">02:30</text><line x1="730.0" y1="316" x2="730.0" y2="320" stroke="#374151" stroke-width="1"/>
<text x="396" y="376" fill="#374151" font-size="11" text-anchor="middle">Time</text><text x="14" y="180" fill="#374151" font-size="11" text-anchor="middle" transform="rotate(-90,14,180)">BAC (%)</text>
<line x1="70" y1="54" x2="92" y2="54" stroke="#2563eb" stroke-width="2.5"/>
<text x="96" y="54" fill="#374151" font-size="10" dominant-baseline="middle">Main curve</text>
<line x1="70" y1="70" x2="92" y2="70" stroke="#9ca3af" stroke-width="2" stroke-dasharray="6,4"/>
<text x="96" y="70" fill="#374151" font-size="10" dominant-baseline="middle">Ex. 3 (not covered)</text>
<text x="380" y="20" fill="#111827" font-size="13" font-weight="bold" text-anchor="middle">Example 4 — Wine 1 (19:30) still absorbing when meal arrives (20:00): covered</text>
<text x="730" y="54" fill="#6b7280" font-size="9" text-anchor="end">Profile: male, 70 kg, 175 cm · r=0.789 · βₘₐₓ=0.015 %/h · Kₘ=0.015 %</text>
</svg>
