<svg xmlns="http://www.w3.org/2000/svg" viewBox="0 0 760 380" width="760" height="380" font-family="system-ui,sans-serif">
<rect width="760" height="380" fill="#ffffff"/><rect x="62" y="44" width="668" height="272" fill="#f9fafb"/>
<line x1="62" y1="250.7" x2="730" y2="250.7" stroke="#e5e7eb" stroke-width="1"/>
<line x1="62" y1="185.5" x2="730" y2="185.5" stroke="#e5e7eb" stroke-width="1"/>
<line x1="62" y1="120.2" x2="730" y2="120.2" stroke="#e5e7eb" stroke-width="1"/>
<line x1="62" y1="55.0" x2="730" y2="55.0" stroke="#e5e7eb" stroke-width="1"/>
<line x1="106.5" y1="44" x2="106.5" y2="316" stroke="#e5e7eb" stroke-width="1"/>
<line x1="151.1" y1="44" x2="151.1" y2="316" stroke="#e5e7eb" stroke-width="1"/>
<line x1="195.6" y1="44" x2="195.6" y2="316" stroke="#e5e7eb" stroke-width="1"/>
<line x1="240.1" y1="44" x2="240.1" y2="316" stroke="#e5e7eb" stroke-width="1"/>
<line x1="284.7" y1="44" x2="284.7" y2="316" stroke="#e5e7eb" stroke-width="1"/>
<line x1="329.2" y1="44" x2="329.2" y2="316" stroke="#e5e7eb" stroke-width="1"/>
<line x1="373.7" y1="44" x2="373.7" y2="316" stroke="#e5e7eb" stroke-width="1"/>
<line x1="418.3" y1="44" x2="418.3" y2="316" stroke="#e5e7eb" stroke-width="1"/>
<line x1="462.8" y1="44" x2="462.8" y2="316" stroke="#e5e7eb" stroke-width="1"/>
<line x1="507.3" y1="44" x2="507.3" y2="316" stroke="#e5e7eb" stroke-width="1"/>
<line x1="551.9" y1="44" x2="551.9" y2="316" stroke="#e5e7eb" stroke-width="1"/>
<line x1="596.4" y1="44" x2="596.4" y2="316" stroke="#e5e7eb" stroke-width="1"/>
<line x1="640.9" y1="44" x2="640.9" y2="316" stroke="#e5e7eb" stroke-width="1"/>
<line x1="685.5" y1="44" x2="685.5" y2="316" stroke="#e5e7eb" stroke-width="1"/>
<line x1="730.0" y1="44" x2="730.0" y2="316" stroke="#e5e7eb" stroke-width="1"/>
<polyline points="62.0,316.0 63.5,312.3 65.0,308.7 66.5,305.3 67.9,302.0 69.4,298.7 70.9,295.6 72.4,292.4 73.9,289.4 75.4,286.4 76.8,283.5 78.3,280.5 79.8,277.7 81.3,274.8 82.8,272.0 84.3,269.2 85.8,266.4 87.2,263.7 88.7,261.0 90.2,258.3 91.7,255.6 93.2,252.9 94.7,250.3 96.1,247.6 97.6,245.0 99.1,242.4 100.6,239.8 102.1,237.2 103.6,234.6 105.0,232.1 106.5,229.5 108.0,227.0 109.5,224.4 111.0,221.9 112.5,219.4 114.0,216.9 115.4,214.4 116.9,211.9 118.4,209.4 119.9,206.9 121.4,204.4 122.9,202.0 124.3,199.5 125.8,197.0 127.3,194.6 128.8,192.2 130.3,193.4 131.8,194.7 133.3,196.0 134.7,197.3 136.2,198.6 137.7,199.9 139.2,201.1 140.7,202.4 142.2,203.7 143.6,204.9 145.1,206.2 146.6,207.5 148.1,208.7 149.6,210.0 151.1,211.2 152.6,212.4 154.0,213.7 155.5,214.9 157.0,216.2 158.5,217.4 160.0,218.6 161.5,219.8 162.9,221.1 164.4,222.3 165.9,223.5 167.4,224.7 168.9,225.9 170.4,227.1 171.8,228.3 173.3,229.5 174.8,230.7 176.3,231.8 177.8,233.0 179.3,234.2 180.8,235.3 182.2,236.5 183.7,237.7 185.2,238.8 186.7,240.0 188.2,241.1 189.7,242.2 191.1,243.4 192.6,244.5 194.1,245.6 195.6,246.7 197.1,246.1 198.6,245.5 200.1,244.9 201.5,244.3 203.0,243.7 204.5,243.1 206.0,242.6 207.5,242.0 209.0,241.4 210.4,240.8 211.9,240.2 213.4,239.7 214.9,239.1 216.4,238.5 217.9,237.9 219.4,237.4 220.8,236.8 222.3,236.3 223.8,235.7 225.3,235.1 226.8,234.6 228.3,234.0 229.7,233.5 231.2,232.9 232.7,232.4 234.2,231.9 235.7,231.3 237.2,230.8 238.6,230.2 240.1,229.7 241.6,229.2 243.1,228.6 244.6,228.1 246.1,227.6 247.6,227.1 249.0,226.6 250.5,226.0 252.0,225.5 253.5,225.0 255.0,224.5 256.5,224.0 257.9,223.5 259.4,222.9 260.9,222.4 262.4,221.9 263.9,221.4 265.4,220.9 266.9,220.4 268.3,219.9 269.8,219.4 271.3,218.9 272.8,218.4 274.3,217.9 275.8,217.5 277.2,217.0 278.7,216.5 280.2,216.0 281.7,215.5 283.2,215.0 284.7,214.5 286.2,212.3 287.6,210.2 289.1,208.0 290.6,205.8 292.1,203.6 293.6,201.5 295.1,199.3 296.5,197.1 298.0,195.0 299.5,192.8 301.0,190.7 302.5,188.6 304.0,186.4 305.4,184.3 306.9,182.2 308.4,180.1 309.9,177.9 311.4,175.8 312.9,173.7 314.4,171.6 315.8,169.5 317.3,167.4 318.8,165.3 320.3,163.2 321.8,161.2 323.3,159.1 324.7,157.0 326.2,154.9 327.7,152.8 329.2,150.8 330.7,150.4 332.2,150.1 333.7,149.7 335.1,149.4 336.6,149.0 338.1,148.7 339.6,148.3 341.1,148.0 342.6,147.6 344.0,147.3 345.5,146.9 347.0,146.6 348.5,146.2 350.0,145.9 351.5,145.5 353.0,145.2 354.4,144.8 355.9,144.5 357.4,144.1 358.9,143.8 360.4,143.5 361.9,143.1 363.3,142.8 364.8,142.4 366.3,142.1 367.8,141.7 369.3,141.4 370.8,141.1 372.2,140.7 373.7,140.4 375.2,140.0 376.7,139.7 378.2,139.4 379.7,139.0 381.2,138.7 382.6,138.4 384.1,138.0 385.6,137.7 387.1,137.3 388.6,137.0 390.1,136.7 391.5,136.3 393.0,136.0 394.5,135.7 396.0,135.3 397.5,135.0 399.0,134.7 400.5,134.3 401.9,134.0 403.4,133.7 404.9,133.3 406.4,133.0 407.9,132.7 409.4,132.3 410.8,132.0 412.3,131.7 413.8,131.4 415.3,131.0 416.8,130.7 418.3,130.4 419.8,131.8 421.2,133.1 422.7,134.5 424.2,135.9 425.7,137.3 427.2,138.7 428.7,140.1 430.1,141.4 431.6,142.8 433.1,144.2 434.6,145.5 436.1,146.9 437.6,148.3 439.0,149.6 440.5,151.0 442.0,152.4 443.5,153.7 445.0,155.1 446.5,156.5 448.0,157.8 449.4,159.2 450.9,160.5 452.4,161.9 453.9,163.2 455.4,164.5 456.9,165.9 458.3,167.2 459.8,168.6 461.3,169.9 462.8,171.2 464.3,172.6 465.8,173.9 467.3,175.2 468.7,176.5 470.2,177.9 471.7,179.2 473.2,180.5 474.7,181.8 476.2,183.1 477.6,184.4 479.1,185.8 480.6,187.1 482.1,188.4 483.6,189.7 485.1,191.0 486.6,192.2 488.0,193.5 489.5,194.8 491.0,196.1 492.5,197.4 494.0,198.7 495.5,200.0 496.9,201.2 498.4,202.5 499.9,203.8 501.4,205.0 502.9,206.3 504.4,207.5 505.8,208.8 507.3,210.0 508.8,211.3 510.3,212.5 511.8,213.8 513.3,215.0 514.8,216.3 516.2,217.5 517.7,218.7 519.2,219.9 520.7,221.1 522.2,222.4 523.7,223.6 525.1,224.8 526.6,226.0 528.1,227.2 529.6,228.4 531.1,229.6 532.6,230.7 534.1,231.9 535.5,233.1 537.0,234.3 538.5,235.4 540.0,236.6 541.5,237.7 543.0,238.9 544.4,240.0 545.9,241.2 547.4,242.3 548.9,243.5 550.4,244.6 551.9,245.7 553.4,246.8 554.8,247.9 556.3,249.0 557.8,250.1 559.3,251.2 560.8,252.3 562.3,253.4 563.7,254.5 565.2,255.5 566.7,256.6 568.2,257.6 569.7,258.7 571.2,259.7 572.6,260.7 574.1,261.8 575.6,262.8 577.1,263.8 578.6,264.8 580.1,265.8 581.6,266.8 583.0,267.8 584.5,268.7 586.0,269.7 587.5,270.7 589.0,271.6 590.5,272.6 591.9,273.5 593.4,274.4 594.9,275.3 596.4,276.2 597.9,277.1 599.4,278.0 600.9,278.9 602.3,279.8 603.8,280.6 605.3,281.5 606.8,282.3 608.3,283.1 609.8,284.0 611.2,284.8 612.7,285.6 614.2,286.3 615.7,287.1 617.2,287.9 618.7,288.6 620.2,289.4 621.6,290.1 623.1,290.8 624.6,291.6 626.1,292.3 627.6,292.9 629.1,293.6 630.5,294.3 632.0,294.9 633.5,295.6 635.0,296.2 636.5,296.8 638.0,297.4 639.4,298.0 640.9,298.6 642.4,299.2 643.9,299.7 645.4,300.3 646.9,300.8 648.4,301.3 649.8,301.8 651.3,302.3 652.8,302.8 654.3,303.3 655.8,303.7 657.3,304.2 658.7,304.6 660.2,305.0 661.7,305.4 663.2,305.8 664.7,306.2 666.2,306.6 667.7,307.0 669.1,307.3 670.6,307.7 672.1,308.0 673.6,308.3 675.1,308.6 676.6,308.9 678.0,309.2 679.5,309.5 681.0,309.8 682.5,310.0 684.0,310.3 685.5,310.5 687.0,310.8 688.4,311.0 689.9,311.2 691.4,311.4 692.9,311.6 694.4,311.8 695.9,312.0 697.3,312.2 698.8,312.3 700.3,312.5 701.8,312.7 703.3,312.8 704.8,313.0 706.2,313.1 707.7,313.2 709.2,313.4 710.7,313.5 712.2,313.6 713.7,313.7 715.2,313.8 716.6,313.9 718.1,314.0 719.6,314.1 721.1,314.2 722.6,314.3 724.1,314.4 725.5,314.4 727.0,314.5 728.5,314.6 730.0,314.7" fill="none" stroke="#9ca3af" stroke-width="2" stroke-dasharray="8,5"/>
<polyline points="62.0,316.0 63.5,316.0 65.0,316.0 66.5,316.0 67.9,316.0 69.4,316.0 70.9,316.0 72.4,316.0 73.9,316.0 75.4,316.0 76.8,316.0 78.3,316.0 79.8,316.0 81.3,316.0 82.8,316.0 84.3,316.0 85.8,316.0 87.2,316.0 88.7,316.0 90.2,316.0 91.7,316.0 93.2,316.0 94.7,316.0 96.1,316.0 97.6,316.0 99.1,316.0 100.6,316.0 102.1,316.0 103.6,316.0 105.0,316.0 106.5,316.0 108.0,314.3 109.5,312.7 111.0,311.1 112.5,309.6 114.0,308.1 115.4,306.7 116.9,305.4 118.4,304.1 119.9,302.8 121.4,301.5 122.9,300.3 124.3,299.1 125.8,298.0 127.3,296.9 128.8,295.7 130.3,294.6 131.8,293.6 133.3,292.5 134.7,291.5 136.2,290.5 137.7,289.5 139.2,288.5 140.7,287.5 142.2,286.6 143.6,285.6 145.1,284.7 146.6,283.8 148.1,282.9 149.6,282.0 151.1,281.1 152.6,280.2 154.0,279.4 155.5,278.5 157.0,277.7 158.5,276.8 160.0,276.0 161.5,275.2 162.9,274.4 164.4,273.6 165.9,272.8 167.4,272.0 168.9,271.2 170.4,270.5 171.8,269.7 173.3,268.9 174.8,268.2 176.3,267.4 177.8,266.7 179.3,266.0 180.8,265.2 182.2,264.5 183.7,263.8 185.2,263.1 186.7,262.4 188.2,261.7 189.7,261.0 191.1,260.3 192.6,259.6 194.1,258.9 195.6,258.2 197.1,255.9 198.6,253.5 200.1,251.1 201.5,248.8 203.0,246.4 204.5,244.1 206.0,241.8 207.5,239.5 209.0,237.2 210.4,235.0 211.9,232.7 213.4,230.4 214.9,228.2 216.4,225.9 217.9,223.7 219.4,221.5 220.8,219.3 222.3,217.1 223.8,214.8 225.3,212.7 226.8,210.5 228.3,208.3 229.7,206.1 231.2,203.9 232.7,201.8 234.2,199.6 235.7,197.4 237.2,195.3 238.6,193.1 240.1,191.0 241.6,190.6 243.1,190.2 244.6,189.7 246.1,189.3 247.6,188.9 249.0,188.5 250.5,188.1 252.0,187.7 253.5,187.2 255.0,186.8 256.5,186.4 257.9,186.0 259.4,185.6 260.9,185.2 262.4,184.8 263.9,184.4 265.4,183.9 266.9,183.5 268.3,183.1 269.8,182.7 271.3,182.3 272.8,181.9 274.3,181.5 275.8,181.1 277.2,180.7 278.7,180.3 280.2,179.9 281.7,179.5 283.2,179.1 284.7,178.7 286.2,176.6 287.6,174.5 289.1,172.4 290.6,170.3 292.1,168.2 293.6,166.1 295.1,164.0 296.5,161.9 298.0,159.8 299.5,157.8 301.0,155.7 302.5,153.6 304.0,151.5 305.4,149.5 306.9,147.4 308.4,145.3 309.9,143.3 311.4,141.2 312.9,139.2 314.4,137.1 315.8,135.0 317.3,133.0 318.8,131.0 320.3,128.9 321.8,126.9 323.3,124.8 324.7,122.8 326.2,120.8 327.7,118.7 329.2,116.7 330.7,116.4 332.2,116.1 333.7,115.8 335.1,115.4 336.6,115.1 338.1,114.8 339.6,114.5 341.1,114.2 342.6,113.9 344.0,113.6 345.5,113.3 347.0,113.0 348.5,112.6 350.0,112.3 351.5,112.0 353.0,111.7 354.4,111.4 355.9,111.1 357.4,110.8 358.9,110.5 360.4,110.2 361.9,109.9 363.3,109.6 364.8,109.3 366.3,108.9 367.8,108.6 369.3,108.3 370.8,108.0 372.2,107.7 373.7,107.4 375.2,107.1 376.7,106.8 378.2,106.5 379.7,106.2 381.2,105.9 382.6,105.6 384.1,105.3 385.6,105.0 387.1,104.7 388.6,104.4 390.1,104.1 391.5,103.8 393.0,103.5 394.5,103.2 396.0,102.9 397.5,102.6 399.0,102.3 400.5,102.0 401.9,101.7 403.4,101.4 404.9,101.1 406.4,100.8 407.9,100.5 409.4,100.2 410.8,99.9 412.3,99.6 413.8,99.3 415.3,99.0 416.8,98.7 418.3,98.4 419.8,99.8 421.2,101.2 422.7,102.7 424.2,104.1 425.7,105.5 427.2,106.9 428.7,108.3 430.1,109.7 431.6,111.1 433.1,112.5 434.6,113.9 436.1,115.3 437.6,116.7 439.0,118.1 440.5,119.5 442.0,120.9 443.5,122.3 445.0,123.7 446.5,125.1 448.0,126.5 449.4,127.9 450.9,129.3 452.4,130.7 453.9,132.1 455.4,133.5 456.9,134.9 458.3,136.2 459.8,137.6 461.3,139.0 462.8,140.4 464.3,141.8 465.8,143.1 467.3,144.5 468.7,145.9 470.2,147.2 471.7,148.6 473.2,150.0 474.7,151.3 476.2,152.7 477.6,154.1 479.1,155.4 480.6,156.8 482.1,158.1 483.6,159.5 485.1,160.8 486.6,162.2 488.0,163.5 489.5,164.9 491.0,166.2 492.5,167.5 494.0,168.9 495.5,170.2 496.9,171.6 498.4,172.9 499.9,174.2 501.4,175.5 502.9,176.9 504.4,178.2 505.8,179.5 507.3,180.8 508.8,182.1 510.3,183.4 511.8,184.8 513.3,186.1 514.8,187.4 516.2,188.7 517.7,190.0 519.2,191.3 520.7,192.6 522.2,193.8 523.7,195.1 525.1,196.4 526.6,197.7 528.1,199.0 529.6,200.3 531.1,201.5 532.6,202.8 534.1,204.1 535.5,205.3 537.0,206.6 538.5,207.8 540.0,209.1 541.5,210.3 543.0,211.6 544.4,212.8 545.9,214.1 547.4,215.3 548.9,216.5 550.4,217.8 551.9,219.0 553.4,220.2 554.8,221.4 556.3,222.6 557.8,223.9 559.3,225.1 560.8,226.3 562.3,227.5 563.7,228.6 565.2,229.8 566.7,231.0 568.2,232.2 569.7,233.4 571.2,234.5 572.6,235.7 574.1,236.9 575.6,238.0 577.1,239.2 578.6,240.3 580.1,241.5 581.6,242.6 583.0,243.7 584.5,244.8 586.0,246.0 587.5,247.1 589.0,248.2 590.5,249.3 591.9,250.4 593.4,251.5 594.9,252.6 596.4,253.6 597.9,254.7 599.4,255.8 600.9,256.8 602.3,257.9 603.8,258.9 605.3,260.0 606.8,261.0 608.3,262.0 609.8,263.0 611.2,264.0 612.7,265.0 614.2,266.0 615.7,267.0 617.2,268.0 618.7,269.0 620.2,269.9 621.6,270.9 623.1,271.8 624.6,272.8 626.1,273.7 627.6,274.6 629.1,275.5 630.5,276.4 632.0,277.3 633.5,278.2 635.0,279.1 636.5,280.0 638.0,280.8 639.4,281.7 640.9,282.5 642.4,283.3 643.9,284.1 645.4,285.0 646.9,285.7 648.4,286.5 649.8,287.3 651.3,288.1 652.8,288.8 654.3,289.6 655.8,290.3 657.3,291.0 658.7,291.7 660.2,292.4 661.7,293.1 663.2,293.8 664.7,294.4 666.2,295.1 667.7,295.7 669.1,296.3 670.6,297.0 672.1,297.6 673.6,298.2 675.1,298.7 676.6,299.3 678.0,299.8 679.5,300.4 681.0,300.9 682.5,301.4 684.0,301.9 685.5,302.4 687.0,302.9 688.4,303.4 689.9,303.8 691.4,304.3 692.9,304.7 694.4,305.1 695.9,305.5 697.3,305.9 698.8,306.3 700.3,306.7 701.8,307.0 703.3,307.4 704.8,307.7 706.2,308.1 707.7,308.4 709.2,308.7 710.7,309.0 712.2,309.3 713.7,309.6 715.2,309.8 716.6,310.1 718.1,310.3 719.6,310.6 721.1,310.8 722.6,311.0 724.1,311.3 725.5,311.5 727.0,311.7 728.5,311.8 730.0,312.0" fill="none" stroke="#2563eb" stroke-width="2.5"/>
<line x1="62" y1="316.0" x2="730" y2="316.0" stroke="#6b7280" stroke-width="1"/>
<line x1="151.1" y1="44" x2="151.1" y2="316" stroke="#16a34a" stroke-width="1.5" stroke-dasharray="4,3" opacity="0.7"/><rect x="139.1" y="322.0" width="24" height="16" rx="3" fill="#16a34a"/><text x="151.1" y="333.0" fill="white" font-size="10" font-weight="bold" text-anchor="middle">F</text><text x="151.1" y="38.0" fill="#16a34a" font-size="9" text-anchor="middle">Full meal</text>
<line x1="106.5" y1="310.0" x2="106.5" y2="322.0" stroke="#1d4ed8" stroke-width="2"/><text x="106.5" y="344.0" fill="#1d4ed8" font-size="9" text-anchor="middle">Wine 1
19:30</text>
<line x1="195.6" y1="310.0" x2="195.6" y2="322.0" stroke="#1d4ed8" stroke-width="2"/><text x="195.6" y="344.0" fill="#1d4ed8" font-size="9" text-anchor="middle">Wine 2
20:30</text>
<line x1="284.7" y1="310.0" x2="284.7" y2="322.0" stroke="#1d4ed8" stroke-width="2"/><text x="284.7" y="344.0" fill="#1d4ed8" font-size="9" text-anchor="middle">Wine 3
21:30</text>
<line x1="62" y1="44" x2="62" y2="316" stroke="#374151" stroke-width="1.5"/><line x1="62" y1="316" x2="730" y2="316" stroke="#374151" stroke-width="1.5"/>
<text x="57" y="316.0" fill="#374151" font-size="10" text-anchor="end" dominant-baseline="middle">0.00 %</text><line x1="59" y1="316.0" x2="62" y2="316.0" stroke="#374151" stroke-width="1"/>
<text x="57" y="250.7" fill="#374151" font-size="10" text-anchor="end" dominant-baseline="middle">0.01 %</text><line x1="59" y1="250.7" x2="62" y2="250.7" stroke="#374151" stroke-width="1"/>
<text x="57" y="185.5" fill="#374151" font-size="10" text-anchor="end" dominant-baseline="middle">0.02 %</text><line x1="59" y1="185.5" x2="62" y2="185.5" stroke="#374151" stroke-width="1"/>
<text x="57" y="120.2" fill="#374151" font-size="10" text-anchor="end" dominant-baseline="middle">0.03 %</text><line x1="59" y1="120.2" x2="62" y2="120.2" stroke="#374151" stroke-width="1"/>
<text x="57" y="55.0" fill="#374151" font-size="10" text-anchor="end" dominant-baseline="middle">0.04 %</text><line x1="59" y1="55.0" x2="62" y2="55.0" stroke="#374151" stroke-width="1"/>
<text x="106.5" y="360.0" fill="#374151" font-size="10" text-anchor="middle">19:30</text><line x1="106.5" y1="316" x2="106.5" y2="320" stroke="#374151" stroke-width="1"/>
<text x="151.1" y="360.0" fill="#374151" font-size="10" text-anchor="middle">20:00</text><line x1="151.1" y1="316" x2="151.1" y2="320" stroke="#374151" stroke-width="1"/>
<text x="195.6" y="360.0" fill="#374151" font-size="10" text-anchor="middle">20:30</text><line x1="195.6" y1="316" x2="195.6" y2="320" stroke="#374151" stroke-width="1"/>
<text x="240.1" y="360.0" fill="#374151" font-size="10" text-anchor="middle">21:00</text><line x1="240.1" y1="316" x2="240.1" y2="320" stroke="#374151" stroke-width="1"/>
<text x="284.7" y="360.0" fill="#374151" font-size="10" text-anchor="middle">21:30</text><line x1="284.7" y1="316" x2="284.7" y2="320" stroke="#374151" stroke-width="1"/>
<text x="329.2" y="360.0" fill="#374151" font-size="10" text-anchor="middle">22:00</text><line x1="329.2" y1="316" x2="329.2" y2="320" stroke="#374151" stroke-width="1"/>
<text x="373.7" y="360.0" fill="#374151" font-size="10" text-anchor="middle">22:30</text><line x1="373.7" y1="316" x2="373.7" y2="320" stroke="#374151" stroke-width="1"/>
<text x="418.3" y="360.0" fill="#374151" font-size="10" text-anchor="middle">23:00</text><line x1="418.3" y1="316" x2="418.3" y2="320" stroke="#374151" stroke-width="1"/>
<text x="462.8" y="360.0" fill="#374151" font-size="10" text-anchor="middle">23:30</text><line x1="462.8" y1="316" x2="462.8" y2="320" stroke="#374151" stroke-width="1"/>
<text x="507.3" y="360.0" fill="#374151" font-size="10" text-anchor="middle">00:00</text><line x1="507.3" y1="316" x2="507.3" y2="320" stroke="#374151" stroke-width="1"/>
<text x="551.9" y="360.0" fill="#374151" font-size="10" text-anchor="middle">00:30</text><line x1="551.9" y1="316" x2="551.9" y2="320" stroke="#374151" stroke-width="1"/>
<text x="596.4" y="360.0" fill="#374151" font-size="10" text-anchor="middle">01:00</text><line x1="596.4" y1="316" x2="596.4" y2="320" stroke="#374151" stroke-width="1"/>
<text x="640.9" y="360.0" fill="#374151" font-size="10" text-anchor="middle">01:30</text><line x1="640.9" y1="316" x2="640.9" y2="320" stroke="#374151" stroke-width="1"/>
<text x="685.5" y="360.0" fill="#374151" font-size="10" text-anchor="middle">02:00</text><line x1="685.5" y1="316" x2="685.5" y2="320" stroke="#374151" stroke-width="1"/>
<text x="730.0" y="360.0" fill="#374151" font-size="10" text-anchor="middle">02:30</text><line x1="730.0" y1="316" x2="730.0" y2="320" stroke="#374151" stroke-width="1"/>
<text x="396" y="376" fill="#374151" font-size="11" text-anchor="middle">Time</text><text x="14" y="180" fill="#374151" font-size="11" text-anchor="middle" transform="rotate(-90,14,180)">BAC (%)</text>
<line x1="70" y1="54" x2="92" y2="54" stroke="#2563eb" stroke-width="2.5"/>
<text x="96" y="54" fill="#374151" font-size="10" dominant-baseline="middle">Main curve</text>
<line x1="70" y1="70" x2="92" y2="70" stroke="#9ca3af" stroke-width="2" stroke-dasharray="6,4"/>
<text x="96" y="70" fill="#374151" font-size="10" dominant-baseline="middle">Ex. 3 (not covered)</text>
<text x="380" y="20" fill="#111827" font-size="13" font-weight="bold" text-anchor="middle">Example 4 — Wine 1 (19:30) still absorbing when meal arrives (20:00): covered</text>
<text x="730" y="54" fill="#6b7280" font-size="9" text-anchor="end">Profile: male, 70 kg, 175 cm · r=0.789 · βₘₐₓ=0.015 %/h · Kₘ=0.005 %</text>
</svg>
