<svg xmlns="http://www.w3.org/2000/svg" viewBox="0 0 760 380" width="760" height="380" font-family="system-ui,sans-serif">
<rect width="760" height="380" fill="#ffffff"/><rect x="62" y="44" width="668" height="272" fill="#f9fafb"/>
<line x1="62" y1="232.9" x2="730" y2="232.9" stroke="#e5e7eb" stroke-width="1"/>
<line x1="62" y1="149.7" x2="730" y2="149.7" stroke="#e5e7eb" stroke-width="1"/>
<line x1="62" y1="66.6" x2="730" y2="66.6" stroke="#e5e7eb" stroke-width="1"/>
<line x1="106.5" y1="44" x2="106.5" y2="316" stroke="#e5e7eb" stroke-width="1"/>
<line x1="151.1" y1="44" x2="151.1" y2="316" stroke="#e5e7eb" stroke-width="1"/>
<line x1="195.6" y1="44" x2="195.6" y2="316" stroke="#e5e7eb" stroke-width="1"/>
<line x1="240.1" y1="44" x2="240.1" y2="316" stroke="#e5e7eb" stroke-width="1"/>
<line x1="284.7" y1="44" x2="284.7" y2="316" stroke="#e5e7eb" stroke-width="1"/>
<line x1="329.2" y1="44" x2="329.2" y2="316" stroke="#e5e7eb" stroke-width="1"/>
<line x1="373.7" y1="44" x2="373.7" y2="316" stroke="#e5e7eb" stroke-width="1"/>
<line x1="418.3" y1="44" x2="418.3" y2="316" stroke="#e5e7eb" stroke-width="1"/>
<line x1="462.8" y1="44" x2="462.8" y2="316" stroke="#e5e7eb" stroke-width="1"/>
<line x1="507.3" y1="44" x2="507.3" y2="316" stroke="#e5e7eb" stroke-width="1"/>
<line x1="551.9" y1="44" x2="551.9" y2="316" stroke="#e5e7eb" stroke-width="1"/>
<line x1="596.4" y1="44" x2="596.4" y2="316" stroke="#e5e7eb" stroke-width="1"/>
<line x1="640.9" y1="44" x2="640.9" y2="316" stroke="#e5e7eb" stroke-width="1"/>
<line x1="685.5" y1="44" x2="685.5" y2="316" stroke="#e5e7eb" stroke-width="1"/>
<line x1="730.0" y1="44" x2="730.0" y2="316" stroke="#e5e7eb" stroke-width="1"/>
<line x1="62" y1="108.2" x2="730" y2="108.2" stroke="#d97706" stroke-width="1.2" stroke-dasharray="6,4"/><text x="734" y="108.2" fill="#d97706" font-size="10" dominant-baseline="middle">0.05 %</text>
<polyline points="62.0,316.0 63.5,316.0 65.0,316.0 66.5,316.0 67.9,316.0 69.4,316.0 70.9,316.0 72.4,316.0 73.9,316.0 75.4,316.0 76.8,316.0 78.3,316.0 79.8,316.0 81.3,316.0 82.8,316.0 84.3,316.0 85.8,316.0 87.2,316.0 88.7,316.0 90.2,316.0 91.7,316.0 93.2,316.0 94.7,316.0 96.1,316.0 97.6,316.0 99.1,316.0 100.6,316.0 102.1,316.0 103.6,316.0 105.0,316.0 106.5,316.0 108.0,313.6 109.5,311.3 111.0,309.0 112.5,306.7 114.0,304.5 115.4,302.3 116.9,300.1 118.4,297.9 119.9,295.8 121.4,293.6 122.9,291.5 124.3,289.5 125.8,287.4 127.3,285.4 128.8,283.3 130.3,281.3 131.8,279.3 133.3,277.3 134.7,275.3 136.2,273.4 137.7,271.4 139.2,269.5 140.7,267.5 142.2,265.6 143.6,263.7 145.1,261.8 146.6,259.9 148.1,258.0 149.6,256.2 151.1,254.3 152.6,252.4 154.0,250.6 155.5,248.7 157.0,246.9 158.5,245.1 160.0,243.3 161.5,241.4 162.9,239.6 164.4,237.8 165.9,236.0 167.4,234.2 168.9,232.5 170.4,230.7 171.8,228.9 173.3,227.1 174.8,227.7 176.3,228.3 177.8,229.0 179.3,229.6 180.8,230.2 182.2,230.8 183.7,231.4 185.2,232.0 186.7,232.6 188.2,233.2 189.7,233.7 191.1,234.3 192.6,234.9 194.1,235.5 195.6,236.1 197.1,234.3 198.6,232.5 200.1,230.7 201.5,229.0 203.0,227.2 204.5,225.4 206.0,223.7 207.5,221.9 209.0,220.2 210.4,218.4 211.9,216.7 213.4,214.9 214.9,213.2 216.4,211.5 217.9,209.8 219.4,208.0 220.8,206.3 222.3,204.6 223.8,202.9 225.3,201.2 226.8,199.5 228.3,197.8 229.7,196.1 231.2,194.4 232.7,192.7 234.2,191.0 235.7,189.4 237.2,187.7 238.6,186.0 240.1,184.3 241.6,182.7 243.1,181.0 244.6,179.3 246.1,177.7 247.6,176.0 249.0,174.3 250.5,172.7 252.0,171.0 253.5,169.4 255.0,167.7 256.5,166.1 257.9,164.5 259.4,162.8 260.9,161.2 262.4,159.6 263.9,160.3 265.4,161.0 266.9,161.8 268.3,162.5 269.8,163.3 271.3,164.0 272.8,164.7 274.3,165.5 275.8,166.2 277.2,166.9 278.7,167.7 280.2,168.4 281.7,169.1 283.2,169.9 284.7,170.6 286.2,168.9 287.6,167.3 289.1,165.7 290.6,164.0 292.1,162.4 293.6,160.7 295.1,159.1 296.5,157.5 298.0,155.8 299.5,154.2 301.0,152.6 302.5,151.0 304.0,149.3 305.4,147.7 306.9,146.1 308.4,144.5 309.9,142.9 311.4,141.3 312.9,139.7 314.4,138.1 315.8,136.5 317.3,134.8 318.8,133.2 320.3,131.6 321.8,130.0 323.3,128.4 324.7,126.9 326.2,125.3 327.7,123.7 329.2,122.1 330.7,120.5 332.2,118.9 333.7,117.3 335.1,115.7 336.6,114.1 338.1,112.6 339.6,111.0 341.1,109.4 342.6,107.8 344.0,106.3 345.5,104.7 347.0,103.1 348.5,101.5 350.0,100.0 351.5,98.4 353.0,99.2 354.4,100.0 355.9,100.8 357.4,101.6 358.9,102.4 360.4,103.2 361.9,104.0 363.3,104.8 364.8,105.6 366.3,106.4 367.8,107.2 369.3,108.0 370.8,108.8 372.2,109.6 373.7,110.4 375.2,111.2 376.7,112.0 378.2,112.8 379.7,113.6 381.2,114.4 382.6,115.2 384.1,116.0 385.6,116.8 387.1,117.6 388.6,118.4 390.1,119.2 391.5,120.0 393.0,120.8 394.5,121.5 396.0,122.3 397.5,123.1 399.0,123.9 400.5,124.7 401.9,125.5 403.4,126.2 404.9,127.0 406.4,127.8 407.9,128.6 409.4,129.4 410.8,130.2 412.3,130.9 413.8,131.7 415.3,132.5 416.8,133.3 418.3,134.0 419.8,134.8 421.2,135.6 422.7,136.4 424.2,137.1 425.7,137.9 427.2,138.7 428.7,139.4 430.1,140.2 431.6,141.0 433.1,141.7 434.6,142.5 436.1,143.3 437.6,144.0 439.0,144.8 440.5,145.6 442.0,146.3 443.5,147.1 445.0,147.8 446.5,148.6 448.0,149.3 449.4,150.1 450.9,150.9 452.4,151.6 453.9,152.4 455.4,153.1 456.9,153.9 458.3,154.6 459.8,155.4 461.3,156.1 462.8,156.9 464.3,157.6 465.8,158.4 467.3,159.1 468.7,159.8 470.2,160.6 471.7,161.3 473.2,162.1 474.7,162.8 476.2,163.5 477.6,164.3 479.1,165.0 480.6,165.8 482.1,166.5 483.6,167.2 485.1,168.0 486.6,168.7 488.0,169.4 489.5,170.1 491.0,170.9 492.5,171.6 494.0,172.3 495.5,173.1 496.9,173.8 498.4,174.5 499.9,175.2 501.4,175.9 502.9,176.7 504.4,177.4 505.8,178.1 507.3,178.8 508.8,179.5 510.3,180.2 511.8,181.0 513.3,181.7 514.8,182.4 516.2,183.1 517.7,183.8 519.2,184.5 520.7,185.2 522.2,185.9 523.7,186.6 525.1,187.3 526.6,188.0 528.1,188.7 529.6,189.4 531.1,190.1 532.6,190.8 534.1,191.5 535.5,192.2 537.0,192.9 538.5,193.6 540.0,194.2 541.5,194.9 543.0,195.6 544.4,196.3 545.9,197.0 547.4,197.7 548.9,198.4 550.4,199.0 551.9,199.7 553.4,200.4 554.8,201.1 556.3,201.7 557.8,202.4 559.3,203.1 560.8,203.7 562.3,204.4 563.7,205.1 565.2,205.7 566.7,206.4 568.2,207.1 569.7,207.7 571.2,208.4 572.6,209.1 574.1,209.7 575.6,210.4 577.1,211.0 578.6,211.7 580.1,212.3 581.6,213.0 583.0,213.6 584.5,214.3 586.0,214.9 587.5,215.5 589.0,216.2 590.5,216.8 591.9,217.5 593.4,218.1 594.9,218.7 596.4,219.4 597.9,220.0 599.4,220.6 600.9,221.3 602.3,221.9 603.8,222.5 605.3,223.1 606.8,223.8 608.3,224.4 609.8,225.0 611.2,225.6 612.7,226.2 614.2,226.8 615.7,227.5 617.2,228.1 618.7,228.7 620.2,229.3 621.6,229.9 623.1,230.5 624.6,231.1 626.1,231.7 627.6,232.3 629.1,232.9 630.5,233.5 632.0,234.1 633.5,234.7 635.0,235.2 636.5,235.8 638.0,236.4 639.4,237.0 640.9,237.6 642.4,238.2 643.9,238.7 645.4,239.3 646.9,239.9 648.4,240.5 649.8,241.0 651.3,241.6 652.8,242.2 654.3,242.7 655.8,243.3 657.3,243.8 658.7,244.4 660.2,245.0 661.7,245.5 663.2,246.1 664.7,246.6 666.2,247.2 667.7,247.7 669.1,248.2 670.6,248.8 672.1,249.3 673.6,249.9 675.1,250.4 676.6,250.9 678.0,251.5 679.5,252.0 681.0,252.5 682.5,253.0 684.0,253.6 685.5,254.1 687.0,254.6 688.4,255.1 689.9,255.6 691.4,256.1 692.9,256.6 694.4,257.2 695.9,257.7 697.3,258.2 698.8,258.7 700.3,259.2 701.8,259.7 703.3,260.1 704.8,260.6 706.2,261.1 707.7,261.6 709.2,262.1 710.7,262.6 712.2,263.1 713.7,263.5 715.2,264.0 716.6,264.5 718.1,265.0 719.6,265.4 721.1,265.9 722.6,266.3 724.1,266.8 725.5,267.3 727.0,267.7 728.5,268.2 730.0,268.6" fill="none" stroke="#9ca3af" stroke-width="2" stroke-dasharray="8,5"/>
<polyline points="62.0,316.0 63.5,316.0 65.0,316.0 66.5,316.0 67.9,316.0 69.4,316.0 70.9,316.0 72.4,316.0 73.9,316.0 75.4,316.0 76.8,316.0 78.3,316.0 79.8,316.0 81.3,316.0 82.8,316.0 84.3,316.0 85.8,316.0 87.2,316.0 88.7,316.0 90.2,316.0 91.7,316.0 93.2,316.0 94.7,316.0 96.1,316.0 97.6,316.0 99.1,316.0 100.6,316.0 102.1,316.0 103.6,316.0 105.0,316.0 106.5,316.0 108.0,314.3 109.5,312.6 111.0,310.9 112.5,309.2 114.0,307.6 115.4,306.0 116.9,304.4 118.4,302.9 119.9,301.3 121.4,299.8 122.9,298.3 124.3,296.8 125.8,295.3 127.3,293.8 128.8,292.4 130.3,290.9 131.8,289.5 133.3,288.1 134.7,286.7 136.2,285.3 137.7,283.9 139.2,282.5 140.7,281.2 142.2,279.8 143.6,278.5 145.1,277.1 146.6,275.8 148.1,274.5 149.6,273.2 151.1,271.8 152.6,270.6 154.0,269.3 155.5,268.0 157.0,266.7 158.5,265.4 160.0,264.2 161.5,262.9 162.9,261.7 164.4,260.4 165.9,259.2 167.4,258.0 168.9,256.7 170.4,255.5 171.8,254.3 173.3,253.1 174.8,251.9 176.3,250.7 177.8,249.5 179.3,248.3 180.8,247.1 182.2,245.9 183.7,244.7 185.2,243.6 186.7,242.4 188.2,241.2 189.7,240.1 191.1,238.9 192.6,237.8 194.1,236.6 195.6,235.5 197.1,234.3 198.6,233.2 200.1,232.0 201.5,230.9 203.0,229.8 204.5,228.7 206.0,227.5 207.5,226.4 209.0,225.3 210.4,224.2 211.9,223.1 213.4,222.0 214.9,220.9 216.4,219.8 217.9,218.7 219.4,217.6 220.8,216.5 222.3,215.4 223.8,214.3 225.3,213.2 226.8,212.1 228.3,211.1 229.7,210.0 231.2,208.9 232.7,207.8 234.2,206.8 235.7,205.7 237.2,204.6 238.6,203.6 240.1,202.5 241.6,201.5 243.1,200.4 244.6,199.4 246.1,198.3 247.6,197.3 249.0,196.2 250.5,195.2 252.0,194.1 253.5,193.1 255.0,192.0 256.5,191.0 257.9,190.0 259.4,188.9 260.9,187.9 262.4,186.9 263.9,185.9 265.4,184.8 266.9,183.8 268.3,182.8 269.8,181.8 271.3,180.7 272.8,179.7 274.3,178.7 275.8,177.7 277.2,176.7 278.7,175.7 280.2,174.7 281.7,173.7 283.2,172.7 284.7,171.7 286.2,170.0 287.6,168.4 289.1,166.7 290.6,165.1 292.1,163.4 293.6,161.8 295.1,160.2 296.5,158.5 298.0,156.9 299.5,155.3 301.0,153.6 302.5,152.0 304.0,150.4 305.4,148.8 306.9,147.2 308.4,145.5 309.9,143.9 311.4,142.3 312.9,140.7 314.4,139.1 315.8,137.5 317.3,135.9 318.8,134.3 320.3,132.7 321.8,131.1 323.3,129.5 324.7,127.9 326.2,126.3 327.7,124.7 329.2,123.1 330.7,121.5 332.2,119.9 333.7,118.3 335.1,116.8 336.6,115.2 338.1,113.6 339.6,112.0 341.1,110.4 342.6,108.9 344.0,107.3 345.5,105.7 347.0,104.1 348.5,102.6 350.0,101.0 351.5,99.4 353.0,100.2 354.4,101.0 355.9,101.8 357.4,102.6 358.9,103.4 360.4,104.2 361.9,105.0 363.3,105.9 364.8,106.7 366.3,107.5 367.8,108.3 369.3,109.1 370.8,109.9 372.2,110.6 373.7,111.4 375.2,112.2 376.7,113.0 378.2,113.8 379.7,114.6 381.2,115.4 382.6,116.2 384.1,117.0 385.6,117.8 387.1,118.6 388.6,119.4 390.1,120.2 391.5,121.0 393.0,121.7 394.5,122.5 396.0,123.3 397.5,124.1 399.0,124.9 400.5,125.7 401.9,126.4 403.4,127.2 404.9,128.0 406.4,128.8 407.9,129.6 409.4,130.4 410.8,131.1 412.3,131.9 413.8,132.7 415.3,133.5 416.8,134.2 418.3,135.0 419.8,135.8 421.2,136.6 422.7,137.3 424.2,138.1 425.7,138.9 427.2,139.6 428.7,140.4 430.1,141.2 431.6,141.9 433.1,142.7 434.6,143.5 436.1,144.2 437.6,145.0 439.0,145.7 440.5,146.5 442.0,147.3 443.5,148.0 445.0,148.8 446.5,149.5 448.0,150.3 449.4,151.1 450.9,151.8 452.4,152.6 453.9,153.3 455.4,154.1 456.9,154.8 458.3,155.6 459.8,156.3 461.3,157.1 462.8,157.8 464.3,158.5 465.8,159.3 467.3,160.0 468.7,160.8 470.2,161.5 471.7,162.3 473.2,163.0 474.7,163.7 476.2,164.5 477.6,165.2 479.1,165.9 480.6,166.7 482.1,167.4 483.6,168.1 485.1,168.9 486.6,169.6 488.0,170.3 489.5,171.1 491.0,171.8 492.5,172.5 494.0,173.2 495.5,174.0 496.9,174.7 498.4,175.4 499.9,176.1 501.4,176.8 502.9,177.6 504.4,178.3 505.8,179.0 507.3,179.7 508.8,180.4 510.3,181.1 511.8,181.8 513.3,182.6 514.8,183.3 516.2,184.0 517.7,184.7 519.2,185.4 520.7,186.1 522.2,186.8 523.7,187.5 525.1,188.2 526.6,188.9 528.1,189.6 529.6,190.3 531.1,191.0 532.6,191.7 534.1,192.4 535.5,193.0 537.0,193.7 538.5,194.4 540.0,195.1 541.5,195.8 543.0,196.5 544.4,197.2 545.9,197.8 547.4,198.5 548.9,199.2 550.4,199.9 551.9,200.6 553.4,201.2 554.8,201.9 556.3,202.6 557.8,203.3 559.3,203.9 560.8,204.6 562.3,205.3 563.7,205.9 565.2,206.6 566.7,207.2 568.2,207.9 569.7,208.6 571.2,209.2 572.6,209.9 574.1,210.5 575.6,211.2 577.1,211.8 578.6,212.5 580.1,213.1 581.6,213.8 583.0,214.4 584.5,215.1 586.0,215.7 587.5,216.4 589.0,217.0 590.5,217.6 591.9,218.3 593.4,218.9 594.9,219.5 596.4,220.2 597.9,220.8 599.4,221.4 600.9,222.0 602.3,222.7 603.8,223.3 605.3,223.9 606.8,224.5 608.3,225.2 609.8,225.8 611.2,226.4 612.7,227.0 614.2,227.6 615.7,228.2 617.2,228.8 618.7,229.4 620.2,230.0 621.6,230.6 623.1,231.2 624.6,231.8 626.1,232.4 627.6,233.0 629.1,233.6 630.5,234.2 632.0,234.8 633.5,235.4 635.0,236.0 636.5,236.6 638.0,237.1 639.4,237.7 640.9,238.3 642.4,238.9 643.9,239.5 645.4,240.0 646.9,240.6 648.4,241.2 649.8,241.7 651.3,242.3 652.8,242.9 654.3,243.4 655.8,244.0 657.3,244.5 658.7,245.1 660.2,245.6 661.7,246.2 663.2,246.7 664.7,247.3 666.2,247.8 667.7,248.4 669.1,248.9 670.6,249.5 672.1,250.0 673.6,250.5 675.1,251.1 676.6,251.6 678.0,252.1 679.5,252.6 681.0,253.2 682.5,253.7 684.0,254.2 685.5,254.7 687.0,255.2 688.4,255.8 689.9,256.3 691.4,256.8 692.9,257.3 694.4,257.8 695.9,258.3 697.3,258.8 698.8,259.3 700.3,259.8 701.8,260.3 703.3,260.8 704.8,261.3 706.2,261.7 707.7,262.2 709.2,262.7 710.7,263.2 712.2,263.7 713.7,264.1 715.2,264.6 716.6,265.1 718.1,265.5 719.6,266.0 721.1,266.5 722.6,266.9 724.1,267.4 725.5,267.8 727.0,268.3 728.5,268.7 730.0,269.2" fill="none" stroke="#2563eb" stroke-width="2.5"/>
<line x1="62" y1="316.0" x2="730" y2="316.0" stroke="#6b7280" stroke-width="1"/>
<line x1="151.1" y1="44" x2="151.1" y2="316" stroke="#16a34a" stroke-width="1.5" stroke-dasharray="4,3" opacity="0.7"/><rect x="139.1" y="322.0" width="24" height="16" rx="3" fill="#16a34a"/><text x="151.1" y="333.0" fill="white" font-size="10" font-weight="bold" text-anchor="middle">S</text><text x="151.1" y="38.0" fill="#16a34a" font-size="9" text-anchor="middle">Snack</text>
<line x1="106.5" y1="310.0" x2="106.5" y2="322.0" stroke="#1d4ed8" stroke-width="2"/><text x="106.5" y="344.0" fill="#1d4ed8" font-size="9" text-anchor="middle">Wine 1
19:00</text>
<line x1="195.6" y1="310.0" x2="195.6" y2="322.0" stroke="#1d4ed8" stroke-width="2"/><text x="195.6" y="344.0" fill="#1d4ed8" font-size="9" text-anchor="middle">Wine 2
20:00</text>
<line x1="284.7" y1="310.0" x2="284.7" y2="322.0" stroke="#1d4ed8" stroke-width="2"/><text x="284.7" y="344.0" fill="#1d4ed8" font-size="9" text-anchor="middle">Wine 3
21:00</text>
<line x1="62" y1="44" x2="62" y2="316" stroke="#374151" stroke-width="1.5"/><line x1="62" y1="316" x2="730" y2="316" stroke="#374151" stroke-width="1.5"/>
<text x="57" y="316.0" fill="#374151" font-size="10" text-anchor="end" dominant-baseline="middle">0.00 %</text><line x1="59" y1="316.0" x2="62" y2="316.0" stroke="#374151" stroke-width="1"/>
<text x="57" y="232.9" fill="#374151" font-size="10" text-anchor="end" dominant-baseline="middle">0.02 %</text><line x1="59" y1="232.9" x2="62" y2="232.9" stroke="#374151" stroke-width="1"/>
<text x="57" y="149.7" fill="#374151" font-size="10" text-anchor="end" dominant-baseline="middle">0.04 %</text><line x1="59" y1="149.7" x2="62" y2="149.7" stroke="#374151" stroke-width="1"/>
<text x="57" y="66.6" fill="#374151" font-size="10" text-anchor="end" dominant-baseline="middle">0.06 %</text><line x1="59" y1="66.6" x2="62" y2="66.6" stroke="#374151" stroke-width="1"/>
<text x="106.5" y="360.0" fill="#374151" font-size="10" text-anchor="middle">19:00</text><line x1="106.5" y1="316" x2="106.5" y2="320" stroke="#374151" stroke-width="1"/>
<text x="151.1" y="360.0" fill="#374151" font-size="10" text-anchor="middle">19:30</text><line x1="151.1" y1="316" x2="151.1" y2="320" stroke="#374151" stroke-width="1"/>
<text x="195.6" y="360.0" fill="#374151" font-size="10" text-anchor="middle">20:00</text><line x1="195.6" y1="316" x2="195.6" y2="320" stroke="#374151" stroke-width="1"/>
<text x="240.1" y="360.0" fill="#374151" font-size="10" text-anchor="middle">20:30</text><line x1="240.1" y1="316" x2="240.1" y2="320" stroke="#374151" stroke-width="1"/>
<text x="284.7" y="360.0" fill="#374151" font-size="10" text-anchor="middle">21:00</text><line x1="284.7" y1="316" x2="284.7" y2="320" stroke="#374151" stroke-width="1"/>
<text x="329.2" y="360.0" fill="#374151" font-size="10" text-anchor="middle">21:30</text><line x1="329.2" y1="316" x2="329.2" y2="320" stroke="#374151" stroke-width="1"/>
<text x="373.7" y="360.0" fill="#374151" font-size="10" text-anchor="middle">22:00</text><line x1="373.7" y1="316" x2="373.7" y2="320" stroke="#374151" stroke-width="1"/>
<text x="418.3" y="360.0" fill="#374151" font-size="10" text-anchor="middle">22:30</text><line x1="418.3" y1="316" x2="418.3" y2="320" stroke="#374151" stroke-width="1"/>
<text x="462.8" y="360.0" fill="#374151" font-size="10" text-anchor="middle">23:00</text><line x1="462.8" y1="316" x2="462.8" y2="320" stroke="#374151" stroke-width="1"/>
<text x="507.3" y="360.0" fill="#374151" font-size="10" text-anchor="middle">23:30</text><line x1="507.3" y1="316" x2="507.3" y2="320" stroke="#374151" stroke-width="1"/>
<text x="551.9" y="360.0" fill="#374151" font-size="10" text-anchor="middle">00:00</text><line x1="551.9" y1="316" x2="551.9" y2="320" stroke="#374151" stroke-width="1"/>
<text x="596.4" y="360.0" fill="#374151" font-size="10" text-anchor="middle">00:30</text><line x1="596.4" y1="316" x2="596.4" y2="320" stroke="#374151" stroke-width="1"/>
<text x="640.9" y="360.0" fill="#374151" font-size="10" text-anchor="middle">01:00</text><line x1="640.9" y1="316" x2="640.9" y2="320" stroke="#374151" stroke-width="1"/>
<text x="685.5" y="360.0" fill="#374151" font-size="10" text-anchor="middle">01:30</text><line x1="685.5" y1="316" x2="685.5" y2="320" stroke="#374151" stroke-width="1"/>
<text x="730.0" y="360.0" fill="#374151" font-size="10" text-anchor="middle">02:00</text><line x1="730.0" y1="316" x2="730.0" y2="320" stroke="#374151" stroke-width="1"/>
<text x="396" y="376" fill="#374151" font-size="11" text-anchor="middle">Time</text><text x="14" y="180" fill="#374151" font-size="11" text-anchor="middle" transform="rotate(-90,14,180)">BAC (%)</text>
<line x1="70" y1="54" x2="92" y2="54" stroke="#2563eb" stroke-width="2.5"/>
<text x="96" y="54" fill="#374151" font-size="10" dominant-baseline="middle">Main curve</text>
<line x1="70" y1="70" x2="92" y2="70" stroke="#9ca3af" stroke-width="2" stroke-dasharray="6,4"/>
<text x="96" y="70" fill="#374151" font-size="10" dominant-baseline="middle">Fasted (Ex. 1)</text>
<text x="380" y="20" fill="#111827" font-size="13" font-weight="bold" text-anchor="middle">Example 5 — Snack at 19:30: Wines 1 & 2 covered, Wine 3 fasted</text>
<text x="730" y="54" fill="#6b7280" font-size="9" text-anchor="end">Profile: male, 70 kg, 175 cm · r=0.789 · βₘₐₓ=0.015 %/h · Kₘ=0.015 %</text>
</svg>
