<svg xmlns="http://www.w3.org/2000/svg" viewBox="0 0 760 380" width="760" height="380" font-family="system-ui,sans-serif">
<rect width="760" height="380" fill="#ffffff"/><rect x="62" y="44" width="668" height="272" fill="#f9fafb"/>
<line x1="62" y1="219.5" x2="730" y2="219.5" stroke="#e5e7eb" stroke-width="1"/>
<line x1="62" y1="123.0" x2="730" y2="123.0" stroke="#e5e7eb" stroke-width="1"/>
<line x1="106.5" y1="44" x2="106.5" y2="316" stroke="#e5e7eb" stroke-width="1"/>
<line x1="151.1" y1="44" x2="151.1" y2="316" stroke="#e5e7eb" stroke-width="1"/>
<line x1="195.6" y1="44" x2="195.6" y2="316" stroke="#e5e7eb" stroke-width="1"/>
<line x1="240.1" y1="44" x2="240.1" y2="316" stroke="#e5e7eb" stroke-width="1"/>
<line x1="284.7" y1="44" x2="284.7" y2="316" stroke="#e5e7eb" stroke-width="1"/>
<line x1="329.2" y1="44" x2="329.2" y2="316" stroke="#e5e7eb" stroke-width="1"/>
<line x1="373.7" y1="44" x2="373.7" y2="316" stroke="#e5e7eb" stroke-width="1"/>
<line x1="418.3" y1="44" x2="418.3" y2="316" stroke="#e5e7eb" stroke-width="1"/>
<line x1="462.8" y1="44" x2="462.8" y2="316" stroke="#e5e7eb" stroke-width="1"/>
<line x1="507.3" y1="44" x2="507.3" y2="316" stroke="#e5e7eb" stroke-width="1"/>
<line x1="551.9" y1="44" x2="551.9" y2="316" stroke="#e5e7eb" stroke-width="1"/>
<line x1="596.4" y1="44" x2="596.4" y2="316" stroke="#e5e7eb" stroke-width="1"/>
<line x1="640.9" y1="44" x2="640.9" y2="316" stroke="#e5e7eb" stroke-width="1"/>
<line x1="685.5" y1="44" x2="685.5" y2="316" stroke="#e5e7eb" stroke-width="1"/>
<line x1="730.0" y1="44" x2="730.0" y2="316" stroke="#e5e7eb" stroke-width="1"/>
<line x1="62" y1="74.7" x2="730" y2="74.7" stroke="#d97706" stroke-width="1.2" stroke-dasharray="6,4"/><text x="734" y="74.7" fill="#d97706" font-size="10" dominant-baseline="middle">0.05 %</text>
<polyline points="62.0,316.0 63.5,316.0 65.0,316.0 66.5,316.0 67.9,316.0 69.4,316.0 70.9,316.0 72.4,316.0 73.9,316.0 75.4,316.0 76.8,316.0 78.3,316.0 79.8,316.0 81.3,316.0 82.8,316.0 84.3,316.0 85.8,316.0 87.2,316.0 88.7,316.0 90.2,316.0 91.7,316.0 93.2,316.0 94.7,316.0 96.1,316.0 97.6,316.0 99.1,316.0 100.6,316.0 102.1,316.0 103.6,316.0 105.0,316.0 106.5,316.0 108.0,313.2 109.5,310.6 111.0,308.1 112.5,305.6 114.0,303.2 115.4,300.9 116.9,298.6 118.4,296.3 119.9,294.1 121.4,291.9 122.9,289.8 124.3,287.6 125.8,285.5 127.3,283.5 128.8,281.4 130.3,279.3 131.8,277.3 133.3,275.3 134.7,273.3 136.2,271.3 137.7,269.3 139.2,267.4 140.7,265.4 142.2,263.5 143.6,261.6 145.1,259.6 146.6,257.7 148.1,255.8 149.6,253.9 151.1,252.0 152.6,250.2 154.0,248.3 155.5,246.4 157.0,244.5 158.5,242.7 160.0,240.8 161.5,239.0 162.9,237.2 164.4,235.3 165.9,233.5 167.4,231.7 168.9,229.9 170.4,228.0 171.8,226.2 173.3,224.4 174.8,225.4 176.3,226.3 177.8,227.3 179.3,228.2 180.8,229.2 182.2,230.1 183.7,231.1 185.2,232.0 186.7,232.9 188.2,233.9 189.7,234.8 191.1,235.7 192.6,236.7 194.1,237.6 195.6,238.5 197.1,236.7 198.6,234.8 200.1,233.0 201.5,231.2 203.0,229.4 204.5,227.6 206.0,225.7 207.5,223.9 209.0,222.1 210.4,220.3 211.9,218.5 213.4,216.8 214.9,215.0 216.4,213.2 217.9,211.4 219.4,209.6 220.8,207.9 222.3,206.1 223.8,204.3 225.3,202.5 226.8,200.8 228.3,199.0 229.7,197.3 231.2,195.5 232.7,193.8 234.2,192.0 235.7,190.3 237.2,188.5 238.6,186.8 240.1,185.0 241.6,183.3 243.1,181.6 244.6,179.8 246.1,178.1 247.6,176.4 249.0,174.6 250.5,172.9 252.0,171.2 253.5,169.5 255.0,167.7 256.5,166.0 257.9,164.3 259.4,162.6 260.9,160.9 262.4,159.2 263.9,160.2 265.4,161.2 266.9,162.3 268.3,163.3 269.8,164.4 271.3,165.4 272.8,166.5 274.3,167.5 275.8,168.5 277.2,169.6 278.7,170.6 280.2,171.6 281.7,172.7 283.2,173.7 284.7,174.7 286.2,173.0 287.6,171.3 289.1,169.6 290.6,167.8 292.1,166.1 293.6,164.4 295.1,162.7 296.5,161.0 298.0,159.3 299.5,157.5 301.0,155.8 302.5,154.1 304.0,152.4 305.4,150.7 306.9,149.0 308.4,147.3 309.9,145.6 311.4,143.9 312.9,142.2 314.4,140.5 315.8,138.8 317.3,137.1 318.8,135.4 320.3,133.7 321.8,132.0 323.3,130.3 324.7,128.6 326.2,127.0 327.7,125.3 329.2,123.6 330.7,121.9 332.2,120.2 333.7,118.5 335.1,116.8 336.6,115.2 338.1,113.5 339.6,111.8 341.1,110.1 342.6,108.4 344.0,106.8 345.5,105.1 347.0,103.4 348.5,101.7 350.0,100.1 351.5,98.4 353.0,99.5 354.4,100.6 355.9,101.7 357.4,102.7 358.9,103.8 360.4,104.9 361.9,106.0 363.3,107.1 364.8,108.2 366.3,109.2 367.8,110.3 369.3,111.4 370.8,112.5 372.2,113.6 373.7,114.6 375.2,115.7 376.7,116.8 378.2,117.9 379.7,118.9 381.2,120.0 382.6,121.1 384.1,122.2 385.6,123.2 387.1,124.3 388.6,125.4 390.1,126.4 391.5,127.5 393.0,128.6 394.5,129.7 396.0,130.7 397.5,131.8 399.0,132.9 400.5,133.9 401.9,135.0 403.4,136.1 404.9,137.1 406.4,138.2 407.9,139.2 409.4,140.3 410.8,141.4 412.3,142.4 413.8,143.5 415.3,144.5 416.8,145.6 418.3,146.7 419.8,147.7 421.2,148.8 422.7,149.8 424.2,150.9 425.7,151.9 427.2,153.0 428.7,154.0 430.1,155.1 431.6,156.1 433.1,157.2 434.6,158.2 436.1,159.3 437.6,160.3 439.0,161.4 440.5,162.4 442.0,163.4 443.5,164.5 445.0,165.5 446.5,166.6 448.0,167.6 449.4,168.6 450.9,169.7 452.4,170.7 453.9,171.8 455.4,172.8 456.9,173.8 458.3,174.8 459.8,175.9 461.3,176.9 462.8,177.9 464.3,179.0 465.8,180.0 467.3,181.0 468.7,182.0 470.2,183.1 471.7,184.1 473.2,185.1 474.7,186.1 476.2,187.1 477.6,188.2 479.1,189.2 480.6,190.2 482.1,191.2 483.6,192.2 485.1,193.2 486.6,194.2 488.0,195.2 489.5,196.2 491.0,197.2 492.5,198.2 494.0,199.2 495.5,200.2 496.9,201.2 498.4,202.2 499.9,203.2 501.4,204.2 502.9,205.2 504.4,206.2 505.8,207.2 507.3,208.2 508.8,209.2 510.3,210.2 511.8,211.1 513.3,212.1 514.8,213.1 516.2,214.1 517.7,215.1 519.2,216.0 520.7,217.0 522.2,218.0 523.7,218.9 525.1,219.9 526.6,220.9 528.1,221.8 529.6,222.8 531.1,223.7 532.6,224.7 534.1,225.7 535.5,226.6 537.0,227.6 538.5,228.5 540.0,229.5 541.5,230.4 543.0,231.3 544.4,232.3 545.9,233.2 547.4,234.1 548.9,235.1 550.4,236.0 551.9,236.9 553.4,237.9 554.8,238.8 556.3,239.7 557.8,240.6 559.3,241.5 560.8,242.4 562.3,243.4 563.7,244.3 565.2,245.2 566.7,246.1 568.2,247.0 569.7,247.9 571.2,248.7 572.6,249.6 574.1,250.5 575.6,251.4 577.1,252.3 578.6,253.1 580.1,254.0 581.6,254.9 583.0,255.8 584.5,256.6 586.0,257.5 587.5,258.3 589.0,259.2 590.5,260.0 591.9,260.9 593.4,261.7 594.9,262.5 596.4,263.4 597.9,264.2 599.4,265.0 600.9,265.8 602.3,266.7 603.8,267.5 605.3,268.3 606.8,269.1 608.3,269.9 609.8,270.7 611.2,271.5 612.7,272.2 614.2,273.0 615.7,273.8 617.2,274.6 618.7,275.3 620.2,276.1 621.6,276.8 623.1,277.6 624.6,278.3 626.1,279.0 627.6,279.8 629.1,280.5 630.5,281.2 632.0,281.9 633.5,282.6 635.0,283.3 636.5,284.0 638.0,284.7 639.4,285.4 640.9,286.1 642.4,286.7 643.9,287.4 645.4,288.1 646.9,288.7 648.4,289.3 649.8,290.0 651.3,290.6 652.8,291.2 654.3,291.8 655.8,292.4 657.3,293.0 658.7,293.6 660.2,294.2 661.7,294.8 663.2,295.3 664.7,295.9 666.2,296.4 667.7,297.0 669.1,297.5 670.6,298.0 672.1,298.6 673.6,299.1 675.1,299.6 676.6,300.0 678.0,300.5 679.5,301.0 681.0,301.5 682.5,301.9 684.0,302.4 685.5,302.8 687.0,303.2 688.4,303.6 689.9,304.0 691.4,304.4 692.9,304.8 694.4,305.2 695.9,305.6 697.3,306.0 698.8,306.3 700.3,306.7 701.8,307.0 703.3,307.3 704.8,307.6 706.2,308.0 707.7,308.3 709.2,308.5 710.7,308.8 712.2,309.1 713.7,309.4 715.2,309.6 716.6,309.9 718.1,310.1 719.6,310.4 721.1,310.6 722.6,310.8 724.1,311.0 725.5,311.2 727.0,311.4 728.5,311.6 730.0,311.8" fill="none" stroke="#9ca3af" stroke-width="2" stroke-dasharray="8,5"/>
<polyline points="62.0,316.0 63.5,316.0 65.0,316.0 66.5,316.0 67.9,316.0 69.4,316.0 70.9,316.0 72.4,316.0 73.9,316.0 75.4,316.0 76.8,316.0 78.3,316.0 79.8,316.0 81.3,316.0 82.8,316.0 84.3,316.0 85.8,316.0 87.2,316.0 88.7,316.0 90.2,316.0 91.7,316.0 93.2,316.0 94.7,316.0 96.1,316.0 97.6,316.0 99.1,316.0 100.6,316.0 102.1,316.0 103.6,316.0 105.0,316.0 106.5,316.0 108.0,314.0 109.5,312.1 111.0,310.2 112.5,308.5 114.0,306.8 115.4,305.1 116.9,303.4 118.4,301.9 119.9,300.3 121.4,298.8 122.9,297.3 124.3,295.8 125.8,294.3 127.3,292.9 128.8,291.5 130.3,290.1 131.8,288.7 133.3,287.3 134.7,286.0 136.2,284.6 137.7,283.3 139.2,282.0 140.7,280.7 142.2,279.4 143.6,278.1 145.1,276.9 146.6,275.6 148.1,274.4 149.6,273.1 151.1,271.9 152.6,270.7 154.0,269.4 155.5,268.2 157.0,267.0 158.5,265.8 160.0,264.6 161.5,263.4 162.9,262.3 164.4,261.1 165.9,259.9 167.4,258.8 168.9,257.6 170.4,256.5 171.8,255.3 173.3,254.2 174.8,253.0 176.3,251.9 177.8,250.8 179.3,249.6 180.8,248.5 182.2,247.4 183.7,246.3 185.2,245.2 186.7,244.1 188.2,243.0 189.7,241.9 191.1,240.8 192.6,239.7 194.1,238.6 195.6,237.5 197.1,236.4 198.6,235.3 200.1,234.3 201.5,233.2 203.0,232.1 204.5,231.0 206.0,230.0 207.5,228.9 209.0,227.9 210.4,226.8 211.9,225.7 213.4,224.7 214.9,223.6 216.4,222.6 217.9,221.5 219.4,220.5 220.8,219.4 222.3,218.4 223.8,217.4 225.3,216.3 226.8,215.3 228.3,214.3 229.7,213.2 231.2,212.2 232.7,211.2 234.2,210.1 235.7,209.1 237.2,208.1 238.6,207.1 240.1,206.1 241.6,205.0 243.1,204.0 244.6,203.0 246.1,202.0 247.6,201.0 249.0,200.0 250.5,199.0 252.0,198.0 253.5,197.0 255.0,196.0 256.5,195.0 257.9,194.0 259.4,193.0 260.9,192.0 262.4,191.0 263.9,190.0 265.4,189.0 266.9,188.0 268.3,187.0 269.8,186.0 271.3,185.0 272.8,184.0 274.3,183.0 275.8,182.1 277.2,181.1 278.7,180.1 280.2,179.1 281.7,178.1 283.2,177.2 284.7,176.2 286.2,174.4 287.6,172.7 289.1,171.0 290.6,169.3 292.1,167.6 293.6,165.8 295.1,164.1 296.5,162.4 298.0,160.7 299.5,159.0 301.0,157.3 302.5,155.5 304.0,153.8 305.4,152.1 306.9,150.4 308.4,148.7 309.9,147.0 311.4,145.3 312.9,143.6 314.4,141.9 315.8,140.2 317.3,138.5 318.8,136.8 320.3,135.1 321.8,133.4 323.3,131.7 324.7,130.1 326.2,128.4 327.7,126.7 329.2,125.0 330.7,123.3 332.2,121.6 333.7,119.9 335.1,118.3 336.6,116.6 338.1,114.9 339.6,113.2 341.1,111.5 342.6,109.8 344.0,108.2 345.5,106.5 347.0,104.8 348.5,103.1 350.0,101.5 351.5,99.8 353.0,100.9 354.4,102.0 355.9,103.1 357.4,104.1 358.9,105.2 360.4,106.3 361.9,107.4 363.3,108.5 364.8,109.5 366.3,110.6 367.8,111.7 369.3,112.8 370.8,113.9 372.2,114.9 373.7,116.0 375.2,117.1 376.7,118.2 378.2,119.2 379.7,120.3 381.2,121.4 382.6,122.5 384.1,123.5 385.6,124.6 387.1,125.7 388.6,126.8 390.1,127.8 391.5,128.9 393.0,130.0 394.5,131.0 396.0,132.1 397.5,133.2 399.0,134.2 400.5,135.3 401.9,136.4 403.4,137.4 404.9,138.5 406.4,139.5 407.9,140.6 409.4,141.7 410.8,142.7 412.3,143.8 413.8,144.8 415.3,145.9 416.8,147.0 418.3,148.0 419.8,149.1 421.2,150.1 422.7,151.2 424.2,152.2 425.7,153.3 427.2,154.3 428.7,155.4 430.1,156.4 431.6,157.5 433.1,158.5 434.6,159.6 436.1,160.6 437.6,161.7 439.0,162.7 440.5,163.7 442.0,164.8 443.5,165.8 445.0,166.9 446.5,167.9 448.0,168.9 449.4,170.0 450.9,171.0 452.4,172.0 453.9,173.1 455.4,174.1 456.9,175.1 458.3,176.2 459.8,177.2 461.3,178.2 462.8,179.3 464.3,180.3 465.8,181.3 467.3,182.3 468.7,183.4 470.2,184.4 471.7,185.4 473.2,186.4 474.7,187.4 476.2,188.4 477.6,189.5 479.1,190.5 480.6,191.5 482.1,192.5 483.6,193.5 485.1,194.5 486.6,195.5 488.0,196.5 489.5,197.5 491.0,198.5 492.5,199.5 494.0,200.5 495.5,201.5 496.9,202.5 498.4,203.5 499.9,204.5 501.4,205.5 502.9,206.5 504.4,207.5 505.8,208.5 507.3,209.5 508.8,210.4 510.3,211.4 511.8,212.4 513.3,213.4 514.8,214.4 516.2,215.3 517.7,216.3 519.2,217.3 520.7,218.2 522.2,219.2 523.7,220.2 525.1,221.1 526.6,222.1 528.1,223.1 529.6,224.0 531.1,225.0 532.6,225.9 534.1,226.9 535.5,227.8 537.0,228.8 538.5,229.7 540.0,230.7 541.5,231.6 543.0,232.5 544.4,233.5 545.9,234.4 547.4,235.3 548.9,236.3 550.4,237.2 551.9,238.1 553.4,239.0 554.8,240.0 556.3,240.9 557.8,241.8 559.3,242.7 560.8,243.6 562.3,244.5 563.7,245.4 565.2,246.3 566.7,247.2 568.2,248.1 569.7,249.0 571.2,249.9 572.6,250.8 574.1,251.6 575.6,252.5 577.1,253.4 578.6,254.3 580.1,255.1 581.6,256.0 583.0,256.9 584.5,257.7 586.0,258.6 587.5,259.4 589.0,260.3 590.5,261.1 591.9,261.9 593.4,262.8 594.9,263.6 596.4,264.4 597.9,265.3 599.4,266.1 600.9,266.9 602.3,267.7 603.8,268.5 605.3,269.3 606.8,270.1 608.3,270.9 609.8,271.7 611.2,272.5 612.7,273.2 614.2,274.0 615.7,274.8 617.2,275.5 618.7,276.3 620.2,277.0 621.6,277.8 623.1,278.5 624.6,279.3 626.1,280.0 627.6,280.7 629.1,281.4 630.5,282.1 632.0,282.8 633.5,283.5 635.0,284.2 636.5,284.9 638.0,285.6 639.4,286.3 640.9,286.9 642.4,287.6 643.9,288.2 645.4,288.9 646.9,289.5 648.4,290.2 649.8,290.8 651.3,291.4 652.8,292.0 654.3,292.6 655.8,293.2 657.3,293.8 658.7,294.4 660.2,294.9 661.7,295.5 663.2,296.1 664.7,296.6 666.2,297.1 667.7,297.7 669.1,298.2 670.6,298.7 672.1,299.2 673.6,299.7 675.1,300.2 676.6,300.7 678.0,301.1 679.5,301.6 681.0,302.0 682.5,302.5 684.0,302.9 685.5,303.3 687.0,303.8 688.4,304.2 689.9,304.6 691.4,304.9 692.9,305.3 694.4,305.7 695.9,306.1 697.3,306.4 698.8,306.8 700.3,307.1 701.8,307.4 703.3,307.7 704.8,308.0 706.2,308.3 707.7,308.6 709.2,308.9 710.7,309.2 712.2,309.5 713.7,309.7 715.2,310.0 716.6,310.2 718.1,310.4 719.6,310.7 721.1,310.9 722.6,311.1 724.1,311.3 725.5,311.5 727.0,311.7 728.5,311.9 730.0,312.0" fill="none" stroke="#2563eb" stroke-width="2.5"/>
<line x1="62" y1="316.0" x2="730" y2="316.0" stroke="#6b7280" stroke-width="1"/>
<line x1="151.1" y1="44" x2="151.1" y2="316" stroke="#16a34a" stroke-width="1.5" stroke-dasharray="4,3" opacity="0.7"/><rect x="139.1" y="322.0" width="24" height="16" rx="3" fill="#16a34a"/><text x="151.1" y="333.0" fill="white" font-size="10" font-weight="bold" text-anchor="middle">S</text><text x="151.1" y="38.0" fill="#16a34a" font-size="9" text-anchor="middle">Snack</text>
<line x1="106.5" y1="310.0" x2="106.5" y2="322.0" stroke="#1d4ed8" stroke-width="2"/><text x="106.5" y="344.0" fill="#1d4ed8" font-size="9" text-anchor="middle">Wine 1
19:00</text>
<line x1="195.6" y1="310.0" x2="195.6" y2="322.0" stroke="#1d4ed8" stroke-width="2"/><text x="195.6" y="344.0" fill="#1d4ed8" font-size="9" text-anchor="middle">Wine 2
20:00</text>
<line x1="284.7" y1="310.0" x2="284.7" y2="322.0" stroke="#1d4ed8" stroke-width="2"/><text x="284.7" y="344.0" fill="#1d4ed8" font-size="9" text-anchor="middle">Wine 3
21:00</text>
<line x1="62" y1="44" x2="62" y2="316" stroke="#374151" stroke-width="1.5"/><line x1="62" y1="316" x2="730" y2="316" stroke="#374151" stroke-width="1.5"/>
<text x="57" y="316.0" fill="#374151" font-size="10" text-anchor="end" dominant-baseline="middle">0.00 %</text><line x1="59" y1="316.0" x2="62" y2="316.0" stroke="#374151" stroke-width="1"/>
<text x="57" y="219.5" fill="#374151" font-size="10" text-anchor="end" dominant-baseline="middle">0.02 %</text><line x1="59" y1="219.5" x2="62" y2="219.5" stroke="#374151" stroke-width="1"/>
<text x="57" y="123.0" fill="#374151" font-size="10" text-anchor="end" dominant-baseline="middle">0.04 %</text><line x1="59" y1="123.0" x2="62" y2="123.0" stroke="#374151" stroke-width="1"/>
<text x="106.5" y="360.0" fill="#374151" font-size="10" text-anchor="middle">19:00</text><line x1="106.5" y1="316" x2="106.5" y2="320" stroke="#374151" stroke-width="1"/>
<text x="151.1" y="360.0" fill="#374151" font-size="10" text-anchor="middle">19:30</text><line x1="151.1" y1="316" x2="151.1" y2="320" stroke="#374151" stroke-width="1"/>
<text x="195.6" y="360.0" fill="#374151" font-size="10" text-anchor="middle">20:00</text><line x1="195.6" y1="316" x2="195.6" y2="320" stroke="#374151" stroke-width="1"/>
<text x="240.1" y="360.0" fill="#374151" font-size="10" text-anchor="middle">20:30</text><line x1="240.1" y1="316" x2="240.1" y2="320" stroke="#374151" stroke-width="1"/>
<text x="284.7" y="360.0" fill="#374151" font-size="10" text-anchor="middle">21:00</text><line x1="284.7" y1="316" x2="284.7" y2="320" stroke="#374151" stroke-width="1"/>
<text x="329.2" y="360.0" fill="#374151" font-size="10" text-anchor="middle">21:30</text><line x1="329.2" y1="316" x2="329.2" y2="320" stroke="#374151" stroke-width="1"/>
<text x="373.7" y="360.0" fill="#374151" font-size="10" text-anchor="middle">22:00</text><line x1="373.7" y1="316" x2="373.7" y2="320" stroke="#374151" stroke-width="1"/>
<text x="418.3" y="360.0" fill="#374151" font-size="10" text-anchor="middle">22:30</text><line x1="418.3" y1="316" x2="418.3" y2="320" stroke="#374151" stroke-width="1"/>
<text x="462.8" y="360.0" fill="#374151" font-size="10" text-anchor="middle">23:00</text><line x1="462.8" y1="316" x2="462.8" y2="320" stroke="#374151" stroke-width="1"/>
<text x="507.3" y="360.0" fill="#374151" font-size="10" text-anchor="middle">23:30</text><line x1="507.3" y1="316" x2="507.3" y2="320" stroke="#374151" stroke-width="1"/>
<text x="551.9" y="360.0" fill="#374151" font-size="10" text-anchor="middle">00:00</text><line x1="551.9" y1="316" x2="551.9" y2="320" stroke="#374151" stroke-width="1"/>
<text x="596.4" y="360.0" fill="#374151" font-size="10" text-anchor="middle">00:30</text><line x1="596.4" y1="316" x2="596.4" y2="320" stroke="#374151" stroke-width="1"/>
<text x="640.9" y="360.0" fill="#374151" font-size="10" text-anchor="middle">01:00</text><line x1="640.9" y1="316" x2="640.9" y2="320" stroke="#374151" stroke-width="1"/>
<text x="685.5" y="360.0" fill="#374151" font-size="10" text-anchor="middle">01:30</text><line x1="685.5" y1="316" x2="685.5" y2="320" stroke="#374151" stroke-width="1"/>
<text x="730.0" y="360.0" fill="#374151" font-size="10" text-anchor="middle">02:00</text><line x1="730.0" y1="316" x2="730.0" y2="320" stroke="#374151" stroke-width="1"/>
<text x="396" y="376" fill="#374151" font-size="11" text-anchor="middle">Time</text><text x="14" y="180" fill="#374151" font-size="11" text-anchor="middle" transform="rotate(-90,14,180)">BAC (%)</text>
<line x1="70" y1="54" x2="92" y2="54" stroke="#2563eb" stroke-width="2.5"/>
<text x="96" y="54" fill="#374151" font-size="10" dominant-baseline="middle">Main curve</text>
<line x1="70" y1="70" x2="92" y2="70" stroke="#9ca3af" stroke-width="2" stroke-dasharray="6,4"/>
<text x="96" y="70" fill="#374151" font-size="10" dominant-baseline="middle">Fasted (Ex. 1)</text>
<text x="380" y="20" fill="#111827" font-size="13" font-weight="bold" text-anchor="middle">Example 5 — Snack at 19:30: Wines 1 & 2 covered, Wine 3 fasted</text>
<text x="730" y="54" fill="#6b7280" font-size="9" text-anchor="end">Profile: male, 70 kg, 175 cm · r=0.789 · βₘₐₓ=0.015 %/h · Kₘ=0.005 %</text>
</svg>
