<svg xmlns="http://www.w3.org/2000/svg" viewBox="0 0 760 380" width="760" height="380" font-family="system-ui,sans-serif">
<rect width="760" height="380" fill="#ffffff"/><rect x="62" y="44" width="668" height="272" fill="#f9fafb"/>
<line x1="62" y1="225.9" x2="730" y2="225.9" stroke="#e5e7eb" stroke-width="1"/>
<line x1="62" y1="135.8" x2="730" y2="135.8" stroke="#e5e7eb" stroke-width="1"/>
<line x1="62" y1="45.7" x2="730" y2="45.7" stroke="#e5e7eb" stroke-width="1"/>
<line x1="106.5" y1="44" x2="106.5" y2="316" stroke="#e5e7eb" stroke-width="1"/>
<line x1="151.1" y1="44" x2="151.1" y2="316" stroke="#e5e7eb" stroke-width="1"/>
<line x1="195.6" y1="44" x2="195.6" y2="316" stroke="#e5e7eb" stroke-width="1"/>
<line x1="240.1" y1="44" x2="240.1" y2="316" stroke="#e5e7eb" stroke-width="1"/>
<line x1="284.7" y1="44" x2="284.7" y2="316" stroke="#e5e7eb" stroke-width="1"/>
<line x1="329.2" y1="44" x2="329.2" y2="316" stroke="#e5e7eb" stroke-width="1"/>
<line x1="373.7" y1="44" x2="373.7" y2="316" stroke="#e5e7eb" stroke-width="1"/>
<line x1="418.3" y1="44" x2="418.3" y2="316" stroke="#e5e7eb" stroke-width="1"/>
<line x1="462.8" y1="44" x2="462.8" y2="316" stroke="#e5e7eb" stroke-width="1"/>
<line x1="507.3" y1="44" x2="507.3" y2="316" stroke="#e5e7eb" stroke-width="1"/>
<line x1="551.9" y1="44" x2="551.9" y2="316" stroke="#e5e7eb" stroke-width="1"/>
<line x1="596.4" y1="44" x2="596.4" y2="316" stroke="#e5e7eb" stroke-width="1"/>
<line x1="640.9" y1="44" x2="640.9" y2="316" stroke="#e5e7eb" stroke-width="1"/>
<line x1="685.5" y1="44" x2="685.5" y2="316" stroke="#e5e7eb" stroke-width="1"/>
<line x1="730.0" y1="44" x2="730.0" y2="316" stroke="#e5e7eb" stroke-width="1"/>
<line x1="62" y1="90.8" x2="730" y2="90.8" stroke="#d97706" stroke-width="1.2" stroke-dasharray="6,4"/><text x="734" y="90.8" fill="#d97706" font-size="10" dominant-baseline="middle">0.05 %</text>
<polyline points="62.0,316.0 63.5,316.0 65.0,316.0 66.5,316.0 67.9,316.0 69.4,316.0 70.9,316.0 72.4,316.0 73.9,316.0 75.4,316.0 76.8,316.0 78.3,316.0 79.8,316.0 81.3,316.0 82.8,316.0 84.3,316.0 85.8,316.0 87.2,316.0 88.7,316.0 90.2,316.0 91.7,316.0 93.2,316.0 94.7,316.0 96.1,316.0 97.6,316.0 99.1,316.0 100.6,316.0 102.1,316.0 103.6,316.0 105.0,316.0 106.5,316.0 108.0,316.0 109.5,316.0 111.0,316.0 112.5,316.0 114.0,316.0 115.4,316.0 116.9,316.0 118.4,316.0 119.9,316.0 121.4,316.0 122.9,316.0 124.3,316.0 125.8,316.0 127.3,316.0 128.8,316.0 130.3,316.0 131.8,316.0 133.3,316.0 134.7,316.0 136.2,316.0 137.7,316.0 139.2,316.0 140.7,316.0 142.2,316.0 143.6,316.0 145.1,316.0 146.6,316.0 148.1,316.0 149.6,316.0 151.1,316.0 152.6,311.2 154.0,306.4 155.5,301.7 157.0,297.1 158.5,292.5 160.0,288.0 161.5,283.5 162.9,279.0 164.4,274.6 165.9,270.2 167.4,265.8 168.9,261.5 170.4,257.2 171.8,252.9 173.3,248.6 174.8,244.3 176.3,240.1 177.8,235.8 179.3,231.6 180.8,227.4 182.2,228.1 183.7,228.7 185.2,229.3 186.7,230.0 188.2,230.6 189.7,231.2 191.1,231.8 192.6,232.5 194.1,233.1 195.6,233.7 197.1,234.3 198.6,235.0 200.1,235.6 201.5,236.2 203.0,236.8 204.5,237.4 206.0,238.0 207.5,238.6 209.0,239.2 210.4,239.8 211.9,240.4 213.4,241.0 214.9,241.6 216.4,242.2 217.9,242.8 219.4,243.4 220.8,243.9 222.3,244.5 223.8,245.1 225.3,245.7 226.8,246.2 228.3,246.8 229.7,247.4 231.2,248.0 232.7,248.5 234.2,249.1 235.7,249.6 237.2,250.2 238.6,250.8 240.1,251.3 241.6,249.3 243.1,247.3 244.6,245.3 246.1,243.3 247.6,241.3 249.0,239.3 250.5,237.3 252.0,235.4 253.5,233.4 255.0,231.4 256.5,229.5 257.9,227.5 259.4,225.6 260.9,223.7 262.4,221.8 263.9,219.8 265.4,217.9 266.9,216.0 268.3,214.1 269.8,212.2 271.3,210.3 272.8,208.4 274.3,206.6 275.8,204.7 277.2,202.8 278.7,200.9 280.2,199.1 281.7,197.2 283.2,195.4 284.7,193.5 286.2,191.7 287.6,189.8 289.1,188.0 290.6,186.1 292.1,184.3 293.6,182.5 295.1,180.6 296.5,178.8 298.0,177.0 299.5,175.2 301.0,173.4 302.5,171.6 304.0,169.8 305.4,168.0 306.9,166.1 308.4,166.9 309.9,167.7 311.4,168.5 312.9,169.2 314.4,170.0 315.8,170.8 317.3,171.6 318.8,172.3 320.3,173.1 321.8,173.9 323.3,174.6 324.7,175.4 326.2,176.1 327.7,176.9 329.2,177.7 330.7,175.8 332.2,174.0 333.7,172.2 335.1,170.4 336.6,168.6 338.1,166.8 339.6,165.0 341.1,163.2 342.6,161.4 344.0,159.6 345.5,157.8 347.0,156.0 348.5,154.3 350.0,152.5 351.5,150.7 353.0,148.9 354.4,147.2 355.9,145.4 357.4,143.6 358.9,141.9 360.4,140.1 361.9,138.3 363.3,136.6 364.8,134.8 366.3,133.1 367.8,131.3 369.3,129.6 370.8,127.8 372.2,126.1 373.7,124.3 375.2,122.6 376.7,120.8 378.2,119.1 379.7,117.4 381.2,115.6 382.6,113.9 384.1,112.2 385.6,110.5 387.1,108.7 388.6,107.0 390.1,105.3 391.5,103.6 393.0,101.8 394.5,100.1 396.0,98.4 397.5,99.3 399.0,100.1 400.5,101.0 401.9,101.8 403.4,102.7 404.9,103.5 406.4,104.4 407.9,105.3 409.4,106.1 410.8,107.0 412.3,107.8 413.8,108.7 415.3,109.5 416.8,110.4 418.3,111.2 419.8,112.1 421.2,112.9 422.7,113.7 424.2,114.6 425.7,115.4 427.2,116.3 428.7,117.1 430.1,118.0 431.6,118.8 433.1,119.6 434.6,120.5 436.1,121.3 437.6,122.1 439.0,123.0 440.5,123.8 442.0,124.6 443.5,125.5 445.0,126.3 446.5,127.1 448.0,128.0 449.4,128.8 450.9,129.6 452.4,130.5 453.9,131.3 455.4,132.1 456.9,132.9 458.3,133.7 459.8,134.6 461.3,135.4 462.8,136.2 464.3,137.0 465.8,137.8 467.3,138.7 468.7,139.5 470.2,140.3 471.7,141.1 473.2,141.9 474.7,142.7 476.2,143.5 477.6,144.3 479.1,145.2 480.6,146.0 482.1,146.8 483.6,147.6 485.1,148.4 486.6,149.2 488.0,150.0 489.5,150.8 491.0,151.6 492.5,152.4 494.0,153.2 495.5,154.0 496.9,154.8 498.4,155.6 499.9,156.4 501.4,157.1 502.9,157.9 504.4,158.7 505.8,159.5 507.3,160.3 508.8,161.1 510.3,161.9 511.8,162.7 513.3,163.4 514.8,164.2 516.2,165.0 517.7,165.8 519.2,166.5 520.7,167.3 522.2,168.1 523.7,168.9 525.1,169.6 526.6,170.4 528.1,171.2 529.6,171.9 531.1,172.7 532.6,173.5 534.1,174.2 535.5,175.0 537.0,175.8 538.5,176.5 540.0,177.3 541.5,178.0 543.0,178.8 544.4,179.6 545.9,180.3 547.4,181.1 548.9,181.8 550.4,182.6 551.9,183.3 553.4,184.1 554.8,184.8 556.3,185.5 557.8,186.3 559.3,187.0 560.8,187.8 562.3,188.5 563.7,189.2 565.2,190.0 566.7,190.7 568.2,191.4 569.7,192.2 571.2,192.9 572.6,193.6 574.1,194.3 575.6,195.1 577.1,195.8 578.6,196.5 580.1,197.2 581.6,198.0 583.0,198.7 584.5,199.4 586.0,200.1 587.5,200.8 589.0,201.5 590.5,202.2 591.9,202.9 593.4,203.6 594.9,204.3 596.4,205.0 597.9,205.7 599.4,206.4 600.9,207.1 602.3,207.8 603.8,208.5 605.3,209.2 606.8,209.9 608.3,210.6 609.8,211.3 611.2,212.0 612.7,212.6 614.2,213.3 615.7,214.0 617.2,214.7 618.7,215.4 620.2,216.0 621.6,216.7 623.1,217.4 624.6,218.0 626.1,218.7 627.6,219.4 629.1,220.0 630.5,220.7 632.0,221.4 633.5,222.0 635.0,222.7 636.5,223.3 638.0,224.0 639.4,224.6 640.9,225.3 642.4,225.9 643.9,226.6 645.4,227.2 646.9,227.8 648.4,228.5 649.8,229.1 651.3,229.7 652.8,230.4 654.3,231.0 655.8,231.6 657.3,232.3 658.7,232.9 660.2,233.5 661.7,234.1 663.2,234.7 664.7,235.4 666.2,236.0 667.7,236.6 669.1,237.2 670.6,237.8 672.1,238.4 673.6,239.0 675.1,239.6 676.6,240.2 678.0,240.8 679.5,241.4 681.0,242.0 682.5,242.6 684.0,243.2 685.5,243.7 687.0,244.3 688.4,244.9 689.9,245.5 691.4,246.1 692.9,246.6 694.4,247.2 695.9,247.8 697.3,248.3 698.8,248.9 700.3,249.5 701.8,250.0 703.3,250.6 704.8,251.1 706.2,251.7 707.7,252.2 709.2,252.8 710.7,253.3 712.2,253.9 713.7,254.4 715.2,254.9 716.6,255.5 718.1,256.0 719.6,256.5 721.1,257.1 722.6,257.6 724.1,258.1 725.5,258.6 727.0,259.1 728.5,259.7 730.0,260.2" fill="none" stroke="#9ca3af" stroke-width="2" stroke-dasharray="8,5"/>
<polyline points="62.0,316.0 63.5,316.0 65.0,316.0 66.5,316.0 67.9,316.0 69.4,316.0 70.9,316.0 72.4,316.0 73.9,316.0 75.4,316.0 76.8,316.0 78.3,316.0 79.8,316.0 81.3,316.0 82.8,316.0 84.3,316.0 85.8,316.0 87.2,316.0 88.7,316.0 90.2,316.0 91.7,316.0 93.2,316.0 94.7,316.0 96.1,316.0 97.6,316.0 99.1,316.0 100.6,316.0 102.1,316.0 103.6,316.0 105.0,316.0 106.5,316.0 108.0,316.0 109.5,316.0 111.0,316.0 112.5,316.0 114.0,316.0 115.4,316.0 116.9,316.0 118.4,316.0 119.9,316.0 121.4,316.0 122.9,316.0 124.3,316.0 125.8,316.0 127.3,316.0 128.8,316.0 130.3,316.0 131.8,316.0 133.3,316.0 134.7,316.0 136.2,316.0 137.7,316.0 139.2,316.0 140.7,316.0 142.2,316.0 143.6,316.0 145.1,316.0 146.6,316.0 148.1,316.0 149.6,316.0 151.1,316.0 152.6,315.0 154.0,314.0 155.5,313.1 157.0,312.1 158.5,311.2 160.0,310.3 161.5,309.4 162.9,308.5 164.4,307.6 165.9,306.8 167.4,305.9 168.9,305.1 170.4,304.3 171.8,303.4 173.3,302.6 174.8,301.8 176.3,301.0 177.8,300.3 179.3,299.5 180.8,298.7 182.2,298.0 183.7,297.2 185.2,296.5 186.7,295.7 188.2,295.0 189.7,294.3 191.1,293.6 192.6,292.9 194.1,292.2 195.6,291.5 197.1,290.8 198.6,290.1 200.1,289.4 201.5,288.8 203.0,288.1 204.5,287.4 206.0,286.8 207.5,286.1 209.0,285.5 210.4,284.9 211.9,284.2 213.4,283.6 214.9,283.0 216.4,282.4 217.9,281.8 219.4,281.1 220.8,280.5 222.3,279.9 223.8,279.4 225.3,278.8 226.8,278.2 228.3,277.6 229.7,277.0 231.2,276.4 232.7,275.9 234.2,275.3 235.7,274.7 237.2,274.2 238.6,273.6 240.1,273.1 241.6,271.3 243.1,269.6 244.6,267.9 246.1,266.2 247.6,264.5 249.0,262.8 250.5,261.1 252.0,259.5 253.5,257.8 255.0,256.2 256.5,254.5 257.9,252.9 259.4,251.3 260.9,249.6 262.4,248.0 263.9,246.4 265.4,244.8 266.9,243.2 268.3,241.6 269.8,240.1 271.3,238.5 272.8,236.9 274.3,235.4 275.8,233.8 277.2,232.3 278.7,230.7 280.2,229.2 281.7,227.6 283.2,226.1 284.7,224.6 286.2,224.0 287.6,223.5 289.1,223.0 290.6,222.4 292.1,221.9 293.6,221.4 295.1,220.8 296.5,220.3 298.0,219.8 299.5,219.3 301.0,218.7 302.5,218.2 304.0,217.7 305.4,217.2 306.9,216.7 308.4,216.2 309.9,215.7 311.4,215.1 312.9,214.6 314.4,214.1 315.8,213.6 317.3,213.1 318.8,212.6 320.3,212.1 321.8,211.6 323.3,211.1 324.7,210.6 326.2,210.1 327.7,209.6 329.2,209.1 330.7,207.4 332.2,205.8 333.7,204.1 335.1,202.4 336.6,200.8 338.1,199.1 339.6,197.4 341.1,195.8 342.6,194.1 344.0,192.5 345.5,190.9 347.0,189.2 348.5,187.6 350.0,186.0 351.5,184.3 353.0,182.7 354.4,181.1 355.9,179.5 357.4,177.9 358.9,176.2 360.4,174.6 361.9,173.0 363.3,171.4 364.8,169.8 366.3,168.2 367.8,166.6 369.3,165.0 370.8,163.5 372.2,161.9 373.7,160.3 375.2,159.9 376.7,159.5 378.2,159.1 379.7,158.7 381.2,158.3 382.6,157.9 384.1,157.5 385.6,157.1 387.1,156.7 388.6,156.3 390.1,155.9 391.5,155.5 393.0,155.1 394.5,154.7 396.0,154.4 397.5,154.0 399.0,153.6 400.5,153.2 401.9,152.8 403.4,152.4 404.9,152.0 406.4,151.6 407.9,151.3 409.4,150.9 410.8,150.5 412.3,150.1 413.8,149.7 415.3,149.3 416.8,149.0 418.3,148.6 419.8,148.2 421.2,147.8 422.7,147.4 424.2,147.0 425.7,146.7 427.2,146.3 428.7,145.9 430.1,145.5 431.6,145.2 433.1,144.8 434.6,144.4 436.1,144.0 437.6,143.6 439.0,143.3 440.5,142.9 442.0,142.5 443.5,142.1 445.0,141.8 446.5,141.4 448.0,141.0 449.4,140.7 450.9,140.3 452.4,139.9 453.9,139.5 455.4,139.2 456.9,138.8 458.3,138.4 459.8,138.1 461.3,137.7 462.8,137.3 464.3,138.2 465.8,139.0 467.3,139.8 468.7,140.6 470.2,141.4 471.7,142.2 473.2,143.0 474.7,143.8 476.2,144.7 477.6,145.5 479.1,146.3 480.6,147.1 482.1,147.9 483.6,148.7 485.1,149.5 486.6,150.3 488.0,151.1 489.5,151.9 491.0,152.7 492.5,153.5 494.0,154.3 495.5,155.1 496.9,155.9 498.4,156.7 499.9,157.4 501.4,158.2 502.9,159.0 504.4,159.8 505.8,160.6 507.3,161.4 508.8,162.2 510.3,162.9 511.8,163.7 513.3,164.5 514.8,165.3 516.2,166.1 517.7,166.8 519.2,167.6 520.7,168.4 522.2,169.2 523.7,169.9 525.1,170.7 526.6,171.5 528.1,172.2 529.6,173.0 531.1,173.8 532.6,174.5 534.1,175.3 535.5,176.1 537.0,176.8 538.5,177.6 540.0,178.3 541.5,179.1 543.0,179.8 544.4,180.6 545.9,181.3 547.4,182.1 548.9,182.8 550.4,183.6 551.9,184.3 553.4,185.1 554.8,185.8 556.3,186.6 557.8,187.3 559.3,188.0 560.8,188.8 562.3,189.5 563.7,190.2 565.2,191.0 566.7,191.7 568.2,192.4 569.7,193.2 571.2,193.9 572.6,194.6 574.1,195.3 575.6,196.1 577.1,196.8 578.6,197.5 580.1,198.2 581.6,198.9 583.0,199.7 584.5,200.4 586.0,201.1 587.5,201.8 589.0,202.5 590.5,203.2 591.9,203.9 593.4,204.6 594.9,205.3 596.4,206.0 597.9,206.7 599.4,207.4 600.9,208.1 602.3,208.8 603.8,209.5 605.3,210.2 606.8,210.9 608.3,211.5 609.8,212.2 611.2,212.9 612.7,213.6 614.2,214.3 615.7,214.9 617.2,215.6 618.7,216.3 620.2,217.0 621.6,217.6 623.1,218.3 624.6,219.0 626.1,219.6 627.6,220.3 629.1,220.9 630.5,221.6 632.0,222.3 633.5,222.9 635.0,223.6 636.5,224.2 638.0,224.9 639.4,225.5 640.9,226.2 642.4,226.8 643.9,227.4 645.4,228.1 646.9,228.7 648.4,229.4 649.8,230.0 651.3,230.6 652.8,231.2 654.3,231.9 655.8,232.5 657.3,233.1 658.7,233.7 660.2,234.4 661.7,235.0 663.2,235.6 664.7,236.2 666.2,236.8 667.7,237.4 669.1,238.0 670.6,238.6 672.1,239.2 673.6,239.8 675.1,240.4 676.6,241.0 678.0,241.6 679.5,242.2 681.0,242.8 682.5,243.4 684.0,244.0 685.5,244.5 687.0,245.1 688.4,245.7 689.9,246.3 691.4,246.8 692.9,247.4 694.4,248.0 695.9,248.5 697.3,249.1 698.8,249.7 700.3,250.2 701.8,250.8 703.3,251.3 704.8,251.9 706.2,252.4 707.7,253.0 709.2,253.5 710.7,254.1 712.2,254.6 713.7,255.1 715.2,255.7 716.6,256.2 718.1,256.7 719.6,257.3 721.1,257.8 722.6,258.3 724.1,258.8 725.5,259.3 727.0,259.8 728.5,260.4 730.0,260.9" fill="none" stroke="#2563eb" stroke-width="2.5"/>
<line x1="62" y1="316.0" x2="730" y2="316.0" stroke="#6b7280" stroke-width="1"/>
<line x1="106.5" y1="44" x2="106.5" y2="316" stroke="#16a34a" stroke-width="1.5" stroke-dasharray="4,3" opacity="0.7"/><rect x="94.5" y="322.0" width="24" height="16" rx="3" fill="#16a34a"/><text x="106.5" y="333.0" fill="white" font-size="10" font-weight="bold" text-anchor="middle">F</text><text x="106.5" y="38.0" fill="#16a34a" font-size="9" text-anchor="middle">Full meal</text>
<line x1="151.1" y1="310.0" x2="151.1" y2="322.0" stroke="#1d4ed8" stroke-width="2"/><text x="151.1" y="344.0" fill="#1d4ed8" font-size="9" text-anchor="middle">Champagne
19:00</text>
<line x1="240.1" y1="310.0" x2="240.1" y2="322.0" stroke="#1d4ed8" stroke-width="2"/><text x="240.1" y="344.0" fill="#1d4ed8" font-size="9" text-anchor="middle">Wine 1
20:00</text>
<line x1="329.2" y1="310.0" x2="329.2" y2="322.0" stroke="#1d4ed8" stroke-width="2"/><text x="329.2" y="344.0" fill="#1d4ed8" font-size="9" text-anchor="middle">Wine 2
21:00</text>
<line x1="62" y1="44" x2="62" y2="316" stroke="#374151" stroke-width="1.5"/><line x1="62" y1="316" x2="730" y2="316" stroke="#374151" stroke-width="1.5"/>
<text x="57" y="316.0" fill="#374151" font-size="10" text-anchor="end" dominant-baseline="middle">0.00 %</text><line x1="59" y1="316.0" x2="62" y2="316.0" stroke="#374151" stroke-width="1"/>
<text x="57" y="225.9" fill="#374151" font-size="10" text-anchor="end" dominant-baseline="middle">0.02 %</text><line x1="59" y1="225.9" x2="62" y2="225.9" stroke="#374151" stroke-width="1"/>
<text x="57" y="135.8" fill="#374151" font-size="10" text-anchor="end" dominant-baseline="middle">0.04 %</text><line x1="59" y1="135.8" x2="62" y2="135.8" stroke="#374151" stroke-width="1"/>
<text x="57" y="45.7" fill="#374151" font-size="10" text-anchor="end" dominant-baseline="middle">0.06 %</text><line x1="59" y1="45.7" x2="62" y2="45.7" stroke="#374151" stroke-width="1"/>
<text x="106.5" y="360.0" fill="#374151" font-size="10" text-anchor="middle">18:30</text><line x1="106.5" y1="316" x2="106.5" y2="320" stroke="#374151" stroke-width="1"/>
<text x="151.1" y="360.0" fill="#374151" font-size="10" text-anchor="middle">19:00</text><line x1="151.1" y1="316" x2="151.1" y2="320" stroke="#374151" stroke-width="1"/>
<text x="195.6" y="360.0" fill="#374151" font-size="10" text-anchor="middle">19:30</text><line x1="195.6" y1="316" x2="195.6" y2="320" stroke="#374151" stroke-width="1"/>
<text x="240.1" y="360.0" fill="#374151" font-size="10" text-anchor="middle">20:00</text><line x1="240.1" y1="316" x2="240.1" y2="320" stroke="#374151" stroke-width="1"/>
<text x="284.7" y="360.0" fill="#374151" font-size="10" text-anchor="middle">20:30</text><line x1="284.7" y1="316" x2="284.7" y2="320" stroke="#374151" stroke-width="1"/>
<text x="329.2" y="360.0" fill="#374151" font-size="10" text-anchor="middle">21:00</text><line x1="329.2" y1="316" x2="329.2" y2="320" stroke="#374151" stroke-width="1"/>
<text x="373.7" y="360.0" fill="#374151" font-size="10" text-anchor="middle">21:30</text><line x1="373.7" y1="316" x2="373.7" y2="320" stroke="#374151" stroke-width="1"/>
<text x="418.3" y="360.0" fill="#374151" font-size="10" text-anchor="middle">22:00</text><line x1="418.3" y1="316" x2="418.3" y2="320" stroke="#374151" stroke-width="1"/>
<text x="462.8" y="360.0" fill="#374151" font-size="10" text-anchor="middle">22:30</text><line x1="462.8" y1="316" x2="462.8" y2="320" stroke="#374151" stroke-width="1"/>
<text x="507.3" y="360.0" fill="#374151" font-size="10" text-anchor="middle">23:00</text><line x1="507.3" y1="316" x2="507.3" y2="320" stroke="#374151" stroke-width="1"/>
<text x="551.9" y="360.0" fill="#374151" font-size="10" text-anchor="middle">23:30</text><line x1="551.9" y1="316" x2="551.9" y2="320" stroke="#374151" stroke-width="1"/>
<text x="596.4" y="360.0" fill="#374151" font-size="10" text-anchor="middle">00:00</text><line x1="596.4" y1="316" x2="596.4" y2="320" stroke="#374151" stroke-width="1"/>
<text x="640.9" y="360.0" fill="#374151" font-size="10" text-anchor="middle">00:30</text><line x1="640.9" y1="316" x2="640.9" y2="320" stroke="#374151" stroke-width="1"/>
<text x="685.5" y="360.0" fill="#374151" font-size="10" text-anchor="middle">01:00</text><line x1="685.5" y1="316" x2="685.5" y2="320" stroke="#374151" stroke-width="1"/>
<text x="730.0" y="360.0" fill="#374151" font-size="10" text-anchor="middle">01:30</text><line x1="730.0" y1="316" x2="730.0" y2="320" stroke="#374151" stroke-width="1"/>
<text x="396" y="376" fill="#374151" font-size="11" text-anchor="middle">Time</text><text x="14" y="180" fill="#374151" font-size="11" text-anchor="middle" transform="rotate(-90,14,180)">BAC (%)</text>
<line x1="70" y1="54" x2="92" y2="54" stroke="#2563eb" stroke-width="2.5"/>
<text x="96" y="54" fill="#374151" font-size="10" dominant-baseline="middle">Main curve</text>
<line x1="70" y1="70" x2="92" y2="70" stroke="#9ca3af" stroke-width="2" stroke-dasharray="6,4"/>
<text x="96" y="70" fill="#374151" font-size="10" dominant-baseline="middle">Same drinks, fasted</text>
<text x="380" y="20" fill="#111827" font-size="13" font-weight="bold" text-anchor="middle">Example 6 — Champagne at dinner: food overrides carbonation</text>
<text x="730" y="54" fill="#6b7280" font-size="9" text-anchor="end">Profile: male, 70 kg, 175 cm · r=0.789 · βₘₐₓ=0.015 %/h · Kₘ=0.015 %</text>
</svg>
