<svg xmlns="http://www.w3.org/2000/svg" viewBox="0 0 760 380" width="760" height="380" font-family="system-ui,sans-serif">
<rect width="760" height="380" fill="#ffffff"/><rect x="62" y="44" width="668" height="272" fill="#f9fafb"/>
<line x1="62" y1="209.3" x2="730" y2="209.3" stroke="#e5e7eb" stroke-width="1"/>
<line x1="62" y1="102.7" x2="730" y2="102.7" stroke="#e5e7eb" stroke-width="1"/>
<line x1="106.5" y1="44" x2="106.5" y2="316" stroke="#e5e7eb" stroke-width="1"/>
<line x1="151.1" y1="44" x2="151.1" y2="316" stroke="#e5e7eb" stroke-width="1"/>
<line x1="195.6" y1="44" x2="195.6" y2="316" stroke="#e5e7eb" stroke-width="1"/>
<line x1="240.1" y1="44" x2="240.1" y2="316" stroke="#e5e7eb" stroke-width="1"/>
<line x1="284.7" y1="44" x2="284.7" y2="316" stroke="#e5e7eb" stroke-width="1"/>
<line x1="329.2" y1="44" x2="329.2" y2="316" stroke="#e5e7eb" stroke-width="1"/>
<line x1="373.7" y1="44" x2="373.7" y2="316" stroke="#e5e7eb" stroke-width="1"/>
<line x1="418.3" y1="44" x2="418.3" y2="316" stroke="#e5e7eb" stroke-width="1"/>
<line x1="462.8" y1="44" x2="462.8" y2="316" stroke="#e5e7eb" stroke-width="1"/>
<line x1="507.3" y1="44" x2="507.3" y2="316" stroke="#e5e7eb" stroke-width="1"/>
<line x1="551.9" y1="44" x2="551.9" y2="316" stroke="#e5e7eb" stroke-width="1"/>
<line x1="596.4" y1="44" x2="596.4" y2="316" stroke="#e5e7eb" stroke-width="1"/>
<line x1="640.9" y1="44" x2="640.9" y2="316" stroke="#e5e7eb" stroke-width="1"/>
<line x1="685.5" y1="44" x2="685.5" y2="316" stroke="#e5e7eb" stroke-width="1"/>
<line x1="730.0" y1="44" x2="730.0" y2="316" stroke="#e5e7eb" stroke-width="1"/>
<line x1="62" y1="49.3" x2="730" y2="49.3" stroke="#d97706" stroke-width="1.2" stroke-dasharray="6,4"/><text x="734" y="49.3" fill="#d97706" font-size="10" dominant-baseline="middle">0.05 %</text>
<polyline points="62.0,316.0 63.5,316.0 65.0,316.0 66.5,316.0 67.9,316.0 69.4,316.0 70.9,316.0 72.4,316.0 73.9,316.0 75.4,316.0 76.8,316.0 78.3,316.0 79.8,316.0 81.3,316.0 82.8,316.0 84.3,316.0 85.8,316.0 87.2,316.0 88.7,316.0 90.2,316.0 91.7,316.0 93.2,316.0 94.7,316.0 96.1,316.0 97.6,316.0 99.1,316.0 100.6,316.0 102.1,316.0 103.6,316.0 105.0,316.0 106.5,316.0 108.0,316.0 109.5,316.0 111.0,316.0 112.5,316.0 114.0,316.0 115.4,316.0 116.9,316.0 118.4,316.0 119.9,316.0 121.4,316.0 122.9,316.0 124.3,316.0 125.8,316.0 127.3,316.0 128.8,316.0 130.3,316.0 131.8,316.0 133.3,316.0 134.7,316.0 136.2,316.0 137.7,316.0 139.2,316.0 140.7,316.0 142.2,316.0 143.6,316.0 145.1,316.0 146.6,316.0 148.1,316.0 149.6,316.0 151.1,316.0 152.6,310.3 154.0,304.8 155.5,299.5 157.0,294.3 158.5,289.2 160.0,284.1 161.5,279.1 162.9,274.2 164.4,269.3 165.9,264.4 167.4,259.6 168.9,254.8 170.4,250.0 171.8,245.2 173.3,240.5 174.8,235.8 176.3,231.0 177.8,226.3 179.3,221.7 180.8,217.0 182.2,218.0 183.7,219.1 185.2,220.1 186.7,221.2 188.2,222.2 189.7,223.2 191.1,224.3 192.6,225.3 194.1,226.3 195.6,227.4 197.1,228.4 198.6,229.4 200.1,230.4 201.5,231.5 203.0,232.5 204.5,233.5 206.0,234.5 207.5,235.5 209.0,236.5 210.4,237.5 211.9,238.5 213.4,239.5 214.9,240.5 216.4,241.5 217.9,242.4 219.4,243.4 220.8,244.4 222.3,245.4 223.8,246.3 225.3,247.3 226.8,248.3 228.3,249.2 229.7,250.2 231.2,251.1 232.7,252.1 234.2,253.0 235.7,253.9 237.2,254.9 238.6,255.8 240.1,256.7 241.6,254.6 243.1,252.5 244.6,250.4 246.1,248.3 247.6,246.2 249.0,244.1 250.5,242.0 252.0,239.9 253.5,237.9 255.0,235.8 256.5,233.8 257.9,231.7 259.4,229.7 260.9,227.7 262.4,225.7 263.9,223.6 265.4,221.6 266.9,219.6 268.3,217.6 269.8,215.6 271.3,213.6 272.8,211.6 274.3,209.6 275.8,207.7 277.2,205.7 278.7,203.7 280.2,201.7 281.7,199.8 283.2,197.8 284.7,195.9 286.2,193.9 287.6,191.9 289.1,190.0 290.6,188.0 292.1,186.1 293.6,184.2 295.1,182.2 296.5,180.3 298.0,178.4 299.5,176.4 301.0,174.5 302.5,172.6 304.0,170.6 305.4,168.7 306.9,166.8 308.4,167.9 309.9,169.1 311.4,170.2 312.9,171.3 314.4,172.4 315.8,173.6 317.3,174.7 318.8,175.8 320.3,176.9 321.8,178.1 323.3,179.2 324.7,180.3 326.2,181.4 327.7,182.5 329.2,183.6 330.7,181.7 332.2,179.8 333.7,177.8 335.1,175.9 336.6,174.0 338.1,172.0 339.6,170.1 341.1,168.2 342.6,166.3 344.0,164.4 345.5,162.4 347.0,160.5 348.5,158.6 350.0,156.7 351.5,154.8 353.0,152.9 354.4,151.0 355.9,149.1 357.4,147.2 358.9,145.3 360.4,143.4 361.9,141.5 363.3,139.6 364.8,137.7 366.3,135.9 367.8,134.0 369.3,132.1 370.8,130.2 372.2,128.3 373.7,126.4 375.2,124.6 376.7,122.7 378.2,120.8 379.7,118.9 381.2,117.1 382.6,115.2 384.1,113.3 385.6,111.5 387.1,109.6 388.6,107.7 390.1,105.9 391.5,104.0 393.0,102.1 394.5,100.3 396.0,98.4 397.5,99.6 399.0,100.8 400.5,102.0 401.9,103.1 403.4,104.3 404.9,105.5 406.4,106.7 407.9,107.9 409.4,109.1 410.8,110.2 412.3,111.4 413.8,112.6 415.3,113.8 416.8,115.0 418.3,116.1 419.8,117.3 421.2,118.5 422.7,119.7 424.2,120.8 425.7,122.0 427.2,123.2 428.7,124.4 430.1,125.5 431.6,126.7 433.1,127.9 434.6,129.0 436.1,130.2 437.6,131.4 439.0,132.5 440.5,133.7 442.0,134.9 443.5,136.0 445.0,137.2 446.5,138.3 448.0,139.5 449.4,140.7 450.9,141.8 452.4,143.0 453.9,144.1 455.4,145.3 456.9,146.4 458.3,147.6 459.8,148.7 461.3,149.9 462.8,151.0 464.3,152.2 465.8,153.3 467.3,154.5 468.7,155.6 470.2,156.8 471.7,157.9 473.2,159.1 474.7,160.2 476.2,161.3 477.6,162.5 479.1,163.6 480.6,164.7 482.1,165.9 483.6,167.0 485.1,168.1 486.6,169.3 488.0,170.4 489.5,171.5 491.0,172.6 492.5,173.8 494.0,174.9 495.5,176.0 496.9,177.1 498.4,178.3 499.9,179.4 501.4,180.5 502.9,181.6 504.4,182.7 505.8,183.8 507.3,184.9 508.8,186.0 510.3,187.1 511.8,188.3 513.3,189.4 514.8,190.5 516.2,191.6 517.7,192.7 519.2,193.7 520.7,194.8 522.2,195.9 523.7,197.0 525.1,198.1 526.6,199.2 528.1,200.3 529.6,201.4 531.1,202.5 532.6,203.5 534.1,204.6 535.5,205.7 537.0,206.8 538.5,207.8 540.0,208.9 541.5,210.0 543.0,211.0 544.4,212.1 545.9,213.2 547.4,214.2 548.9,215.3 550.4,216.3 551.9,217.4 553.4,218.4 554.8,219.5 556.3,220.5 557.8,221.6 559.3,222.6 560.8,223.6 562.3,224.7 563.7,225.7 565.2,226.7 566.7,227.8 568.2,228.8 569.7,229.8 571.2,230.8 572.6,231.8 574.1,232.9 575.6,233.9 577.1,234.9 578.6,235.9 580.1,236.9 581.6,237.9 583.0,238.9 584.5,239.9 586.0,240.8 587.5,241.8 589.0,242.8 590.5,243.8 591.9,244.8 593.4,245.7 594.9,246.7 596.4,247.7 597.9,248.6 599.4,249.6 600.9,250.5 602.3,251.5 603.8,252.4 605.3,253.4 606.8,254.3 608.3,255.2 609.8,256.2 611.2,257.1 612.7,258.0 614.2,258.9 615.7,259.8 617.2,260.7 618.7,261.6 620.2,262.5 621.6,263.4 623.1,264.3 624.6,265.2 626.1,266.0 627.6,266.9 629.1,267.8 630.5,268.6 632.0,269.5 633.5,270.3 635.0,271.2 636.5,272.0 638.0,272.8 639.4,273.7 640.9,274.5 642.4,275.3 643.9,276.1 645.4,276.9 646.9,277.7 648.4,278.5 649.8,279.3 651.3,280.0 652.8,280.8 654.3,281.6 655.8,282.3 657.3,283.1 658.7,283.8 660.2,284.5 661.7,285.2 663.2,286.0 664.7,286.7 666.2,287.4 667.7,288.0 669.1,288.7 670.6,289.4 672.1,290.1 673.6,290.7 675.1,291.4 676.6,292.0 678.0,292.6 679.5,293.3 681.0,293.9 682.5,294.5 684.0,295.1 685.5,295.7 687.0,296.2 688.4,296.8 689.9,297.4 691.4,297.9 692.9,298.5 694.4,299.0 695.9,299.5 697.3,300.0 698.8,300.5 700.3,301.0 701.8,301.5 703.3,302.0 704.8,302.4 706.2,302.9 707.7,303.3 709.2,303.7 710.7,304.2 712.2,304.6 713.7,305.0 715.2,305.4 716.6,305.7 718.1,306.1 719.6,306.5 721.1,306.8 722.6,307.2 724.1,307.5 725.5,307.8 727.0,308.1 728.5,308.4 730.0,308.7" fill="none" stroke="#9ca3af" stroke-width="2" stroke-dasharray="8,5"/>
<polyline points="62.0,316.0 63.5,316.0 65.0,316.0 66.5,316.0 67.9,316.0 69.4,316.0 70.9,316.0 72.4,316.0 73.9,316.0 75.4,316.0 76.8,316.0 78.3,316.0 79.8,316.0 81.3,316.0 82.8,316.0 84.3,316.0 85.8,316.0 87.2,316.0 88.7,316.0 90.2,316.0 91.7,316.0 93.2,316.0 94.7,316.0 96.1,316.0 97.6,316.0 99.1,316.0 100.6,316.0 102.1,316.0 103.6,316.0 105.0,316.0 106.5,316.0 108.0,316.0 109.5,316.0 111.0,316.0 112.5,316.0 114.0,316.0 115.4,316.0 116.9,316.0 118.4,316.0 119.9,316.0 121.4,316.0 122.9,316.0 124.3,316.0 125.8,316.0 127.3,316.0 128.8,316.0 130.3,316.0 131.8,316.0 133.3,316.0 134.7,316.0 136.2,316.0 137.7,316.0 139.2,316.0 140.7,316.0 142.2,316.0 143.6,316.0 145.1,316.0 146.6,316.0 148.1,316.0 149.6,316.0 151.1,316.0 152.6,314.8 154.0,313.7 155.5,312.7 157.0,311.6 158.5,310.7 160.0,309.7 161.5,308.8 162.9,307.9 164.4,307.1 165.9,306.2 167.4,305.4 168.9,304.6 170.4,303.9 171.8,303.1 173.3,302.4 174.8,301.6 176.3,300.9 177.8,300.3 179.3,299.6 180.8,298.9 182.2,298.3 183.7,297.6 185.2,297.0 186.7,296.4 188.2,295.8 189.7,295.2 191.1,294.6 192.6,294.0 194.1,293.5 195.6,292.9 197.1,292.4 198.6,291.8 200.1,291.3 201.5,290.8 203.0,290.3 204.5,289.7 206.0,289.2 207.5,288.7 209.0,288.2 210.4,287.7 211.9,287.3 213.4,286.8 214.9,286.3 216.4,285.9 217.9,285.4 219.4,284.9 220.8,284.5 222.3,284.0 223.8,283.6 225.3,283.2 226.8,282.7 228.3,282.3 229.7,281.9 231.2,281.5 232.7,281.0 234.2,280.6 235.7,280.2 237.2,279.8 238.6,279.4 240.1,279.0 241.6,277.2 243.1,275.4 244.6,273.7 246.1,271.9 247.6,270.2 249.0,268.5 250.5,266.7 252.0,265.0 253.5,263.3 255.0,261.7 256.5,260.0 257.9,258.3 259.4,256.7 260.9,255.0 262.4,253.4 263.9,251.7 265.4,250.1 266.9,248.5 268.3,246.9 269.8,245.3 271.3,243.7 272.8,242.1 274.3,240.5 275.8,238.9 277.2,237.3 278.7,235.7 280.2,234.2 281.7,232.6 283.2,231.0 284.7,229.5 286.2,229.1 287.6,228.7 289.1,228.3 290.6,228.0 292.1,227.6 293.6,227.2 295.1,226.8 296.5,226.4 298.0,226.1 299.5,225.7 301.0,225.3 302.5,225.0 304.0,224.6 305.4,224.2 306.9,223.8 308.4,223.5 309.9,223.1 311.4,222.7 312.9,222.4 314.4,222.0 315.8,221.7 317.3,221.3 318.8,220.9 320.3,220.6 321.8,220.2 323.3,219.8 324.7,219.5 326.2,219.1 327.7,218.8 329.2,218.4 330.7,216.7 332.2,214.9 333.7,213.2 335.1,211.4 336.6,209.7 338.1,207.9 339.6,206.2 341.1,204.5 342.6,202.7 344.0,201.0 345.5,199.3 347.0,197.6 348.5,195.9 350.0,194.2 351.5,192.4 353.0,190.7 354.4,189.0 355.9,187.3 357.4,185.6 358.9,183.9 360.4,182.2 361.9,180.5 363.3,178.9 364.8,177.2 366.3,175.5 367.8,173.8 369.3,172.1 370.8,170.4 372.2,168.8 373.7,167.1 375.2,166.8 376.7,166.5 378.2,166.3 379.7,166.0 381.2,165.7 382.6,165.5 384.1,165.2 385.6,164.9 387.1,164.7 388.6,164.4 390.1,164.1 391.5,163.9 393.0,163.6 394.5,163.3 396.0,163.1 397.5,162.8 399.0,162.5 400.5,162.3 401.9,162.0 403.4,161.7 404.9,161.5 406.4,161.2 407.9,160.9 409.4,160.7 410.8,160.4 412.3,160.1 413.8,159.9 415.3,159.6 416.8,159.3 418.3,159.1 419.8,158.8 421.2,158.6 422.7,158.3 424.2,158.0 425.7,157.8 427.2,157.5 428.7,157.3 430.1,157.0 431.6,156.7 433.1,156.5 434.6,156.2 436.1,156.0 437.6,155.7 439.0,155.4 440.5,155.2 442.0,154.9 443.5,154.7 445.0,154.4 446.5,154.1 448.0,153.9 449.4,153.6 450.9,153.4 452.4,153.1 453.9,152.9 455.4,152.6 456.9,152.4 458.3,152.1 459.8,151.8 461.3,151.6 462.8,151.3 464.3,152.5 465.8,153.6 467.3,154.8 468.7,155.9 470.2,157.1 471.7,158.2 473.2,159.3 474.7,160.5 476.2,161.6 477.6,162.8 479.1,163.9 480.6,165.0 482.1,166.2 483.6,167.3 485.1,168.4 486.6,169.6 488.0,170.7 489.5,171.8 491.0,172.9 492.5,174.1 494.0,175.2 495.5,176.3 496.9,177.4 498.4,178.5 499.9,179.7 501.4,180.8 502.9,181.9 504.4,183.0 505.8,184.1 507.3,185.2 508.8,186.3 510.3,187.4 511.8,188.5 513.3,189.6 514.8,190.7 516.2,191.8 517.7,192.9 519.2,194.0 520.7,195.1 522.2,196.2 523.7,197.3 525.1,198.4 526.6,199.5 528.1,200.6 529.6,201.7 531.1,202.7 532.6,203.8 534.1,204.9 535.5,206.0 537.0,207.0 538.5,208.1 540.0,209.2 541.5,210.2 543.0,211.3 544.4,212.4 545.9,213.4 547.4,214.5 548.9,215.5 550.4,216.6 551.9,217.7 553.4,218.7 554.8,219.7 556.3,220.8 557.8,221.8 559.3,222.9 560.8,223.9 562.3,224.9 563.7,226.0 565.2,227.0 566.7,228.0 568.2,229.1 569.7,230.1 571.2,231.1 572.6,232.1 574.1,233.1 575.6,234.1 577.1,235.1 578.6,236.1 580.1,237.1 581.6,238.1 583.0,239.1 584.5,240.1 586.0,241.1 587.5,242.1 589.0,243.1 590.5,244.0 591.9,245.0 593.4,246.0 594.9,246.9 596.4,247.9 597.9,248.9 599.4,249.8 600.9,250.8 602.3,251.7 603.8,252.7 605.3,253.6 606.8,254.5 608.3,255.5 609.8,256.4 611.2,257.3 612.7,258.2 614.2,259.1 615.7,260.0 617.2,260.9 618.7,261.8 620.2,262.7 621.6,263.6 623.1,264.5 624.6,265.4 626.1,266.3 627.6,267.1 629.1,268.0 630.5,268.9 632.0,269.7 633.5,270.5 635.0,271.4 636.5,272.2 638.0,273.1 639.4,273.9 640.9,274.7 642.4,275.5 643.9,276.3 645.4,277.1 646.9,277.9 648.4,278.7 649.8,279.5 651.3,280.2 652.8,281.0 654.3,281.7 655.8,282.5 657.3,283.2 658.7,284.0 660.2,284.7 661.7,285.4 663.2,286.1 664.7,286.8 666.2,287.5 667.7,288.2 669.1,288.9 670.6,289.6 672.1,290.2 673.6,290.9 675.1,291.5 676.6,292.2 678.0,292.8 679.5,293.4 681.0,294.0 682.5,294.6 684.0,295.2 685.5,295.8 687.0,296.4 688.4,297.0 689.9,297.5 691.4,298.1 692.9,298.6 694.4,299.1 695.9,299.6 697.3,300.1 698.8,300.6 700.3,301.1 701.8,301.6 703.3,302.1 704.8,302.5 706.2,303.0 707.7,303.4 709.2,303.8 710.7,304.3 712.2,304.7 713.7,305.1 715.2,305.5 716.6,305.8 718.1,306.2 719.6,306.6 721.1,306.9 722.6,307.2 724.1,307.6 725.5,307.9 727.0,308.2 728.5,308.5 730.0,308.8" fill="none" stroke="#2563eb" stroke-width="2.5"/>
<line x1="62" y1="316.0" x2="730" y2="316.0" stroke="#6b7280" stroke-width="1"/>
<line x1="106.5" y1="44" x2="106.5" y2="316" stroke="#16a34a" stroke-width="1.5" stroke-dasharray="4,3" opacity="0.7"/><rect x="94.5" y="322.0" width="24" height="16" rx="3" fill="#16a34a"/><text x="106.5" y="333.0" fill="white" font-size="10" font-weight="bold" text-anchor="middle">F</text><text x="106.5" y="38.0" fill="#16a34a" font-size="9" text-anchor="middle">Full meal</text>
<line x1="151.1" y1="310.0" x2="151.1" y2="322.0" stroke="#1d4ed8" stroke-width="2"/><text x="151.1" y="344.0" fill="#1d4ed8" font-size="9" text-anchor="middle">Champagne
19:00</text>
<line x1="240.1" y1="310.0" x2="240.1" y2="322.0" stroke="#1d4ed8" stroke-width="2"/><text x="240.1" y="344.0" fill="#1d4ed8" font-size="9" text-anchor="middle">Wine 1
20:00</text>
<line x1="329.2" y1="310.0" x2="329.2" y2="322.0" stroke="#1d4ed8" stroke-width="2"/><text x="329.2" y="344.0" fill="#1d4ed8" font-size="9" text-anchor="middle">Wine 2
21:00</text>
<line x1="62" y1="44" x2="62" y2="316" stroke="#374151" stroke-width="1.5"/><line x1="62" y1="316" x2="730" y2="316" stroke="#374151" stroke-width="1.5"/>
<text x="57" y="316.0" fill="#374151" font-size="10" text-anchor="end" dominant-baseline="middle">0.00 %</text><line x1="59" y1="316.0" x2="62" y2="316.0" stroke="#374151" stroke-width="1"/>
<text x="57" y="209.3" fill="#374151" font-size="10" text-anchor="end" dominant-baseline="middle">0.02 %</text><line x1="59" y1="209.3" x2="62" y2="209.3" stroke="#374151" stroke-width="1"/>
<text x="57" y="102.7" fill="#374151" font-size="10" text-anchor="end" dominant-baseline="middle">0.04 %</text><line x1="59" y1="102.7" x2="62" y2="102.7" stroke="#374151" stroke-width="1"/>
<text x="106.5" y="360.0" fill="#374151" font-size="10" text-anchor="middle">18:30</text><line x1="106.5" y1="316" x2="106.5" y2="320" stroke="#374151" stroke-width="1"/>
<text x="151.1" y="360.0" fill="#374151" font-size="10" text-anchor="middle">19:00</text><line x1="151.1" y1="316" x2="151.1" y2="320" stroke="#374151" stroke-width="1"/>
<text x="195.6" y="360.0" fill="#374151" font-size="10" text-anchor="middle">19:30</text><line x1="195.6" y1="316" x2="195.6" y2="320" stroke="#374151" stroke-width="1"/>
<text x="240.1" y="360.0" fill="#374151" font-size="10" text-anchor="middle">20:00</text><line x1="240.1" y1="316" x2="240.1" y2="320" stroke="#374151" stroke-width="1"/>
<text x="284.7" y="360.0" fill="#374151" font-size="10" text-anchor="middle">20:30</text><line x1="284.7" y1="316" x2="284.7" y2="320" stroke="#374151" stroke-width="1"/>
<text x="329.2" y="360.0" fill="#374151" font-size="10" text-anchor="middle">21:00</text><line x1="329.2" y1="316" x2="329.2" y2="320" stroke="#374151" stroke-width="1"/>
<text x="373.7" y="360.0" fill="#374151" font-size="10" text-anchor="middle">21:30</text><line x1="373.7" y1="316" x2="373.7" y2="320" stroke="#374151" stroke-width="1"/>
<text x="418.3" y="360.0" fill="#374151" font-size="10" text-anchor="middle">22:00</text><line x1="418.3" y1="316" x2="418.3" y2="320" stroke="#374151" stroke-width="1"/>
<text x="462.8" y="360.0" fill="#374151" font-size="10" text-anchor="middle">22:30</text><line x1="462.8" y1="316" x2="462.8" y2="320" stroke="#374151" stroke-width="1"/>
<text x="507.3" y="360.0" fill="#374151" font-size="10" text-anchor="middle">23:00</text><line x1="507.3" y1="316" x2="507.3" y2="320" stroke="#374151" stroke-width="1"/>
<text x="551.9" y="360.0" fill="#374151" font-size="10" text-anchor="middle">23:30</text><line x1="551.9" y1="316" x2="551.9" y2="320" stroke="#374151" stroke-width="1"/>
<text x="596.4" y="360.0" fill="#374151" font-size="10" text-anchor="middle">00:00</text><line x1="596.4" y1="316" x2="596.4" y2="320" stroke="#374151" stroke-width="1"/>
<text x="640.9" y="360.0" fill="#374151" font-size="10" text-anchor="middle">00:30</text><line x1="640.9" y1="316" x2="640.9" y2="320" stroke="#374151" stroke-width="1"/>
<text x="685.5" y="360.0" fill="#374151" font-size="10" text-anchor="middle">01:00</text><line x1="685.5" y1="316" x2="685.5" y2="320" stroke="#374151" stroke-width="1"/>
<text x="730.0" y="360.0" fill="#374151" font-size="10" text-anchor="middle">01:30</text><line x1="730.0" y1="316" x2="730.0" y2="320" stroke="#374151" stroke-width="1"/>
<text x="396" y="376" fill="#374151" font-size="11" text-anchor="middle">Time</text><text x="14" y="180" fill="#374151" font-size="11" text-anchor="middle" transform="rotate(-90,14,180)">BAC (%)</text>
<line x1="70" y1="54" x2="92" y2="54" stroke="#2563eb" stroke-width="2.5"/>
<text x="96" y="54" fill="#374151" font-size="10" dominant-baseline="middle">Main curve</text>
<line x1="70" y1="70" x2="92" y2="70" stroke="#9ca3af" stroke-width="2" stroke-dasharray="6,4"/>
<text x="96" y="70" fill="#374151" font-size="10" dominant-baseline="middle">Same drinks, fasted</text>
<text x="380" y="20" fill="#111827" font-size="13" font-weight="bold" text-anchor="middle">Example 6 — Champagne at dinner: food overrides carbonation</text>
<text x="730" y="54" fill="#6b7280" font-size="9" text-anchor="end">Profile: male, 70 kg, 175 cm · r=0.789 · βₘₐₓ=0.015 %/h · Kₘ=0.005 %</text>
</svg>
